<mxfile modified="2022-06-30T18:55:37.982Z" host="app.diagrams.net" agent="5.0 (Macintosh; Intel Mac OS X 10_15_7) AppleWebKit/537.36 (KHTML, like Gecko) Chrome/102.0.0.0 Safari/537.36" etag="leblioYNZSY1_zvYYtsc" version="20.0.1" type="github">
  <diagram id="WI9T0HZ2pTsCkuznbFz-" name="Page-1">
    <mxGraphModel dx="1426" dy="712" grid="1" gridSize="10" guides="1" tooltips="1" connect="1" arrows="1" fold="1" page="1" pageScale="1" pageWidth="1169" pageHeight="827" math="0" shadow="0">
      <root>
        <mxCell id="0" />
        <mxCell id="1" parent="0" />
        <mxCell id="RLjyjs_sm2IHfBNOWAbh-109" value="" style="rounded=0;whiteSpace=wrap;html=1;labelBackgroundColor=#ffffff;fillColor=#f5f5f5;strokeColor=none;fontColor=#333333;" parent="1" vertex="1">
          <mxGeometry x="225" y="578" width="110" height="100" as="geometry" />
        </mxCell>
        <mxCell id="RLjyjs_sm2IHfBNOWAbh-113" value="" style="rounded=0;whiteSpace=wrap;html=1;labelBackgroundColor=#ffffff;fillColor=#f5f5f5;strokeColor=none;fontColor=#333333;" parent="1" vertex="1">
          <mxGeometry x="528" y="428" width="927" height="460" as="geometry" />
        </mxCell>
        <mxCell id="RLjyjs_sm2IHfBNOWAbh-143" style="edgeStyle=elbowEdgeStyle;rounded=0;orthogonalLoop=1;jettySize=auto;html=1;strokeColor=#808080;" parent="1" source="RLjyjs_sm2IHfBNOWAbh-113" target="RLjyjs_sm2IHfBNOWAbh-64" edge="1">
          <mxGeometry relative="1" as="geometry" />
        </mxCell>
        <mxCell id="RLjyjs_sm2IHfBNOWAbh-133" style="edgeStyle=elbowEdgeStyle;rounded=0;orthogonalLoop=1;jettySize=auto;elbow=vertical;html=1;strokeColor=#808080;exitX=1.02;exitY=0.505;exitDx=0;exitDy=0;exitPerimeter=0;" parent="1" source="RLjyjs_sm2IHfBNOWAbh-40" target="RLjyjs_sm2IHfBNOWAbh-44" edge="1">
          <mxGeometry relative="1" as="geometry" />
        </mxCell>
        <mxCell id="RLjyjs_sm2IHfBNOWAbh-134" style="edgeStyle=orthogonalEdgeStyle;rounded=0;orthogonalLoop=1;jettySize=auto;elbow=vertical;html=1;strokeColor=#808080;" parent="1" target="RLjyjs_sm2IHfBNOWAbh-44" edge="1">
          <mxGeometry relative="1" as="geometry">
            <mxPoint x="280" y="578" as="sourcePoint" />
            <Array as="points">
              <mxPoint x="280" y="568" />
              <mxPoint x="425" y="568" />
              <mxPoint x="425" y="478" />
            </Array>
          </mxGeometry>
        </mxCell>
        <mxCell id="RLjyjs_sm2IHfBNOWAbh-135" style="edgeStyle=elbowEdgeStyle;rounded=0;orthogonalLoop=1;jettySize=auto;elbow=vertical;html=1;strokeColor=#808080;exitX=0.007;exitY=0.495;exitDx=0;exitDy=0;exitPerimeter=0;" parent="1" source="RLjyjs_sm2IHfBNOWAbh-42" target="RLjyjs_sm2IHfBNOWAbh-109" edge="1">
          <mxGeometry relative="1" as="geometry" />
        </mxCell>
        <mxCell id="RLjyjs_sm2IHfBNOWAbh-136" style="edgeStyle=elbowEdgeStyle;rounded=0;orthogonalLoop=1;jettySize=auto;elbow=vertical;html=1;strokeColor=#808080;exitX=1.007;exitY=0.516;exitDx=0;exitDy=0;exitPerimeter=0;" parent="1" source="RLjyjs_sm2IHfBNOWAbh-42" target="RLjyjs_sm2IHfBNOWAbh-113" edge="1">
          <mxGeometry relative="1" as="geometry" />
        </mxCell>
        <mxCell id="RLjyjs_sm2IHfBNOWAbh-141" style="edgeStyle=elbowEdgeStyle;rounded=0;orthogonalLoop=1;jettySize=auto;elbow=vertical;html=1;strokeColor=#808080;" parent="1" source="RLjyjs_sm2IHfBNOWAbh-43" target="RLjyjs_sm2IHfBNOWAbh-109" edge="1">
          <mxGeometry relative="1" as="geometry">
            <Array as="points">
              <mxPoint x="345" y="797" />
            </Array>
          </mxGeometry>
        </mxCell>
        <mxCell id="RLjyjs_sm2IHfBNOWAbh-142" style="edgeStyle=elbowEdgeStyle;rounded=0;orthogonalLoop=1;jettySize=auto;elbow=vertical;html=1;strokeColor=#808080;" parent="1" source="RLjyjs_sm2IHfBNOWAbh-43" target="RLjyjs_sm2IHfBNOWAbh-113" edge="1">
          <mxGeometry relative="1" as="geometry" />
        </mxCell>
        <mxCell id="RLjyjs_sm2IHfBNOWAbh-137" style="edgeStyle=elbowEdgeStyle;rounded=0;orthogonalLoop=1;jettySize=auto;elbow=vertical;html=1;strokeColor=#808080;" parent="1" source="RLjyjs_sm2IHfBNOWAbh-44" target="RLjyjs_sm2IHfBNOWAbh-47" edge="1">
          <mxGeometry relative="1" as="geometry" />
        </mxCell>
        <mxCell id="RLjyjs_sm2IHfBNOWAbh-138" style="edgeStyle=elbowEdgeStyle;rounded=0;orthogonalLoop=1;jettySize=auto;elbow=vertical;html=1;strokeColor=#808080;" parent="1" source="RLjyjs_sm2IHfBNOWAbh-44" target="RLjyjs_sm2IHfBNOWAbh-86" edge="1">
          <mxGeometry relative="1" as="geometry" />
        </mxCell>
        <mxCell id="RLjyjs_sm2IHfBNOWAbh-150" style="edgeStyle=elbowEdgeStyle;rounded=0;orthogonalLoop=1;jettySize=auto;html=1;strokeColor=#808080;entryX=0.504;entryY=0.005;entryDx=0;entryDy=0;entryPerimeter=0;" parent="1" source="RLjyjs_sm2IHfBNOWAbh-50" target="RLjyjs_sm2IHfBNOWAbh-52" edge="1">
          <mxGeometry relative="1" as="geometry" />
        </mxCell>
        <mxCell id="RLjyjs_sm2IHfBNOWAbh-151" style="edgeStyle=elbowEdgeStyle;rounded=0;orthogonalLoop=1;jettySize=auto;elbow=vertical;html=1;strokeColor=#808080;entryX=0.494;entryY=-0.002;entryDx=0;entryDy=0;entryPerimeter=0;" parent="1" source="RLjyjs_sm2IHfBNOWAbh-50" target="RLjyjs_sm2IHfBNOWAbh-51" edge="1">
          <mxGeometry relative="1" as="geometry">
            <Array as="points">
              <mxPoint x="1045" y="544" />
            </Array>
          </mxGeometry>
        </mxCell>
        <mxCell id="RLjyjs_sm2IHfBNOWAbh-152" style="edgeStyle=elbowEdgeStyle;rounded=0;orthogonalLoop=1;jettySize=auto;elbow=vertical;html=1;strokeColor=#808080;entryX=0.489;entryY=0.007;entryDx=0;entryDy=0;entryPerimeter=0;" parent="1" source="RLjyjs_sm2IHfBNOWAbh-50" target="RLjyjs_sm2IHfBNOWAbh-82" edge="1">
          <mxGeometry relative="1" as="geometry">
            <Array as="points">
              <mxPoint x="1255" y="544" />
            </Array>
          </mxGeometry>
        </mxCell>
        <mxCell id="RLjyjs_sm2IHfBNOWAbh-144" style="edgeStyle=elbowEdgeStyle;rounded=0;orthogonalLoop=1;jettySize=auto;elbow=vertical;html=1;entryX=-0.023;entryY=0.257;entryDx=0;entryDy=0;entryPerimeter=0;strokeColor=#808080;" parent="1" source="RLjyjs_sm2IHfBNOWAbh-65" target="RLjyjs_sm2IHfBNOWAbh-101" edge="1">
          <mxGeometry relative="1" as="geometry" />
        </mxCell>
        <mxCell id="RLjyjs_sm2IHfBNOWAbh-145" style="edgeStyle=elbowEdgeStyle;rounded=0;orthogonalLoop=1;jettySize=auto;elbow=vertical;html=1;entryX=0.25;entryY=0;entryDx=0;entryDy=0;strokeColor=#808080;" parent="1" source="RLjyjs_sm2IHfBNOWAbh-65" target="RLjyjs_sm2IHfBNOWAbh-66" edge="1">
          <mxGeometry relative="1" as="geometry" />
        </mxCell>
        <mxCell id="RLjyjs_sm2IHfBNOWAbh-111" style="edgeStyle=elbowEdgeStyle;rounded=0;orthogonalLoop=1;jettySize=auto;elbow=vertical;html=1;strokeColor=#808080;startArrow=classic;startFill=1;" parent="1" target="RLjyjs_sm2IHfBNOWAbh-68" edge="1">
          <mxGeometry relative="1" as="geometry">
            <mxPoint x="1347" y="1028" as="sourcePoint" />
            <Array as="points">
              <mxPoint x="1165" y="1113" />
            </Array>
          </mxGeometry>
        </mxCell>
        <mxCell id="RLjyjs_sm2IHfBNOWAbh-139" style="edgeStyle=elbowEdgeStyle;rounded=0;orthogonalLoop=1;jettySize=auto;elbow=vertical;html=1;strokeColor=#808080;endArrow=none;endFill=0;" parent="1" source="RLjyjs_sm2IHfBNOWAbh-47" target="RLjyjs_sm2IHfBNOWAbh-126" edge="1">
          <mxGeometry relative="1" as="geometry" />
        </mxCell>
        <mxCell id="RLjyjs_sm2IHfBNOWAbh-140" style="edgeStyle=elbowEdgeStyle;rounded=0;orthogonalLoop=1;jettySize=auto;elbow=vertical;html=1;strokeColor=#808080;endArrow=none;endFill=0;" parent="1" source="RLjyjs_sm2IHfBNOWAbh-86" target="RLjyjs_sm2IHfBNOWAbh-126" edge="1">
          <mxGeometry relative="1" as="geometry">
            <mxPoint x="704.9999999999998" y="668" as="targetPoint" />
          </mxGeometry>
        </mxCell>
        <mxCell id="RLjyjs_sm2IHfBNOWAbh-146" style="edgeStyle=elbowEdgeStyle;rounded=0;orthogonalLoop=1;jettySize=auto;elbow=vertical;html=1;strokeColor=#808080;endArrow=none;endFill=0;" parent="1" target="RLjyjs_sm2IHfBNOWAbh-119" edge="1">
          <mxGeometry relative="1" as="geometry">
            <mxPoint x="960" y="818" as="sourcePoint" />
            <Array as="points">
              <mxPoint x="1055" y="838" />
            </Array>
          </mxGeometry>
        </mxCell>
        <mxCell id="RLjyjs_sm2IHfBNOWAbh-147" style="edgeStyle=elbowEdgeStyle;rounded=0;orthogonalLoop=1;jettySize=auto;elbow=vertical;html=1;strokeColor=#808080;endArrow=none;endFill=0;" parent="1" target="RLjyjs_sm2IHfBNOWAbh-119" edge="1">
          <mxGeometry relative="1" as="geometry">
            <mxPoint x="1347" y="828" as="sourcePoint" />
            <Array as="points">
              <mxPoint x="1255" y="838" />
            </Array>
          </mxGeometry>
        </mxCell>
        <mxCell id="RLjyjs_sm2IHfBNOWAbh-148" style="edgeStyle=orthogonalEdgeStyle;rounded=0;orthogonalLoop=1;jettySize=auto;elbow=vertical;html=1;strokeColor=#808080;endArrow=none;endFill=0;" parent="1" target="RLjyjs_sm2IHfBNOWAbh-118" edge="1">
          <mxGeometry relative="1" as="geometry">
            <mxPoint x="959" y="638" as="sourcePoint" />
            <Array as="points">
              <mxPoint x="959" y="708" />
              <mxPoint x="1156" y="708" />
            </Array>
          </mxGeometry>
        </mxCell>
        <mxCell id="RLjyjs_sm2IHfBNOWAbh-149" style="edgeStyle=elbowEdgeStyle;rounded=0;orthogonalLoop=1;jettySize=auto;elbow=vertical;html=1;strokeColor=#808080;endArrow=none;endFill=0;" parent="1" target="RLjyjs_sm2IHfBNOWAbh-118" edge="1">
          <mxGeometry relative="1" as="geometry">
            <mxPoint x="1345" y="638" as="sourcePoint" />
            <Array as="points">
              <mxPoint x="1255" y="708" />
            </Array>
          </mxGeometry>
        </mxCell>
        <mxCell id="RLjyjs_sm2IHfBNOWAbh-153" style="edgeStyle=elbowEdgeStyle;rounded=0;orthogonalLoop=1;jettySize=auto;elbow=vertical;html=1;strokeColor=#808080;endArrow=none;endFill=0;" parent="1" target="RLjyjs_sm2IHfBNOWAbh-116" edge="1">
          <mxGeometry relative="1" as="geometry">
            <mxPoint x="583" y="828" as="sourcePoint" />
          </mxGeometry>
        </mxCell>
        <mxCell id="RLjyjs_sm2IHfBNOWAbh-154" style="edgeStyle=elbowEdgeStyle;rounded=0;orthogonalLoop=1;jettySize=auto;elbow=vertical;html=1;strokeColor=#808080;endArrow=none;endFill=0;" parent="1" target="RLjyjs_sm2IHfBNOWAbh-116" edge="1">
          <mxGeometry relative="1" as="geometry">
            <mxPoint x="694.9999999999998" y="868" as="targetPoint" />
            <mxPoint x="790" y="828" as="sourcePoint" />
          </mxGeometry>
        </mxCell>
        <mxCell id="RLjyjs_sm2IHfBNOWAbh-40" value="Access from the&lt;br&gt;internet for extranet&lt;br&gt;scenarios" style="aspect=fixed;html=1;perimeter=none;align=center;shadow=0;dashed=0;image;fontSize=12;image=img/lib/mscae/PersonWithFriend.svg;labelBackgroundColor=#ffffff;fillColor=#4D9900;" parent="1" vertex="1">
          <mxGeometry x="255" y="453" width="50" height="49.5" as="geometry" />
        </mxCell>
        <mxCell id="RLjyjs_sm2IHfBNOWAbh-41" value="On-Premises&lt;br&gt;Users" style="aspect=fixed;html=1;perimeter=none;align=center;shadow=0;dashed=0;image;fontSize=12;image=img/lib/mscae/PersonWithFriend.svg;labelBackgroundColor=#ffffff;fillColor=#4D9900;" parent="1" vertex="1">
          <mxGeometry x="255" y="586.7499999999999" width="50" height="49.5" as="geometry" />
        </mxCell>
        <mxCell id="RLjyjs_sm2IHfBNOWAbh-42" value="Express&lt;br&gt;Route" style="aspect=fixed;html=1;perimeter=none;align=center;shadow=0;dashed=0;image;fontSize=12;image=img/lib/mscae/Express_Route.svg;labelBackgroundColor=#ffffff;fillColor=#4D9900;" parent="1" vertex="1">
          <mxGeometry x="405" y="596.25" width="50" height="30.5" as="geometry" />
        </mxCell>
        <mxCell id="RLjyjs_sm2IHfBNOWAbh-43" value="VPN Gateway" style="shape=image;verticalLabelPosition=bottom;labelBackgroundColor=#ffffff;verticalAlign=top;aspect=fixed;imageAspect=0;image=data:image/svg+xml,PHN2ZyB4bWxuczpjYz0iaHR0cDovL2NyZWF0aXZlY29tbW9ucy5vcmcvbnMjIiB4bWxuczpkYz0iaHR0cDovL3B1cmwub3JnL2RjL2VsZW1lbnRzLzEuMS8iIHhtbG5zOmlua3NjYXBlPSJodHRwOi8vd3d3Lmlua3NjYXBlLm9yZy9uYW1lc3BhY2VzL2lua3NjYXBlIiB4bWxuczpyZGY9Imh0dHA6Ly93d3cudzMub3JnLzE5OTkvMDIvMjItcmRmLXN5bnRheC1ucyMiIHhtbG5zOnNvZGlwb2RpPSJodHRwOi8vc29kaXBvZGkuc291cmNlZm9yZ2UubmV0L0RURC9zb2RpcG9kaS0wLmR0ZCIgeG1sbnM6c3ZnPSJodHRwOi8vd3d3LnczLm9yZy8yMDAwL3N2ZyIgeG1sbnM9Imh0dHA6Ly93d3cudzMub3JnLzIwMDAvc3ZnIiB4bWxuczp4bGluaz0iaHR0cDovL3d3dy53My5vcmcvMTk5OS94bGluayIgdmVyc2lvbj0iMS4xIiBpZD0ic3ZnMTIyNzAiIGlua3NjYXBlOnZlcnNpb249IjAuOTIuMyAoMjQwNTU0NiwgMjAxOC0wMy0xMSkiIHNvZGlwb2RpOmRvY25hbWU9InZwbl9nYXRld2F5LnN2ZyIgeD0iMHB4IiB5PSIwcHgiIHZpZXdCb3g9IjAgMCA4OS42OSAxMDAuMTEiIHN0eWxlPSJlbmFibGUtYmFja2dyb3VuZDpuZXcgMCAwIDg5LjY5IDEwMC4xMTsiIHhtbDpzcGFjZT0icHJlc2VydmUiPiYjeGE7PHNvZGlwb2RpOm5hbWVkdmlldyBib3JkZXJjb2xvcj0iIzY2NjY2NiIgYm9yZGVyb3BhY2l0eT0iMSIgZml0LW1hcmdpbi1ib3R0b209IjAiIGZpdC1tYXJnaW4tbGVmdD0iMCIgZml0LW1hcmdpbi1yaWdodD0iMCIgZml0LW1hcmdpbi10b3A9IjAiIGdyaWR0b2xlcmFuY2U9IjEwIiBndWlkZXRvbGVyYW5jZT0iMTAiIGlkPSJuYW1lZHZpZXcxMjI3MiIgaW5rc2NhcGU6Y3VycmVudC1sYXllcj0ic3ZnMTIyNzAiIGlua3NjYXBlOmN4PSI1OS43OTYiIGlua3NjYXBlOmN5PSI2Ni43NDMzMzEiIGlua3NjYXBlOnBhZ2VvcGFjaXR5PSIwIiBpbmtzY2FwZTpwYWdlc2hhZG93PSIyIiBpbmtzY2FwZTp3aW5kb3ctaGVpZ2h0PSIxMDE3IiBpbmtzY2FwZTp3aW5kb3ctbWF4aW1pemVkPSIxIiBpbmtzY2FwZTp3aW5kb3ctd2lkdGg9IjE5MjAiIGlua3NjYXBlOndpbmRvdy14PSItOCIgaW5rc2NhcGU6d2luZG93LXk9Ii04IiBpbmtzY2FwZTp6b29tPSI1LjIxOTMxOTciIG9iamVjdHRvbGVyYW5jZT0iMTAiIHBhZ2Vjb2xvcj0iI2ZmZmZmZiIgc2hvd2dyaWQ9ImZhbHNlIj4mI3hhOwk8L3NvZGlwb2RpOm5hbWVkdmlldz4mI3hhOzxnIGlkPSJnMTIyNjgiIHRyYW5zZm9ybT0idHJhbnNsYXRlKC0xMi4yNCwtMTIuMjM1NzAzKSI+JiN4YTsJPHRpdGxlIGlkPSJ0aXRsZTEyMjQzIj5QYWdlLTE8L3RpdGxlPiYjeGE7CTxnIGlkPSJncm91cDk0MzQtMSIgdHJhbnNmb3JtPSJ0cmFuc2xhdGUoMTIuMjQsLTEyLjI0KSI+JiN4YTsJCTx0aXRsZSBpZD0idGl0bGUxMjI0NSI+VlBOIEdhdGV3YXk8L3RpdGxlPiYjeGE7CQk8ZyBpZD0ic2hhcGU5NDM1LTIiIHRyYW5zZm9ybT0idHJhbnNsYXRlKDEwLjYxMTIsLTYxLjI2NDQpIj4mI3hhOwkJCTx0aXRsZSBpZD0idGl0bGUxMjI0NyI+U2hlZXQuOTQzNTwvdGl0bGU+JiN4YTsJCQk8cGF0aCBpZD0icGF0aDEyMjQ5IiBpbmtzY2FwZTpjb25uZWN0b3ItY3VydmF0dXJlPSIwIiBzdHlsZT0iZmlsbDojQTBBMUEyOyIgZD0iTTY4LjQ3LDEyMi43OHYtNC40YzAtOC44MS0zLjItMTcuMDItOC44MS0yMi44MyAgICAgYy01LjItNi0xNi44MS05LjgxLTI1LjQyLTkuODFzLTIwLjIzLDMuODEtMjUuNDMsOS44MUMzLjQsMTAxLjM2LDAsMTA5LjU3LDAsMTE4LjM4djQuNGwxNS44MiwxLjgxdi00LjAxICAgICBjMC01LjIsMS44LTExLjgxLDQuOC0xNS4yMWMzLTMuNDEsOS40MS01LjAxLDEzLjYyLTUuMjFjNC4yLDAsMTAuNjEsMS44LDEzLjYxLDUuMjFjMywzLjQsNC44MSw3LjgsNC44MSwxMi44MXY2LjQxICAgICBMNjguNDcsMTIyLjc4eiIvPiYjeGE7CQk8L2c+JiN4YTsJCTxnIGlkPSJzaGFwZTk0MzYtNCI+JiN4YTsJCQk8dGl0bGUgaWQ9InRpdGxlMTIyNTIiPlNoZWV0Ljk0MzY8L3RpdGxlPiYjeGE7CQkJPHBhdGggaWQ9InBhdGgxMjI1NCIgaW5rc2NhcGU6Y29ubmVjdG9yLWN1cnZhdHVyZT0iMCIgc3R5bGU9ImZpbGw6IzU5QjREOTsiIGQ9Ik0xMC42MSw2MS41MkMyLjgsNjEuNTIsMCw2Ni4xMiwwLDcyLjEzdjQxLjg0ICAgICBjMCw1LjIxLDMuMiwxMC42Miw5LjIxLDEwLjYyaDcxLjI3YzYuODEsMCw5LjIxLTUuNDEsOS4yMS0xMC42MlY3Mi4xM2MwLTUuNDEtMi4yLTEwLjYxLTEwLjYxLTEwLjYxTDEwLjYxLDYxLjUyeiIvPiYjeGE7CQk8L2c+JiN4YTsJCTxnIGlkPSJzaGFwZTk0MzctNiI+JiN4YTsJCQk8dGl0bGUgaWQ9InRpdGxlMTIyNTciPlNoZWV0Ljk0Mzc8L3RpdGxlPiYjeGE7CQkJPHBhdGggaWQ9InBhdGgxMjI1OSIgaW5rc2NhcGU6Y29ubmVjdG9yLWN1cnZhdHVyZT0iMCIgc3R5bGU9ImZpbGw6I0ZGRkZGRjtmaWxsLW9wYWNpdHk6MC4xNTsiIGQ9Ik02My4wNyw2MS41MkgxMC42MSAgICAgQzIuOCw2MS41MiwwLDY2LjEyLDAsNzIuMTN2NDEuODRjMCw1LjIxLDMuMiwxMC42Miw5LjIxLDEwLjYyaDEzLjQxTDYzLjA3LDYxLjUyeiIvPiYjeGE7CQk8L2c+JiN4YTsJCTxnIGlkPSJzaGFwZTk0MzgtOCIgdHJhbnNmb3JtPSJ0cmFuc2xhdGUoMTEuNDEyLC01LjYwNTg5KSI+JiN4YTsJCQk8dGl0bGUgaWQ9InRpdGxlMTIyNjIiPlNoZWV0Ljk0Mzg8L3RpdGxlPiYjeGE7CQkJPHBhdGggaWQ9InBhdGgxMjI2NCIgaW5rc2NhcGU6Y29ubmVjdG9yLWN1cnZhdHVyZT0iMCIgc3R5bGU9ImZpbGw6I0ZGRkZGRjsiIGQ9Ik0yMS40Miw4NC4zNGwxMS42MS0xMS42MWwxMS42MiwxMS42MWgtOC4yMSAgICAgdjguNDFoLTcuMDF2LTguNDFDMjkuNDMsODQuMzQsMjEuNDIsODQuMzQsMjEuNDIsODQuMzR6IE0wLDEwMS45NnYtNi44MWgxMi4wMXYtOGwxMS4yMSwxMS4yMWwtMTEuMjEsMTEuMjF2LTcuODFIMFYxMDEuOTZ6ICAgICAgTTMzLjAzLDEyNC41OWwtMTEuODEtMTEuODJoOC4yMXYtOC4yMWg3LjAxdjguMjFoOC40MUwzMy4wMywxMjQuNTl6IE02Ni4wNywxMDEuOTZINTQuMDZ2OC4wMUw0Mi42NCw5OC41NmwxMS40Mi0xMS40MXY4aDEyLjAxICAgICBWMTAxLjk2eiIvPiYjeGE7CQk8L2c+JiN4YTsJPC9nPiYjeGE7PC9nPiYjeGE7PC9zdmc+;fillColor=#4D9900;" parent="1" vertex="1">
          <mxGeometry x="395" y="770" width="54" height="60" as="geometry" />
        </mxCell>
        <mxCell id="RLjyjs_sm2IHfBNOWAbh-44" value="Load Balancer" style="shape=image;verticalLabelPosition=bottom;labelBackgroundColor=#F5F5F5;verticalAlign=top;aspect=fixed;imageAspect=0;image=data:image/svg+xml,PHN2ZyB4bWxuczpkYz0iaHR0cDovL3B1cmwub3JnL2RjL2VsZW1lbnRzLzEuMS8iIHhtbG5zOmNjPSJodHRwOi8vY3JlYXRpdmVjb21tb25zLm9yZy9ucyMiIHhtbG5zOnJkZj0iaHR0cDovL3d3dy53My5vcmcvMTk5OS8wMi8yMi1yZGYtc3ludGF4LW5zIyIgeG1sbnM6c3ZnPSJodHRwOi8vd3d3LnczLm9yZy8yMDAwL3N2ZyIgeG1sbnM9Imh0dHA6Ly93d3cudzMub3JnLzIwMDAvc3ZnIiB4bWxuczpzb2RpcG9kaT0iaHR0cDovL3NvZGlwb2RpLnNvdXJjZWZvcmdlLm5ldC9EVEQvc29kaXBvZGktMC5kdGQiIHhtbG5zOmlua3NjYXBlPSJodHRwOi8vd3d3Lmlua3NjYXBlLm9yZy9uYW1lc3BhY2VzL2lua3NjYXBlIiB2ZXJzaW9uPSIxLjEiIGlkPSJzdmc4Mjg3OSIgaW5rc2NhcGU6dmVyc2lvbj0iMC45Mi4zICgyNDA1NTQ2LCAyMDE4LTAzLTExKSIgc29kaXBvZGk6ZG9jbmFtZT0ibG9hZF9iYWxhbmNlci5zdmciIHg9IjBweCIgeT0iMHB4IiB2aWV3Qm94PSIwIDAgMTAwLjMxIDEwMC4zMSIgeG1sOnNwYWNlPSJwcmVzZXJ2ZSIgd2lkdGg9IjEwMC4zMSIgaGVpZ2h0PSIxMDAuMzEiPjxtZXRhZGF0YSBpZD0ibWV0YWRhdGEyNDEyIj48cmRmOlJERj48Y2M6V29yayByZGY6YWJvdXQ9IiI+PGRjOmZvcm1hdD5pbWFnZS9zdmcreG1sPC9kYzpmb3JtYXQ+PGRjOnR5cGUgcmRmOnJlc291cmNlPSJodHRwOi8vcHVybC5vcmcvZGMvZGNtaXR5cGUvU3RpbGxJbWFnZSIvPjxkYzp0aXRsZS8+PC9jYzpXb3JrPjwvcmRmOlJERj48L21ldGFkYXRhPjxkZWZzIGlkPSJkZWZzMjQxMCIvPiYjeGE7PGZpbHRlciBpZD0iZmlsdGVyXzIiPiYjeGE7CTxmZUdhdXNzaWFuQmx1ciBpZD0iZmVHYXVzc2lhbkJsdXI4MjgzNiIgc3RkRGV2aWF0aW9uPSIyIi8+JiN4YTs8L2ZpbHRlcj4mI3hhOzxzb2RpcG9kaTpuYW1lZHZpZXcgYm9yZGVyY29sb3I9IiM2NjY2NjYiIGJvcmRlcm9wYWNpdHk9IjEiIGZpdC1tYXJnaW4tYm90dG9tPSIwIiBmaXQtbWFyZ2luLWxlZnQ9IjAiIGZpdC1tYXJnaW4tcmlnaHQ9IjAiIGZpdC1tYXJnaW4tdG9wPSIwIiBncmlkdG9sZXJhbmNlPSIxMCIgZ3VpZGV0b2xlcmFuY2U9IjEwIiBpZD0ibmFtZWR2aWV3ODI4ODEiIGlua3NjYXBlOmN1cnJlbnQtbGF5ZXI9InN2ZzgyODc5IiBpbmtzY2FwZTpjeD0iLTM2LjI2NDEyMyIgaW5rc2NhcGU6Y3k9IjQzLjM4OTQ1NSIgaW5rc2NhcGU6cGFnZW9wYWNpdHk9IjAiIGlua3NjYXBlOnBhZ2VzaGFkb3c9IjIiIGlua3NjYXBlOndpbmRvdy1oZWlnaHQ9IjEwMTciIGlua3NjYXBlOndpbmRvdy1tYXhpbWl6ZWQ9IjEiIGlua3NjYXBlOndpbmRvdy13aWR0aD0iMTkyMCIgaW5rc2NhcGU6d2luZG93LXg9Ii04IiBpbmtzY2FwZTp3aW5kb3cteT0iLTgiIGlua3NjYXBlOnpvb209IjUuMjEwODU3NiIgb2JqZWN0dG9sZXJhbmNlPSIxMCIgcGFnZWNvbG9yPSIjZmZmZmZmIiBzaG93Z3JpZD0iZmFsc2UiPiYjeGE7CTwvc29kaXBvZGk6bmFtZWR2aWV3PiYjeGE7JiN4YTs8cGF0aCBpZD0icGF0aDgyODQ5IiBpbmtzY2FwZTpjb25uZWN0b3ItY3VydmF0dXJlPSIwIiBzdHlsZT0iZmlsbDojN2ZiYTAwIiBkPSJtIDUwLjE1LDEwMC4zMSBjIC0yLjQ3LDAgLTQuNzksLTAuOTcgLTYuNTQsLTIuNzEgTCAyLjcxLDU2LjY5IEMgMC45OSw1NC45NyAwLDUyLjU5IDAsNTAuMTUgMCw0Ny43MiAwLjk5LDQ1LjMzIDIuNzEsNDMuNjEgTCA0My42MSwyLjcxIEMgNDUuMzYsMC45NiA0Ny42OCwwIDUwLjE1LDAgYyAyLjQ3LDAgNC44LDAuOTYgNi41NSwyLjcxIGwgNDAuODksNDAuOSBjIDEuNzUsMS43NCAyLjcyLDQuMDcgMi43Miw2LjU0IDAsMi40OCAtMC45Nyw0LjggLTIuNzIsNi41NSBMIDU2LjcsOTcuNiBjIC0xLjc1LDEuNzQgLTQuMDgsMi43MSAtNi41NSwyLjcxIHoiLz4mI3hhOyYjeGE7PHBhdGggaWQ9InBhdGg4Mjg1NyIgaW5rc2NhcGU6Y29ubmVjdG9yLWN1cnZhdHVyZT0iMCIgc3R5bGU9ImZpbGw6I2ZmZmZmZiIgZD0iTSA5MS41LDQ5LjQ4IDc4LjI0LDM2LjIxIHYgOS4zNyBMIDY0LjE2LDQ1LjU3IEMgNjIuOCw0MC43MiA1OSwzNi44OCA1NC4xNiwzNS41IFYgMjIuMDcgaCA5LjI2IEwgNTAuMTUsOC44MSAzNi44OSwyMi4wNyBoIDkuMjUgdiAxMy40MiBjIC00LjgzLDEuMzkgLTguNjMsNS4yMSAtOS45OSwxMC4wNSBMIDIyLjA3LDQ1LjUzIFYgMzYuMjYgTCA4LjgsNDkuNTMgMjIuMDcsNjIuNzkgdiAtOS4zNiBsIDE0LjA4LDAuMDEgYyAxLjM3LDQuODMgNS4xNyw4LjY0IDkuOTksMTAuMDIgdiA5LjMxIGMgLTIuMDEsMS40NiAtNS4wNyw0LjUzIC01LjA3LDguMSAwLDQuOTggNC4wOCw5LjAzIDkuMDUsOS4wMyA0Ljk4LDAgOS4wNSwtNC4wNSA5LjA1LC05LjAzIDAsLTMuNTMgLTMsLTYuNTcgLTUuMDEsLTguMDUgdiAtOS4zNiBjIDQuODIsLTEuMzggOC42MSwtNS4xOCA5Ljk4LC05Ljk5IGwgMTQuMSwwLjAxIHYgOS4yNiB6Ii8+JiN4YTsmI3hhOzxwYXRoIGlkPSJwYXRoODI4NjUiIGlua3NjYXBlOmNvbm5lY3Rvci1jdXJ2YXR1cmU9IjAiIHN0eWxlPSJmaWxsOiM1OWI0ZDkiIGQ9Im0gNTAuMTUsMzguOTMgYyAtNS44MiwwIC0xMC41NSw0LjczIC0xMC41NSwxMC41NSAwLDUuODIgNC43MywxMC41NSAxMC41NSwxMC41NSA1LjgxLDAgMTAuNTUsLTQuNzMgMTAuNTUsLTEwLjU1IDAsLTUuODIgLTQuNzQsLTEwLjU1IC0xMC41NSwtMTAuNTUgeiIvPiYjeGE7JiN4YTs8cGF0aCBpZD0icGF0aDgyODczIiBpbmtzY2FwZTpjb25uZWN0b3ItY3VydmF0dXJlPSIwIiBzdHlsZT0iZmlsbDojZmZmZmZmO2ZpbGwtb3BhY2l0eTowLjE1IiBkPSJNIDU2LjcsMi43MiBDIDU0Ljk1LDAuOTcgNTIuNjMsMCA1MC4xNSwwIDQ3LjY5LDAgNDUuMzYsMC45NyA0My42MSwyLjcyIEwgMi43MSw0My42MiBDIDAuOTksNDUuMzQgMCw0Ny43MiAwLDUwLjE2IDAsNTIuNTkgMC45OSw1NC45OCAyLjcxLDU2LjcgTCAyNS44Nyw3OS44NiA2OS40MywxNS40NSBaIi8+JiN4YTs8L3N2Zz4=;fillColor=#4D9900;" parent="1" vertex="1">
          <mxGeometry x="552.5" y="447.75" width="61" height="61" as="geometry" />
        </mxCell>
        <mxCell id="RLjyjs_sm2IHfBNOWAbh-50" value="Load Balancer" style="shape=image;verticalLabelPosition=bottom;labelBackgroundColor=#F5F5F5;verticalAlign=top;aspect=fixed;imageAspect=0;image=data:image/svg+xml,PHN2ZyB4bWxuczpkYz0iaHR0cDovL3B1cmwub3JnL2RjL2VsZW1lbnRzLzEuMS8iIHhtbG5zOmNjPSJodHRwOi8vY3JlYXRpdmVjb21tb25zLm9yZy9ucyMiIHhtbG5zOnJkZj0iaHR0cDovL3d3dy53My5vcmcvMTk5OS8wMi8yMi1yZGYtc3ludGF4LW5zIyIgeG1sbnM6c3ZnPSJodHRwOi8vd3d3LnczLm9yZy8yMDAwL3N2ZyIgeG1sbnM9Imh0dHA6Ly93d3cudzMub3JnLzIwMDAvc3ZnIiB4bWxuczpzb2RpcG9kaT0iaHR0cDovL3NvZGlwb2RpLnNvdXJjZWZvcmdlLm5ldC9EVEQvc29kaXBvZGktMC5kdGQiIHhtbG5zOmlua3NjYXBlPSJodHRwOi8vd3d3Lmlua3NjYXBlLm9yZy9uYW1lc3BhY2VzL2lua3NjYXBlIiB2ZXJzaW9uPSIxLjEiIGlkPSJzdmc4Mjg3OSIgaW5rc2NhcGU6dmVyc2lvbj0iMC45Mi4zICgyNDA1NTQ2LCAyMDE4LTAzLTExKSIgc29kaXBvZGk6ZG9jbmFtZT0ibG9hZF9iYWxhbmNlci5zdmciIHg9IjBweCIgeT0iMHB4IiB2aWV3Qm94PSIwIDAgMTAwLjMxIDEwMC4zMSIgeG1sOnNwYWNlPSJwcmVzZXJ2ZSIgd2lkdGg9IjEwMC4zMSIgaGVpZ2h0PSIxMDAuMzEiPjxtZXRhZGF0YSBpZD0ibWV0YWRhdGEyNDEyIj48cmRmOlJERj48Y2M6V29yayByZGY6YWJvdXQ9IiI+PGRjOmZvcm1hdD5pbWFnZS9zdmcreG1sPC9kYzpmb3JtYXQ+PGRjOnR5cGUgcmRmOnJlc291cmNlPSJodHRwOi8vcHVybC5vcmcvZGMvZGNtaXR5cGUvU3RpbGxJbWFnZSIvPjxkYzp0aXRsZS8+PC9jYzpXb3JrPjwvcmRmOlJERj48L21ldGFkYXRhPjxkZWZzIGlkPSJkZWZzMjQxMCIvPiYjeGE7PGZpbHRlciBpZD0iZmlsdGVyXzIiPiYjeGE7CTxmZUdhdXNzaWFuQmx1ciBpZD0iZmVHYXVzc2lhbkJsdXI4MjgzNiIgc3RkRGV2aWF0aW9uPSIyIi8+JiN4YTs8L2ZpbHRlcj4mI3hhOzxzb2RpcG9kaTpuYW1lZHZpZXcgYm9yZGVyY29sb3I9IiM2NjY2NjYiIGJvcmRlcm9wYWNpdHk9IjEiIGZpdC1tYXJnaW4tYm90dG9tPSIwIiBmaXQtbWFyZ2luLWxlZnQ9IjAiIGZpdC1tYXJnaW4tcmlnaHQ9IjAiIGZpdC1tYXJnaW4tdG9wPSIwIiBncmlkdG9sZXJhbmNlPSIxMCIgZ3VpZGV0b2xlcmFuY2U9IjEwIiBpZD0ibmFtZWR2aWV3ODI4ODEiIGlua3NjYXBlOmN1cnJlbnQtbGF5ZXI9InN2ZzgyODc5IiBpbmtzY2FwZTpjeD0iLTM2LjI2NDEyMyIgaW5rc2NhcGU6Y3k9IjQzLjM4OTQ1NSIgaW5rc2NhcGU6cGFnZW9wYWNpdHk9IjAiIGlua3NjYXBlOnBhZ2VzaGFkb3c9IjIiIGlua3NjYXBlOndpbmRvdy1oZWlnaHQ9IjEwMTciIGlua3NjYXBlOndpbmRvdy1tYXhpbWl6ZWQ9IjEiIGlua3NjYXBlOndpbmRvdy13aWR0aD0iMTkyMCIgaW5rc2NhcGU6d2luZG93LXg9Ii04IiBpbmtzY2FwZTp3aW5kb3cteT0iLTgiIGlua3NjYXBlOnpvb209IjUuMjEwODU3NiIgb2JqZWN0dG9sZXJhbmNlPSIxMCIgcGFnZWNvbG9yPSIjZmZmZmZmIiBzaG93Z3JpZD0iZmFsc2UiPiYjeGE7CTwvc29kaXBvZGk6bmFtZWR2aWV3PiYjeGE7JiN4YTs8cGF0aCBpZD0icGF0aDgyODQ5IiBpbmtzY2FwZTpjb25uZWN0b3ItY3VydmF0dXJlPSIwIiBzdHlsZT0iZmlsbDojN2ZiYTAwIiBkPSJtIDUwLjE1LDEwMC4zMSBjIC0yLjQ3LDAgLTQuNzksLTAuOTcgLTYuNTQsLTIuNzEgTCAyLjcxLDU2LjY5IEMgMC45OSw1NC45NyAwLDUyLjU5IDAsNTAuMTUgMCw0Ny43MiAwLjk5LDQ1LjMzIDIuNzEsNDMuNjEgTCA0My42MSwyLjcxIEMgNDUuMzYsMC45NiA0Ny42OCwwIDUwLjE1LDAgYyAyLjQ3LDAgNC44LDAuOTYgNi41NSwyLjcxIGwgNDAuODksNDAuOSBjIDEuNzUsMS43NCAyLjcyLDQuMDcgMi43Miw2LjU0IDAsMi40OCAtMC45Nyw0LjggLTIuNzIsNi41NSBMIDU2LjcsOTcuNiBjIC0xLjc1LDEuNzQgLTQuMDgsMi43MSAtNi41NSwyLjcxIHoiLz4mI3hhOyYjeGE7PHBhdGggaWQ9InBhdGg4Mjg1NyIgaW5rc2NhcGU6Y29ubmVjdG9yLWN1cnZhdHVyZT0iMCIgc3R5bGU9ImZpbGw6I2ZmZmZmZiIgZD0iTSA5MS41LDQ5LjQ4IDc4LjI0LDM2LjIxIHYgOS4zNyBMIDY0LjE2LDQ1LjU3IEMgNjIuOCw0MC43MiA1OSwzNi44OCA1NC4xNiwzNS41IFYgMjIuMDcgaCA5LjI2IEwgNTAuMTUsOC44MSAzNi44OSwyMi4wNyBoIDkuMjUgdiAxMy40MiBjIC00LjgzLDEuMzkgLTguNjMsNS4yMSAtOS45OSwxMC4wNSBMIDIyLjA3LDQ1LjUzIFYgMzYuMjYgTCA4LjgsNDkuNTMgMjIuMDcsNjIuNzkgdiAtOS4zNiBsIDE0LjA4LDAuMDEgYyAxLjM3LDQuODMgNS4xNyw4LjY0IDkuOTksMTAuMDIgdiA5LjMxIGMgLTIuMDEsMS40NiAtNS4wNyw0LjUzIC01LjA3LDguMSAwLDQuOTggNC4wOCw5LjAzIDkuMDUsOS4wMyA0Ljk4LDAgOS4wNSwtNC4wNSA5LjA1LC05LjAzIDAsLTMuNTMgLTMsLTYuNTcgLTUuMDEsLTguMDUgdiAtOS4zNiBjIDQuODIsLTEuMzggOC42MSwtNS4xOCA5Ljk4LC05Ljk5IGwgMTQuMSwwLjAxIHYgOS4yNiB6Ii8+JiN4YTsmI3hhOzxwYXRoIGlkPSJwYXRoODI4NjUiIGlua3NjYXBlOmNvbm5lY3Rvci1jdXJ2YXR1cmU9IjAiIHN0eWxlPSJmaWxsOiM1OWI0ZDkiIGQ9Im0gNTAuMTUsMzguOTMgYyAtNS44MiwwIC0xMC41NSw0LjczIC0xMC41NSwxMC41NSAwLDUuODIgNC43MywxMC41NSAxMC41NSwxMC41NSA1LjgxLDAgMTAuNTUsLTQuNzMgMTAuNTUsLTEwLjU1IDAsLTUuODIgLTQuNzQsLTEwLjU1IC0xMC41NSwtMTAuNTUgeiIvPiYjeGE7JiN4YTs8cGF0aCBpZD0icGF0aDgyODczIiBpbmtzY2FwZTpjb25uZWN0b3ItY3VydmF0dXJlPSIwIiBzdHlsZT0iZmlsbDojZmZmZmZmO2ZpbGwtb3BhY2l0eTowLjE1IiBkPSJNIDU2LjcsMi43MiBDIDU0Ljk1LDAuOTcgNTIuNjMsMCA1MC4xNSwwIDQ3LjY5LDAgNDUuMzYsMC45NyA0My42MSwyLjcyIEwgMi43MSw0My42MiBDIDAuOTksNDUuMzQgMCw0Ny43MiAwLDUwLjE2IDAsNTIuNTkgMC45OSw1NC45OCAyLjcxLDU2LjcgTCAyNS44Nyw3OS44NiA2OS40MywxNS40NSBaIi8+JiN4YTs8L3N2Zz4=;fillColor=#4D9900;" parent="1" vertex="1">
          <mxGeometry x="1136.5000000000005" y="447.25" width="61" height="61" as="geometry" />
        </mxCell>
        <mxCell id="RLjyjs_sm2IHfBNOWAbh-58" value="Virtual Network" style="aspect=fixed;html=1;perimeter=none;align=center;shadow=0;dashed=0;image;fontSize=12;image=img/lib/mscae/Virtual_Network.svg;labelBackgroundColor=none;fillColor=#4D9900;" parent="1" vertex="1">
          <mxGeometry x="1328.9999999999995" y="463.5" width="50" height="28.499999999999996" as="geometry" />
        </mxCell>
        <mxCell id="RLjyjs_sm2IHfBNOWAbh-64" value="Office 365" style="shadow=0;dashed=0;html=1;strokeColor=none;labelPosition=center;verticalLabelPosition=bottom;verticalAlign=top;align=center;shape=mxgraph.mscae.cloud.cloud_office_365;fillColor=#DF3C01;labelBackgroundColor=#ffffff;" parent="1" vertex="1">
          <mxGeometry x="563.5" y="968" width="64" height="40" as="geometry" />
        </mxCell>
        <mxCell id="RLjyjs_sm2IHfBNOWAbh-65" value="Synchronize&lt;br&gt;Identities" style="shadow=0;dashed=0;html=1;strokeColor=none;labelPosition=center;verticalLabelPosition=bottom;verticalAlign=top;align=center;shape=mxgraph.mscae.general.continuous_cycle;fillColor=#7D7D7D;pointerEvents=1;labelBackgroundColor=#ffffff;" parent="1" vertex="1">
          <mxGeometry x="718" y="963" width="48" height="50" as="geometry" />
        </mxCell>
        <mxCell id="RLjyjs_sm2IHfBNOWAbh-66" value="Active&lt;br&gt;Directory" style="aspect=fixed;html=1;perimeter=none;align=center;shadow=0;dashed=0;image;fontSize=12;image=img/lib/mscae/Active_Directory.svg;labelBackgroundColor=#ffffff;fillColor=#4D9900;" parent="1" vertex="1">
          <mxGeometry x="717" y="1088" width="50" height="50" as="geometry" />
        </mxCell>
        <mxCell id="RLjyjs_sm2IHfBNOWAbh-68" value="Azure Access&lt;br&gt;Control Service" style="pointerEvents=1;shadow=0;dashed=0;html=1;strokeColor=none;labelPosition=center;verticalLabelPosition=bottom;verticalAlign=top;align=center;shape=mxgraph.azure.access_control;fillColor=#0078D7;labelBackgroundColor=#ffffff;" parent="1" vertex="1">
          <mxGeometry x="942.4999999999998" y="1088" width="50" height="50" as="geometry" />
        </mxCell>
        <mxCell id="RLjyjs_sm2IHfBNOWAbh-70" value="" style="group" parent="1" vertex="1" connectable="0">
          <mxGeometry x="928.9999999999999" y="580" width="77" height="63" as="geometry" />
        </mxCell>
        <mxCell id="RLjyjs_sm2IHfBNOWAbh-51" value="" style="aspect=fixed;html=1;perimeter=none;align=center;shadow=0;dashed=0;image;fontSize=12;image=img/lib/mscae/Virtual_Machine.svg;labelBackgroundColor=#ffffff;fillColor=#4D9900;part=1;" parent="RLjyjs_sm2IHfBNOWAbh-70" vertex="1">
          <mxGeometry width="60" height="55" as="geometry" />
        </mxCell>
        <mxCell id="RLjyjs_sm2IHfBNOWAbh-59" value="" style="aspect=fixed;html=1;perimeter=none;align=center;shadow=0;dashed=0;image;fontSize=12;image=img/lib/mscae/SQL_Database_generic.svg;labelBackgroundColor=#ffffff;fillColor=#4D9900;part=1;" parent="RLjyjs_sm2IHfBNOWAbh-70" vertex="1">
          <mxGeometry x="51" y="28" width="26" height="35" as="geometry" />
        </mxCell>
        <mxCell id="RLjyjs_sm2IHfBNOWAbh-71" value="" style="group" parent="1" vertex="1" connectable="0">
          <mxGeometry x="1137.0000000000005" y="582.5" width="74" height="58" as="geometry" />
        </mxCell>
        <mxCell id="RLjyjs_sm2IHfBNOWAbh-52" value="" style="aspect=fixed;html=1;perimeter=none;align=center;shadow=0;dashed=0;image;fontSize=12;image=img/lib/mscae/Virtual_Machine.svg;labelBackgroundColor=#ffffff;fillColor=#4D9900;part=1;" parent="RLjyjs_sm2IHfBNOWAbh-71" vertex="1">
          <mxGeometry width="60" height="55" as="geometry" />
        </mxCell>
        <mxCell id="RLjyjs_sm2IHfBNOWAbh-63" value="" style="shadow=0;dashed=0;strokeColor=none;html=1;labelPosition=center;verticalLabelPosition=bottom;verticalAlign=top;align=center;shape=mxgraph.mscae.other.windows;fillColor=#00188D;labelBackgroundColor=#ffffff;aspect=fixed;part=1;" parent="RLjyjs_sm2IHfBNOWAbh-71" vertex="1">
          <mxGeometry x="46" y="29" width="28" height="29" as="geometry" />
        </mxCell>
        <mxCell id="RLjyjs_sm2IHfBNOWAbh-81" value="" style="group" parent="1" vertex="1" connectable="0">
          <mxGeometry x="1315.4999999999995" y="580" width="77" height="63" as="geometry" />
        </mxCell>
        <mxCell id="RLjyjs_sm2IHfBNOWAbh-82" value="" style="aspect=fixed;html=1;perimeter=none;align=center;shadow=0;dashed=0;image;fontSize=12;image=img/lib/mscae/Virtual_Machine.svg;labelBackgroundColor=#ffffff;fillColor=#4D9900;part=1;" parent="RLjyjs_sm2IHfBNOWAbh-81" vertex="1">
          <mxGeometry width="60" height="55" as="geometry" />
        </mxCell>
        <mxCell id="RLjyjs_sm2IHfBNOWAbh-83" value="" style="aspect=fixed;html=1;perimeter=none;align=center;shadow=0;dashed=0;image;fontSize=12;image=img/lib/mscae/SQL_Database_generic.svg;labelBackgroundColor=#ffffff;fillColor=#4D9900;part=1;" parent="RLjyjs_sm2IHfBNOWAbh-81" vertex="1">
          <mxGeometry x="51" y="28" width="26" height="35" as="geometry" />
        </mxCell>
        <mxCell id="RLjyjs_sm2IHfBNOWAbh-85" value="" style="group" parent="1" vertex="1" connectable="0">
          <mxGeometry x="759.5" y="582.5" width="85" height="58" as="geometry" />
        </mxCell>
        <mxCell id="RLjyjs_sm2IHfBNOWAbh-86" value="" style="aspect=fixed;html=1;perimeter=none;align=center;shadow=0;dashed=0;image;fontSize=12;image=img/lib/mscae/Virtual_Machine.svg;labelBackgroundColor=#ffffff;fillColor=#4D9900;part=1;" parent="RLjyjs_sm2IHfBNOWAbh-85" vertex="1">
          <mxGeometry width="60" height="55" as="geometry" />
        </mxCell>
        <mxCell id="RLjyjs_sm2IHfBNOWAbh-87" value="" style="shadow=0;dashed=0;strokeColor=none;html=1;labelPosition=center;verticalLabelPosition=bottom;verticalAlign=top;align=center;shape=mxgraph.mscae.other.sharepoint;fillColor=#2471BA;labelBackgroundColor=#ffffff;aspect=fixed;part=1;" parent="RLjyjs_sm2IHfBNOWAbh-85" vertex="1">
          <mxGeometry x="54" y="28" width="31" height="30" as="geometry" />
        </mxCell>
        <mxCell id="RLjyjs_sm2IHfBNOWAbh-88" value="" style="group" parent="1" vertex="1" connectable="0">
          <mxGeometry x="553" y="771" width="85" height="58" as="geometry" />
        </mxCell>
        <mxCell id="RLjyjs_sm2IHfBNOWAbh-89" value="" style="aspect=fixed;html=1;perimeter=none;align=center;shadow=0;dashed=0;image;fontSize=12;image=img/lib/mscae/Virtual_Machine.svg;labelBackgroundColor=#ffffff;fillColor=#4D9900;part=1;" parent="RLjyjs_sm2IHfBNOWAbh-88" vertex="1">
          <mxGeometry width="60" height="55" as="geometry" />
        </mxCell>
        <mxCell id="RLjyjs_sm2IHfBNOWAbh-90" value="" style="shadow=0;dashed=0;strokeColor=none;html=1;labelPosition=center;verticalLabelPosition=bottom;verticalAlign=top;align=center;shape=mxgraph.mscae.other.sharepoint;fillColor=#2471BA;labelBackgroundColor=#ffffff;aspect=fixed;part=1;" parent="RLjyjs_sm2IHfBNOWAbh-88" vertex="1">
          <mxGeometry x="54" y="28" width="31" height="30" as="geometry" />
        </mxCell>
        <mxCell id="RLjyjs_sm2IHfBNOWAbh-91" value="" style="group" parent="1" vertex="1" connectable="0">
          <mxGeometry x="759.5000000000002" y="771" width="85" height="58" as="geometry" />
        </mxCell>
        <mxCell id="RLjyjs_sm2IHfBNOWAbh-92" value="" style="aspect=fixed;html=1;perimeter=none;align=center;shadow=0;dashed=0;image;fontSize=12;image=img/lib/mscae/Virtual_Machine.svg;labelBackgroundColor=#ffffff;fillColor=#4D9900;part=1;" parent="RLjyjs_sm2IHfBNOWAbh-91" vertex="1">
          <mxGeometry width="60" height="55" as="geometry" />
        </mxCell>
        <mxCell id="RLjyjs_sm2IHfBNOWAbh-93" value="" style="shadow=0;dashed=0;strokeColor=none;html=1;labelPosition=center;verticalLabelPosition=bottom;verticalAlign=top;align=center;shape=mxgraph.mscae.other.sharepoint;fillColor=#2471BA;labelBackgroundColor=#ffffff;aspect=fixed;part=1;" parent="RLjyjs_sm2IHfBNOWAbh-91" vertex="1">
          <mxGeometry x="54" y="28" width="31" height="30" as="geometry" />
        </mxCell>
        <mxCell id="RLjyjs_sm2IHfBNOWAbh-94" value="" style="group" parent="1" vertex="1" connectable="0">
          <mxGeometry x="930.4999999999994" y="771" width="74" height="58" as="geometry" />
        </mxCell>
        <mxCell id="RLjyjs_sm2IHfBNOWAbh-95" value="" style="aspect=fixed;html=1;perimeter=none;align=center;shadow=0;dashed=0;image;fontSize=12;image=img/lib/mscae/Virtual_Machine.svg;labelBackgroundColor=#ffffff;fillColor=#4D9900;part=1;" parent="RLjyjs_sm2IHfBNOWAbh-94" vertex="1">
          <mxGeometry width="60" height="55" as="geometry" />
        </mxCell>
        <mxCell id="RLjyjs_sm2IHfBNOWAbh-96" value="" style="shadow=0;dashed=0;strokeColor=none;html=1;labelPosition=center;verticalLabelPosition=bottom;verticalAlign=top;align=center;shape=mxgraph.mscae.other.windows;fillColor=#00188D;labelBackgroundColor=#ffffff;aspect=fixed;part=1;" parent="RLjyjs_sm2IHfBNOWAbh-94" vertex="1">
          <mxGeometry x="46" y="29" width="28" height="29" as="geometry" />
        </mxCell>
        <mxCell id="RLjyjs_sm2IHfBNOWAbh-97" value="" style="group" parent="1" vertex="1" connectable="0">
          <mxGeometry x="1316.9999999999998" y="771" width="74" height="58" as="geometry" />
        </mxCell>
        <mxCell id="RLjyjs_sm2IHfBNOWAbh-98" value="" style="aspect=fixed;html=1;perimeter=none;align=center;shadow=0;dashed=0;image;fontSize=12;image=img/lib/mscae/Virtual_Machine.svg;labelBackgroundColor=#ffffff;fillColor=#4D9900;part=1;" parent="RLjyjs_sm2IHfBNOWAbh-97" vertex="1">
          <mxGeometry width="60" height="55" as="geometry" />
        </mxCell>
        <mxCell id="RLjyjs_sm2IHfBNOWAbh-99" value="" style="shadow=0;dashed=0;strokeColor=none;html=1;labelPosition=center;verticalLabelPosition=bottom;verticalAlign=top;align=center;shape=mxgraph.mscae.other.windows;fillColor=#00188D;labelBackgroundColor=#ffffff;aspect=fixed;part=1;" parent="RLjyjs_sm2IHfBNOWAbh-97" vertex="1">
          <mxGeometry x="46" y="29" width="28" height="29" as="geometry" />
        </mxCell>
        <mxCell id="RLjyjs_sm2IHfBNOWAbh-100" value="" style="group" parent="1" vertex="1" connectable="0">
          <mxGeometry x="930.4999999999994" y="959" width="74" height="65.49999999999994" as="geometry" />
        </mxCell>
        <mxCell id="RLjyjs_sm2IHfBNOWAbh-101" value="Azure Active&lt;br&gt;Directory Connect" style="aspect=fixed;html=1;perimeter=none;align=center;shadow=0;dashed=0;image;fontSize=12;image=img/lib/mscae/Virtual_Machine.svg;labelBackgroundColor=#ffffff;fillColor=#4D9900;part=1;" parent="RLjyjs_sm2IHfBNOWAbh-100" vertex="1">
          <mxGeometry y="10.499999999999947" width="60" height="55" as="geometry" />
        </mxCell>
        <mxCell id="RLjyjs_sm2IHfBNOWAbh-102" value="" style="shadow=0;dashed=0;strokeColor=none;html=1;labelPosition=center;verticalLabelPosition=bottom;verticalAlign=top;align=center;shape=mxgraph.mscae.other.windows;fillColor=#00188D;labelBackgroundColor=#ffffff;aspect=fixed;part=1;" parent="RLjyjs_sm2IHfBNOWAbh-100" vertex="1">
          <mxGeometry x="46" y="23.49999999999984" width="28" height="29" as="geometry" />
        </mxCell>
        <mxCell id="RLjyjs_sm2IHfBNOWAbh-103" value="Active Directory" style="group;labelPosition=center;verticalLabelPosition=bottom;align=center;verticalAlign=top;" parent="1" vertex="1" connectable="0">
          <mxGeometry x="1088.5000000000005" y="959" width="74" height="70.49999999999994" as="geometry" />
        </mxCell>
        <mxCell id="RLjyjs_sm2IHfBNOWAbh-104" value="" style="aspect=fixed;html=1;perimeter=none;align=center;shadow=0;dashed=0;image;fontSize=12;image=img/lib/mscae/Virtual_Machine.svg;labelBackgroundColor=#ffffff;fillColor=#4D9900;part=1;" parent="RLjyjs_sm2IHfBNOWAbh-103" vertex="1">
          <mxGeometry y="15.499999999999947" width="60" height="55" as="geometry" />
        </mxCell>
        <mxCell id="RLjyjs_sm2IHfBNOWAbh-105" value="" style="shadow=0;dashed=0;strokeColor=none;html=1;labelPosition=center;verticalLabelPosition=bottom;verticalAlign=top;align=center;shape=mxgraph.mscae.other.windows;fillColor=#00188D;labelBackgroundColor=#ffffff;aspect=fixed;part=1;" parent="RLjyjs_sm2IHfBNOWAbh-103" vertex="1">
          <mxGeometry x="46" y="28.49999999999984" width="28" height="29" as="geometry" />
        </mxCell>
        <mxCell id="RLjyjs_sm2IHfBNOWAbh-106" value="Active Directory&#xa;with ADFS" style="group;labelPosition=center;verticalLabelPosition=bottom;align=center;verticalAlign=top;spacingTop=3;labelBackgroundColor=#ffffff;" parent="1" vertex="1" connectable="0">
          <mxGeometry x="1316.9999999999998" y="959" width="74" height="67.99999999999994" as="geometry" />
        </mxCell>
        <mxCell id="RLjyjs_sm2IHfBNOWAbh-107" value="" style="aspect=fixed;html=1;perimeter=none;align=center;shadow=0;dashed=0;image;fontSize=12;image=img/lib/mscae/Virtual_Machine.svg;labelBackgroundColor=#ffffff;fillColor=#4D9900;part=1;" parent="RLjyjs_sm2IHfBNOWAbh-106" vertex="1">
          <mxGeometry y="12.999999999999947" width="60" height="55" as="geometry" />
        </mxCell>
        <mxCell id="RLjyjs_sm2IHfBNOWAbh-108" value="" style="shadow=0;dashed=0;strokeColor=none;html=1;labelPosition=center;verticalLabelPosition=bottom;verticalAlign=top;align=center;shape=mxgraph.mscae.other.windows;fillColor=#00188D;labelBackgroundColor=#ffffff;aspect=fixed;part=1;" parent="RLjyjs_sm2IHfBNOWAbh-106" vertex="1">
          <mxGeometry x="46" y="25.99999999999984" width="28" height="29" as="geometry" />
        </mxCell>
        <mxCell id="RLjyjs_sm2IHfBNOWAbh-69" value="" style="group" parent="1" vertex="1" connectable="0">
          <mxGeometry x="553" y="582.5" width="85" height="58" as="geometry" />
        </mxCell>
        <mxCell id="RLjyjs_sm2IHfBNOWAbh-47" value="" style="aspect=fixed;html=1;perimeter=none;align=center;shadow=0;dashed=0;image;fontSize=12;image=img/lib/mscae/Virtual_Machine.svg;labelBackgroundColor=#ffffff;fillColor=#4D9900;part=1;" parent="RLjyjs_sm2IHfBNOWAbh-69" vertex="1">
          <mxGeometry width="60" height="55" as="geometry" />
        </mxCell>
        <mxCell id="RLjyjs_sm2IHfBNOWAbh-60" value="" style="shadow=0;dashed=0;strokeColor=none;html=1;labelPosition=center;verticalLabelPosition=bottom;verticalAlign=top;align=center;shape=mxgraph.mscae.other.sharepoint;fillColor=#2471BA;labelBackgroundColor=#ffffff;aspect=fixed;part=1;" parent="RLjyjs_sm2IHfBNOWAbh-69" vertex="1">
          <mxGeometry x="54" y="28" width="31" height="30" as="geometry" />
        </mxCell>
        <mxCell id="RLjyjs_sm2IHfBNOWAbh-110" style="edgeStyle=elbowEdgeStyle;rounded=0;orthogonalLoop=1;jettySize=auto;elbow=vertical;html=1;exitX=0.25;exitY=0;exitDx=0;exitDy=0;strokeColor=#808080;" parent="RLjyjs_sm2IHfBNOWAbh-69" source="RLjyjs_sm2IHfBNOWAbh-47" target="RLjyjs_sm2IHfBNOWAbh-47" edge="1">
          <mxGeometry relative="1" as="geometry" />
        </mxCell>
        <mxCell id="RLjyjs_sm2IHfBNOWAbh-114" value="Web Front End&lt;br&gt;with Distributed&lt;br&gt;Cache" style="text;html=1;resizable=0;points=[];autosize=1;align=center;verticalAlign=top;spacingTop=-4;" parent="1" vertex="1">
          <mxGeometry x="640" y="588" width="100" height="40" as="geometry" />
        </mxCell>
        <mxCell id="RLjyjs_sm2IHfBNOWAbh-115" value="Application&lt;br&gt;with Search" style="text;html=1;resizable=0;points=[];autosize=1;align=center;verticalAlign=top;spacingTop=-4;" parent="1" vertex="1">
          <mxGeometry x="650" y="779" width="80" height="30" as="geometry" />
        </mxCell>
        <mxCell id="RLjyjs_sm2IHfBNOWAbh-116" value="Availability Set" style="text;html=1;resizable=0;points=[];autosize=1;align=center;verticalAlign=top;spacingTop=-4;" parent="1" vertex="1">
          <mxGeometry x="645" y="859" width="90" height="20" as="geometry" />
        </mxCell>
        <mxCell id="RLjyjs_sm2IHfBNOWAbh-117" value="SQL-Always On with&lt;br&gt;Windows Server as Windows" style="text;html=1;resizable=0;points=[];autosize=1;align=center;verticalAlign=top;spacingTop=-4;" parent="1" vertex="1">
          <mxGeometry x="1089" y="643" width="170" height="30" as="geometry" />
        </mxCell>
        <mxCell id="RLjyjs_sm2IHfBNOWAbh-118" value="Availability Set" style="text;html=1;resizable=0;points=[];autosize=1;align=center;verticalAlign=top;spacingTop=-4;" parent="1" vertex="1">
          <mxGeometry x="1111" y="718" width="90" height="20" as="geometry" />
        </mxCell>
        <mxCell id="RLjyjs_sm2IHfBNOWAbh-119" value="Availability Set" style="text;html=1;resizable=0;points=[];autosize=1;align=center;verticalAlign=top;spacingTop=-4;" parent="1" vertex="1">
          <mxGeometry x="1111" y="859" width="90" height="20" as="geometry" />
        </mxCell>
        <mxCell id="RLjyjs_sm2IHfBNOWAbh-120" value="Active Directory" style="text;html=1;resizable=0;points=[];autosize=1;align=center;verticalAlign=top;spacingTop=-4;" parent="1" vertex="1">
          <mxGeometry x="1111" y="805" width="100" height="20" as="geometry" />
        </mxCell>
        <mxCell id="RLjyjs_sm2IHfBNOWAbh-121" value="Server-to-Server Trust" style="text;html=1;resizable=0;points=[];autosize=1;align=left;verticalAlign=top;spacingTop=-4;" parent="1" vertex="1">
          <mxGeometry x="1129" y="1088" width="130" height="20" as="geometry" />
        </mxCell>
        <mxCell id="RLjyjs_sm2IHfBNOWAbh-122" value="9" style="ellipse;whiteSpace=wrap;html=1;aspect=fixed;fillColor=#4D9900;strokeColor=none;labelBackgroundColor=none;" parent="1" vertex="1">
          <mxGeometry x="315" y="441.5" width="23" height="23" as="geometry" />
        </mxCell>
        <mxCell id="RLjyjs_sm2IHfBNOWAbh-123" value="1" style="ellipse;whiteSpace=wrap;html=1;aspect=fixed;fillColor=#4D9900;strokeColor=none;labelBackgroundColor=none;" parent="1" vertex="1">
          <mxGeometry x="626" y="436" width="23" height="23" as="geometry" />
        </mxCell>
        <mxCell id="RLjyjs_sm2IHfBNOWAbh-124" value="8" style="ellipse;whiteSpace=wrap;html=1;aspect=fixed;fillColor=#4D9900;strokeColor=none;labelBackgroundColor=none;" parent="1" vertex="1">
          <mxGeometry x="449" y="755.5" width="23" height="23" as="geometry" />
        </mxCell>
        <mxCell id="RLjyjs_sm2IHfBNOWAbh-125" value="5" style="ellipse;whiteSpace=wrap;html=1;aspect=fixed;fillColor=#4D9900;strokeColor=none;labelBackgroundColor=none;" parent="1" vertex="1">
          <mxGeometry x="679" y="698" width="23" height="23" as="geometry" />
        </mxCell>
        <mxCell id="RLjyjs_sm2IHfBNOWAbh-126" value="Availability Set" style="text;html=1;resizable=0;points=[];autosize=1;align=center;verticalAlign=top;spacingTop=-4;" parent="1" vertex="1">
          <mxGeometry x="645" y="678" width="90" height="20" as="geometry" />
        </mxCell>
        <mxCell id="RLjyjs_sm2IHfBNOWAbh-127" value="10" style="ellipse;whiteSpace=wrap;html=1;aspect=fixed;fillColor=#4D9900;strokeColor=none;labelBackgroundColor=none;" parent="1" vertex="1">
          <mxGeometry x="627.5" y="951.5" width="23" height="23" as="geometry" />
        </mxCell>
        <mxCell id="RLjyjs_sm2IHfBNOWAbh-128" value="6" style="ellipse;whiteSpace=wrap;html=1;aspect=fixed;fillColor=#4D9900;strokeColor=none;labelBackgroundColor=none;" parent="1" vertex="1">
          <mxGeometry x="1003" y="951.5" width="23" height="23" as="geometry" />
        </mxCell>
        <mxCell id="RLjyjs_sm2IHfBNOWAbh-129" value="7" style="ellipse;whiteSpace=wrap;html=1;aspect=fixed;fillColor=#4D9900;strokeColor=none;labelBackgroundColor=none;" parent="1" vertex="1">
          <mxGeometry x="1392.5" y="951.5" width="23" height="23" as="geometry" />
        </mxCell>
        <mxCell id="RLjyjs_sm2IHfBNOWAbh-130" value="3" style="ellipse;whiteSpace=wrap;html=1;aspect=fixed;fillColor=#4D9900;strokeColor=none;labelBackgroundColor=none;" parent="1" vertex="1">
          <mxGeometry x="1004.5" y="745" width="23" height="23" as="geometry" />
        </mxCell>
        <mxCell id="RLjyjs_sm2IHfBNOWAbh-131" value="4" style="ellipse;whiteSpace=wrap;html=1;aspect=fixed;fillColor=#4D9900;strokeColor=none;labelBackgroundColor=none;" parent="1" vertex="1">
          <mxGeometry x="1003" y="559.5" width="23" height="23" as="geometry" />
        </mxCell>
        <mxCell id="RLjyjs_sm2IHfBNOWAbh-132" value="2" style="ellipse;whiteSpace=wrap;html=1;aspect=fixed;fillColor=#4D9900;strokeColor=none;labelBackgroundColor=none;" parent="1" vertex="1">
          <mxGeometry x="1375.5" y="447.5" width="23" height="23" as="geometry" />
        </mxCell>
        <mxCell id="8DieQMmsyX2rE4fabxvS-1" value="" style="rounded=0;whiteSpace=wrap;html=1;fillColor=#EAEDED;fontSize=22;fontColor=#FFFFFF;strokeColor=none;labelBackgroundColor=none;" parent="1" vertex="1">
          <mxGeometry x="1573.5" y="222" width="539" height="1209" as="geometry" />
        </mxCell>
        <mxCell id="8DieQMmsyX2rE4fabxvS-2" value="&lt;span&gt;Lorem ipsum dolor sit amet, consectetur adipiscing elit, sed do eiusmod tempor incididunt ut labore et dolore magna aliqua. Ut enim ad minim veniam, quis nostrud exercitation ullamco laboris nisi ut aliquip ex ea commodo consequat. Duis aute irure dolor in reprehenderit in voluptate velit esse cillum dolore eu fugiat nulla pariatur. Excepteur sint occaecat cupidatat non proident, sunt in culpa qui officia deserunt mollit anim id est laborum.&lt;/span&gt;&lt;br&gt;" style="text;html=1;align=left;verticalAlign=top;spacingTop=-4;fontSize=14;labelBackgroundColor=none;whiteSpace=wrap;" parent="1" vertex="1">
          <mxGeometry x="1643" y="233" width="449" height="118" as="geometry" />
        </mxCell>
        <mxCell id="8DieQMmsyX2rE4fabxvS-3" value="&lt;span&gt;Lorem ipsum dolor sit amet, consectetur adipiscing elit, sed do eiusmod tempor incididunt ut labore et dolore magna aliqua. Ut enim ad minim veniam, quis nostrud exercitation ullamco laboris nisi ut aliquip ex ea commodo consequat. Duis aute irure dolor in reprehenderit in voluptate velit esse cillum dolore eu fugiat nulla pariatur. Excepteur sint occaecat cupidatat non proident, sunt in culpa qui officia deserunt mollit anim id est laborum.&lt;/span&gt;&lt;br&gt;" style="text;html=1;align=left;verticalAlign=top;spacingTop=-4;fontSize=14;labelBackgroundColor=none;whiteSpace=wrap;" parent="1" vertex="1">
          <mxGeometry x="1642" y="356" width="450" height="115" as="geometry" />
        </mxCell>
        <mxCell id="8DieQMmsyX2rE4fabxvS-4" value="&lt;span&gt;Lorem ipsum dolor sit amet, consectetur adipiscing elit, sed do eiusmod tempor incididunt ut labore et dolore magna aliqua. Ut enim ad minim veniam, quis nostrud exercitation ullamco laboris nisi ut aliquip ex ea commodo consequat. Duis aute irure dolor in reprehenderit in voluptate velit esse cillum dolore eu fugiat nulla pariatur. Excepteur sint occaecat cupidatat non proident, sunt in culpa qui officia deserunt mollit anim id est laborum.&lt;/span&gt;&lt;br&gt;" style="text;html=1;align=left;verticalAlign=top;spacingTop=-4;fontSize=14;labelBackgroundColor=none;whiteSpace=wrap;" parent="1" vertex="1">
          <mxGeometry x="1642" y="474" width="450" height="117" as="geometry" />
        </mxCell>
        <mxCell id="8DieQMmsyX2rE4fabxvS-5" value="&lt;span&gt;Lorem ipsum dolor sit amet, consectetur adipiscing elit, sed do eiusmod tempor incididunt ut labore et dolore magna aliqua. Ut enim ad minim veniam, quis nostrud exercitation ullamco laboris nisi ut aliquip ex ea commodo consequat. Duis aute irure dolor in reprehenderit in voluptate velit esse cillum dolore eu fugiat nulla pariatur. Excepteur sint occaecat cupidatat non proident, sunt in culpa qui officia deserunt mollit anim id est laborum.&lt;/span&gt;&lt;br&gt;" style="text;html=1;align=left;verticalAlign=top;spacingTop=-4;fontSize=14;labelBackgroundColor=none;whiteSpace=wrap;" parent="1" vertex="1">
          <mxGeometry x="1642" y="590" width="450" height="121" as="geometry" />
        </mxCell>
        <mxCell id="8DieQMmsyX2rE4fabxvS-6" value="&lt;span&gt;Lorem ipsum dolor sit amet, consectetur adipiscing elit, sed do eiusmod tempor incididunt ut labore et dolore magna aliqua. Ut enim ad minim veniam, quis nostrud exercitation ullamco laboris nisi ut aliquip ex ea commodo consequat. Duis aute irure dolor in reprehenderit in voluptate velit esse cillum dolore eu fugiat nulla pariatur. Excepteur sint occaecat cupidatat non proident, sunt in culpa qui officia deserunt mollit anim id est laborum.&lt;/span&gt;&lt;br&gt;" style="text;html=1;align=left;verticalAlign=top;spacingTop=-4;fontSize=14;labelBackgroundColor=none;whiteSpace=wrap;" parent="1" vertex="1">
          <mxGeometry x="1643" y="707" width="449" height="114" as="geometry" />
        </mxCell>
        <mxCell id="8DieQMmsyX2rE4fabxvS-7" value="&lt;span&gt;Lorem ipsum dolor sit amet, consectetur adipiscing elit, sed do eiusmod tempor incididunt ut labore et dolore magna aliqua. Ut enim ad minim veniam, quis nostrud exercitation ullamco laboris nisi ut aliquip ex ea commodo consequat. Duis aute irure dolor in reprehenderit in voluptate velit esse cillum dolore eu fugiat nulla pariatur. Excepteur sint occaecat cupidatat non proident, sunt in culpa qui officia deserunt mollit anim id est laborum.&lt;/span&gt;&lt;br&gt;" style="text;html=1;align=left;verticalAlign=top;spacingTop=-4;fontSize=14;labelBackgroundColor=none;whiteSpace=wrap;" parent="1" vertex="1">
          <mxGeometry x="1643" y="823" width="450" height="118" as="geometry" />
        </mxCell>
        <mxCell id="8DieQMmsyX2rE4fabxvS-8" value="&lt;span&gt;Lorem ipsum dolor sit amet, consectetur adipiscing elit, sed do eiusmod tempor incididunt ut labore et dolore magna aliqua. Ut enim ad minim veniam, quis nostrud exercitation ullamco laboris nisi ut aliquip ex ea commodo consequat. Duis aute irure dolor in reprehenderit in voluptate velit esse cillum dolore eu fugiat nulla pariatur. Excepteur sint occaecat cupidatat non proident, sunt in culpa qui officia deserunt mollit anim id est laborum.&lt;/span&gt;&lt;br&gt;" style="text;html=1;align=left;verticalAlign=top;spacingTop=-4;fontSize=14;labelBackgroundColor=none;whiteSpace=wrap;" parent="1" vertex="1">
          <mxGeometry x="1643" y="938" width="449" height="113" as="geometry" />
        </mxCell>
        <mxCell id="8DieQMmsyX2rE4fabxvS-9" value="1" style="ellipse;whiteSpace=wrap;html=1;aspect=fixed;fillColor=#4D9900;strokeColor=none;labelBackgroundColor=none;" parent="1" vertex="1">
          <mxGeometry x="1593.5" y="239.5" width="23" height="23" as="geometry" />
        </mxCell>
        <mxCell id="8DieQMmsyX2rE4fabxvS-10" value="2" style="ellipse;whiteSpace=wrap;html=1;aspect=fixed;fillColor=#4D9900;strokeColor=none;labelBackgroundColor=none;" parent="1" vertex="1">
          <mxGeometry x="1593.5" y="360.5" width="23" height="23" as="geometry" />
        </mxCell>
        <mxCell id="8DieQMmsyX2rE4fabxvS-11" value="3" style="ellipse;whiteSpace=wrap;html=1;aspect=fixed;fillColor=#4D9900;strokeColor=none;labelBackgroundColor=none;" parent="1" vertex="1">
          <mxGeometry x="1593.5" y="481.5" width="23" height="23" as="geometry" />
        </mxCell>
        <mxCell id="8DieQMmsyX2rE4fabxvS-12" value="4" style="ellipse;whiteSpace=wrap;html=1;aspect=fixed;fillColor=#4D9900;strokeColor=none;labelBackgroundColor=none;" parent="1" vertex="1">
          <mxGeometry x="1593.4999999999995" y="598.5" width="23" height="23" as="geometry" />
        </mxCell>
        <mxCell id="8DieQMmsyX2rE4fabxvS-13" value="5" style="ellipse;whiteSpace=wrap;html=1;aspect=fixed;fillColor=#4D9900;strokeColor=none;labelBackgroundColor=none;" parent="1" vertex="1">
          <mxGeometry x="1593.4999999999995" y="711" width="23" height="23" as="geometry" />
        </mxCell>
        <mxCell id="8DieQMmsyX2rE4fabxvS-14" value="6" style="ellipse;whiteSpace=wrap;html=1;aspect=fixed;fillColor=#4D9900;strokeColor=none;labelBackgroundColor=none;" parent="1" vertex="1">
          <mxGeometry x="1593.4999999999995" y="832.5" width="23" height="23" as="geometry" />
        </mxCell>
        <mxCell id="8DieQMmsyX2rE4fabxvS-15" value="7" style="ellipse;whiteSpace=wrap;html=1;aspect=fixed;fillColor=#4D9900;strokeColor=none;labelBackgroundColor=none;" parent="1" vertex="1">
          <mxGeometry x="1593.5" y="941" width="23" height="23" as="geometry" />
        </mxCell>
        <mxCell id="8DieQMmsyX2rE4fabxvS-16" value="&lt;span&gt;Lorem ipsum dolor sit amet, consectetur adipiscing elit, sed do eiusmod tempor incididunt ut labore et dolore magna aliqua. Ut enim ad minim veniam, quis nostrud exercitation ullamco laboris nisi ut aliquip ex ea commodo consequat. Duis aute irure dolor in reprehenderit in voluptate velit esse cillum dolore eu fugiat nulla pariatur. Excepteur sint occaecat cupidatat non proident, sunt in culpa qui officia deserunt mollit anim id est laborum.&lt;/span&gt;&lt;br&gt;" style="text;html=1;align=left;verticalAlign=top;spacingTop=-4;fontSize=14;labelBackgroundColor=none;whiteSpace=wrap;" parent="1" vertex="1">
          <mxGeometry x="1644" y="1056.5" width="449" height="113" as="geometry" />
        </mxCell>
        <mxCell id="8DieQMmsyX2rE4fabxvS-17" value="8" style="ellipse;whiteSpace=wrap;html=1;aspect=fixed;fillColor=#4D9900;strokeColor=none;labelBackgroundColor=none;" parent="1" vertex="1">
          <mxGeometry x="1594.5" y="1059.5" width="23" height="23" as="geometry" />
        </mxCell>
        <mxCell id="8DieQMmsyX2rE4fabxvS-18" value="&lt;span&gt;Lorem ipsum dolor sit amet, consectetur adipiscing elit, sed do eiusmod tempor incididunt ut labore et dolore magna aliqua. Ut enim ad minim veniam, quis nostrud exercitation ullamco laboris nisi ut aliquip ex ea commodo consequat. Duis aute irure dolor in reprehenderit in voluptate velit esse cillum dolore eu fugiat nulla pariatur. Excepteur sint occaecat cupidatat non proident, sunt in culpa qui officia deserunt mollit anim id est laborum.&lt;/span&gt;&lt;br&gt;" style="text;html=1;align=left;verticalAlign=top;spacingTop=-4;fontSize=14;labelBackgroundColor=none;whiteSpace=wrap;" parent="1" vertex="1">
          <mxGeometry x="1644" y="1180" width="449" height="113" as="geometry" />
        </mxCell>
        <mxCell id="8DieQMmsyX2rE4fabxvS-19" value="9" style="ellipse;whiteSpace=wrap;html=1;aspect=fixed;fillColor=#4D9900;strokeColor=none;labelBackgroundColor=none;" parent="1" vertex="1">
          <mxGeometry x="1594.5" y="1183" width="23" height="23" as="geometry" />
        </mxCell>
        <mxCell id="8DieQMmsyX2rE4fabxvS-20" value="&lt;span&gt;Lorem ipsum dolor sit amet, consectetur adipiscing elit, sed do eiusmod tempor incididunt ut labore et dolore magna aliqua. Ut enim ad minim veniam, quis nostrud exercitation ullamco laboris nisi ut aliquip ex ea commodo consequat. Duis aute irure dolor in reprehenderit in voluptate velit esse cillum dolore eu fugiat nulla pariatur. Excepteur sint occaecat cupidatat non proident, sunt in culpa qui officia deserunt mollit anim id est laborum.&lt;/span&gt;&lt;br&gt;" style="text;html=1;align=left;verticalAlign=top;spacingTop=-4;fontSize=14;labelBackgroundColor=none;whiteSpace=wrap;" parent="1" vertex="1">
          <mxGeometry x="1643" y="1307.5" width="449" height="113" as="geometry" />
        </mxCell>
        <mxCell id="8DieQMmsyX2rE4fabxvS-21" value="10" style="ellipse;whiteSpace=wrap;html=1;aspect=fixed;fillColor=#4D9900;strokeColor=none;labelBackgroundColor=none;" parent="1" vertex="1">
          <mxGeometry x="1593.5" y="1310.5" width="23" height="23" as="geometry" />
        </mxCell>
        <mxCell id="vk7fomVInif-CjgZtPBc-17" value="" style="edgeStyle=orthogonalEdgeStyle;rounded=0;orthogonalLoop=1;jettySize=auto;html=1;" edge="1" parent="1" source="vk7fomVInif-CjgZtPBc-1" target="vk7fomVInif-CjgZtPBc-3">
          <mxGeometry relative="1" as="geometry" />
        </mxCell>
        <mxCell id="vk7fomVInif-CjgZtPBc-1" value="Github &lt;br&gt;Repository" style="dashed=0;outlineConnect=0;html=1;align=center;labelPosition=center;verticalLabelPosition=bottom;verticalAlign=top;shape=mxgraph.webicons.github;gradientColor=#DFDEDE" vertex="1" parent="1">
          <mxGeometry x="50" y="60" width="80" height="80" as="geometry" />
        </mxCell>
        <mxCell id="vk7fomVInif-CjgZtPBc-2" value="" style="shape=image;verticalLabelPosition=bottom;labelBackgroundColor=#ffffff;verticalAlign=top;aspect=fixed;imageAspect=0;image=data:image/svg+xml,PHN2ZyB4bWxuczpkYz0iaHR0cDovL3B1cmwub3JnL2RjL2VsZW1lbnRzLzEuMS8iIHhtbG5zOmNjPSJodHRwOi8vY3JlYXRpdmVjb21tb25zLm9yZy9ucyMiIHhtbG5zOnJkZj0iaHR0cDovL3d3dy53My5vcmcvMTk5OS8wMi8yMi1yZGYtc3ludGF4LW5zIyIgeG1sbnM6c3ZnPSJodHRwOi8vd3d3LnczLm9yZy8yMDAwL3N2ZyIgeG1sbnM9Imh0dHA6Ly93d3cudzMub3JnLzIwMDAvc3ZnIiB4bWxuczpzb2RpcG9kaT0iaHR0cDovL3NvZGlwb2RpLnNvdXJjZWZvcmdlLm5ldC9EVEQvc29kaXBvZGktMC5kdGQiIHhtbG5zOmlua3NjYXBlPSJodHRwOi8vd3d3Lmlua3NjYXBlLm9yZy9uYW1lc3BhY2VzL2lua3NjYXBlIiB2ZXJzaW9uPSIxLjEiIGlkPSJzdmc1NjAxOCIgaW5rc2NhcGU6dmVyc2lvbj0iMC45Mi4zICgyNDA1NTQ2LCAyMDE4LTAzLTExKSIgc29kaXBvZGk6ZG9jbmFtZT0iYXp1cmVfY29udGFpbmVyLnN2ZyIgeD0iMHB4IiB5PSIwcHgiIHZpZXdCb3g9IjAgMCA2NS41MiA0OC40OSIgeG1sOnNwYWNlPSJwcmVzZXJ2ZSIgd2lkdGg9IjY1LjUxOTk5NyIgaGVpZ2h0PSI0OC40OTAwMDIiPjxtZXRhZGF0YSBpZD0ibWV0YWRhdGE1NTM4Ij48cmRmOlJERj48Y2M6V29yayByZGY6YWJvdXQ9IiI+PGRjOmZvcm1hdD5pbWFnZS9zdmcreG1sPC9kYzpmb3JtYXQ+PGRjOnR5cGUgcmRmOnJlc291cmNlPSJodHRwOi8vcHVybC5vcmcvZGMvZGNtaXR5cGUvU3RpbGxJbWFnZSIvPjxkYzp0aXRsZS8+PC9jYzpXb3JrPjwvcmRmOlJERj48L21ldGFkYXRhPjxkZWZzIGlkPSJkZWZzNTUzNiIvPiYjeGE7PGZpbHRlciBpZD0iZmlsdGVyXzIiPiYjeGE7CTxmZUdhdXNzaWFuQmx1ciBpZD0iZmVHYXVzc2lhbkJsdXI1NTgzOSIgc3RkRGV2aWF0aW9uPSIyIi8+JiN4YTs8L2ZpbHRlcj4mI3hhOzxzb2RpcG9kaTpuYW1lZHZpZXcgYm9yZGVyY29sb3I9IiM2NjY2NjYiIGJvcmRlcm9wYWNpdHk9IjEiIGZpdC1tYXJnaW4tYm90dG9tPSIwIiBmaXQtbWFyZ2luLWxlZnQ9IjAiIGZpdC1tYXJnaW4tcmlnaHQ9IjAiIGZpdC1tYXJnaW4tdG9wPSIwIiBncmlkdG9sZXJhbmNlPSIxMCIgZ3VpZGV0b2xlcmFuY2U9IjEwIiBpZD0ibmFtZWR2aWV3NTYwMjAiIGlua3NjYXBlOmN1cnJlbnQtbGF5ZXI9InN2ZzU2MDE4IiBpbmtzY2FwZTpjeD0iLTMuNDYzNzEzOSIgaW5rc2NhcGU6Y3k9IjIwLjQ1NjkyNyIgaW5rc2NhcGU6cGFnZW9wYWNpdHk9IjAiIGlua3NjYXBlOnBhZ2VzaGFkb3c9IjIiIGlua3NjYXBlOndpbmRvdy1oZWlnaHQ9IjEwMTciIGlua3NjYXBlOndpbmRvdy1tYXhpbWl6ZWQ9IjEiIGlua3NjYXBlOndpbmRvdy13aWR0aD0iMTkyMCIgaW5rc2NhcGU6d2luZG93LXg9Ii04IiBpbmtzY2FwZTp3aW5kb3cteT0iLTgiIGlua3NjYXBlOnpvb209IjguOTExNjU1NyIgb2JqZWN0dG9sZXJhbmNlPSIxMCIgcGFnZWNvbG9yPSIjZmZmZmZmIiBzaG93Z3JpZD0iZmFsc2UiPiYjeGE7CTwvc29kaXBvZGk6bmFtZWR2aWV3PiYjeGE7JiN4YTs8cGF0aCBpZD0icGF0aDU1ODUyIiBpbmtzY2FwZTpjb25uZWN0b3ItY3VydmF0dXJlPSIwIiBzdHlsZT0iZmlsbDojODA0OTk4IiBkPSJNIDMwLjAxLDEyLjMyIDE5LjkyLDE2LjI1IFYgMCBsIDEwLjA5LDMuNTQgeiIvPiYjeGE7JiN4YTs8cGF0aCBpZD0icGF0aDU1ODYwIiBpbmtzY2FwZTpjb25uZWN0b3ItY3VydmF0dXJlPSIwIiBzdHlsZT0iZmlsbDojODA0OTk4IiBkPSJtIDEwLjg4LDIuNzUgdiAxMC42MSBsIDcuNDcsMi44OSBWIDAuMTMgWiBtIDAuNzksOS44MyAtMC40LC0wLjEzIFYgMy42NyBsIDAuNCwtMC4xMyAwLjM5LC0wLjE0IDAuMzksLTAuMTMgdiA5LjU3IGwgLTAuMzksLTAuMTMgeiBtIDEuOTYsMC41MiAtMC41MiwtMC4xMyBWIDMuMTQgbCAwLjUyLC0wLjEzIDAuNTMsLTAuMTMgMC41MiwtMC4xMyB2IDEwLjc0IGwgLTAuNTIsLTAuMTMgeiBtIDIuMzYsMC43OSAtMC42NSwtMC4yNiBWIDIuNDkgbCAwLjY1LC0wLjEzIDAuNjYsLTAuMjcgMC43OCwtMC4yNiB2IDEyLjQ1IGwgLTAuNzgsLTAuMjYgeiIvPiYjeGE7JiN4YTs8cGF0aCBpZD0icGF0aDU1ODY4IiBpbmtzY2FwZTpjb25uZWN0b3ItY3VydmF0dXJlPSIwIiBzdHlsZT0iZmlsbDojODA0OTk4IiBkPSJNIDUzLjQ3LDEyLjMyIDQzLjM4LDE2LjI1IFYgMCBsIDEwLjA5LDMuNTQgeiIvPiYjeGE7JiN4YTs8cGF0aCBpZD0icGF0aDU1ODc2IiBpbmtzY2FwZTpjb25uZWN0b3ItY3VydmF0dXJlPSIwIiBzdHlsZT0iZmlsbDojODA0OTk4IiBkPSJtIDM0LjMzLDIuNzUgdiAxMC42MSBsIDcuNDcsMi44OSBWIDAuMTMgWiBtIDAuNzksOS44MyAtMC40LC0wLjEzIFYgMy42NyBMIDM1LjEyLDMuNTQgMzUuNTEsMy40IDM1LjksMy4yNyB2IDkuNTcgbCAtMC4zOSwtMC4xMyB6IG0gMS45NiwwLjUyIC0wLjUyLC0wLjEzIFYgMy4xNCBsIDAuNTIsLTAuMTMgMC41MywtMC4xMyAwLjUyLC0wLjEzIHYgMTAuNzQgbCAtMC41MiwtMC4xMyB6IG0gMi4zNiwwLjc5IC0wLjY1LC0wLjI2IFYgMi40OSBMIDM5LjQ0LDIuMzYgNDAuMSwyLjA5IDQwLjg4LDEuODMgViAxNC4yOCBMIDQwLjEsMTQuMDIgWiIvPiYjeGE7JiN4YTs8cGF0aCBpZD0icGF0aDU1ODg0IiBpbmtzY2FwZTpjb25uZWN0b3ItY3VydmF0dXJlPSIwIiBzdHlsZT0iZmlsbDojODA0OTk4IiBkPSJNIDMwLjAxLDQ0LjU2IDE5LjkyLDQ4LjQ5IFYgMzIuMjQgbCAxMC4wOSwzLjU0IHoiLz4mI3hhOyYjeGE7PHBhdGggaWQ9InBhdGg1NTg5MiIgaW5rc2NhcGU6Y29ubmVjdG9yLWN1cnZhdHVyZT0iMCIgc3R5bGU9ImZpbGw6IzgwNDk5OCIgZD0iTSAxMC44OCwzNC45OSBWIDQ1LjYgbCA3LjQ3LDIuODkgViAzMi4zNyBaIG0gMC43OSw5LjgzIC0wLjQsLTAuMTMgdiAtOC43OCBsIDAuNCwtMC4xMyAwLjM5LC0wLjE0IDAuMzksLTAuMTMgdiA5LjU3IGwgLTAuMzksLTAuMTMgeiBtIDEuOTYsMC41MiAtMC41MiwtMC4xMyB2IC05LjgzIGwgMC41MiwtMC4xMyAwLjUzLC0wLjEzIDAuNTIsLTAuMTMgViA0NS43MyBMIDE0LjE2LDQ1LjYgWiBtIDIuMzYsMC43OSAtMC42NSwtMC4yNiBWIDM0LjczIGwgMC42NSwtMC4xMyAwLjY2LC0wLjI3IDAuNzgsLTAuMjYgdiAxMi40NSBsIC0wLjc4LC0wLjI2IHoiLz4mI3hhOyYjeGE7PHBhdGggaWQ9InBhdGg1NTkwMCIgaW5rc2NhcGU6Y29ubmVjdG9yLWN1cnZhdHVyZT0iMCIgc3R5bGU9ImZpbGw6IzgwNDk5OCIgZD0iTSA1My40Nyw0NC41NiA0My4zOCw0OC40OSBWIDMyLjI0IGwgMTAuMDksMy41NCB6Ii8+JiN4YTsmI3hhOzxwYXRoIGlkPSJwYXRoNTU5MDgiIGlua3NjYXBlOmNvbm5lY3Rvci1jdXJ2YXR1cmU9IjAiIHN0eWxlPSJmaWxsOiM4MDQ5OTgiIGQ9Ik0gMzQuMzMsMzQuOTkgViA0NS42IGwgNy40NywyLjg5IFYgMzIuMzcgWiBtIDAuNzksOS44MyAtMC40LC0wLjEzIHYgLTguNzggbCAwLjQsLTAuMTMgMC4zOSwtMC4xNCAwLjM5LC0wLjEzIHYgOS41NyBsIC0wLjM5LC0wLjEzIHogbSAxLjk2LDAuNTIgLTAuNTIsLTAuMTMgdiAtOS44MyBsIDAuNTIsLTAuMTMgMC41MywtMC4xMyAwLjUyLC0wLjEzIFYgNDUuNzMgTCAzNy42MSw0NS42IFogbSAyLjM2LDAuNzkgLTAuNjUsLTAuMjYgViAzNC43MyBsIDAuNjUsLTAuMTMgMC42NiwtMC4yNyAwLjc4LC0wLjI2IFYgNDYuNTIgTCA0MC4xLDQ2LjI2IFoiLz4mI3hhOyYjeGE7PHBhdGggaWQ9InBhdGg1NTkxNiIgaW5rc2NhcGU6Y29ubmVjdG9yLWN1cnZhdHVyZT0iMCIgc3R5bGU9ImZpbGw6IzgwNDk5OCIgZD0ibSA0Mi40NiwyOC40NCAtOS45NiwzLjggViAxNi4xMiBsIDkuOTYsMy41NCB6Ii8+JiN4YTsmI3hhOzxwYXRoIGlkPSJwYXRoNTU5MjQiIGlua3NjYXBlOmNvbm5lY3Rvci1jdXJ2YXR1cmU9IjAiIHN0eWxlPSJmaWxsOiM4MDQ5OTgiIGQ9Im0gMjMuMzMsMTguNzQgdiAxMC42MSBsIDcuNDcsMi44OSBWIDE2LjEyIFogbSAwLjc5LDkuODMgLTAuNCwtMC4xMyB2IC04Ljc4IGwgMC40LC0wLjEzIDAuMzksLTAuMTQgMC4zOSwtMC4xMyB2IDkuNTcgTCAyNC41MSwyOC43IFogbSAxLjk2LDAuNjUgLTAuNTIsLTAuMTMgdiAtOS44MyBsIDAuNTIsLTAuMTMgMC41MywtMC4xMyAwLjUyLC0wLjEzIHYgMTAuNzUgbCAtMC41MiwtMC4xNCB6IG0gMi4zNiwwLjc5IC0wLjY1LC0wLjI2IFYgMTguNjEgbCAwLjY1LC0wLjEzIDAuNjYsLTAuMjcgMC43OCwtMC4yNiBWIDMwLjQgTCAyOS4xLDMwLjE0IFoiLz4mI3hhOyYjeGE7PHBhdGggaWQ9InBhdGg1NTkzMiIgaW5rc2NhcGU6Y29ubmVjdG9yLWN1cnZhdHVyZT0iMCIgc3R5bGU9ImZpbGw6IzgwNDk5OCIgZD0ibSAxOS4xMywyOC40NCAtOS45NiwzLjggViAxNi4xMiBsIDkuOTYsMy41NCB6Ii8+JiN4YTsmI3hhOzxwYXRoIGlkPSJwYXRoNTU5NDAiIGlua3NjYXBlOmNvbm5lY3Rvci1jdXJ2YXR1cmU9IjAiIHN0eWxlPSJmaWxsOiM4MDQ5OTgiIGQ9Im0gMCwxOC43NCB2IDEwLjYxIGwgNy40NywyLjg5IFYgMTYuMTIgWiBtIDAuNzksOS44MyAtMC40LC0wLjEzIHYgLTguNzggbCAwLjQsLTAuMTMgMC4zOSwtMC4xNCAwLjM5LC0wLjEzIHYgOS41NyBMIDEuMTgsMjguNyBaIE0gMi43NSwyOS4yMiAyLjIzLDI5LjA5IFYgMTkuMjYgTCAyLjc1LDE5LjEzIDMuMjgsMTkgMy44LDE4Ljg3IFYgMjkuNjIgTCAzLjI4LDI5LjQ4IFogTSA1LjExLDMwLjAxIDQuNDYsMjkuNzUgViAxOC42MSBMIDUuMTEsMTguNDggNS43NywxOC4yMSA2LjU1LDE3Ljk1IFYgMzAuNCBMIDUuNzcsMzAuMTQgWiIvPiYjeGE7JiN4YTs8cGF0aCBpZD0icGF0aDU1OTQ4IiBpbmtzY2FwZTpjb25uZWN0b3ItY3VydmF0dXJlPSIwIiBzdHlsZT0iZmlsbDojODA0OTk4IiBkPSJtIDY1LjUyLDI4LjQ0IC05Ljk2LDMuOCBWIDE2LjEyIGwgOS45NiwzLjU0IHoiLz4mI3hhOyYjeGE7JiN4YTsmI3hhOyYjeGE7JiN4YTsmI3hhOyYjeGE7JiN4YTsmI3hhOyYjeGE7JiN4YTsmI3hhOyYjeGE7JiN4YTsmI3hhOzxwYXRoIGlkPSJwYXRoNTYwMTIiIGlua3NjYXBlOmNvbm5lY3Rvci1jdXJ2YXR1cmU9IjAiIHN0eWxlPSJmaWxsOiM4MDQ5OTgiIGQ9Im0gNDYuMzksMTguNzQgdiAxMC42MSBsIDcuNDcsMi44OSBWIDE2LjEyIFogbSAwLjc5LDkuODMgLTAuNCwtMC4xMyB2IC04Ljc4IGwgMC40LC0wLjEzIDAuMzksLTAuMTQgMC4zOSwtMC4xMyB2IDkuNTcgTCA0Ny41NywyOC43IFogbSAxLjk2LDAuNjUgLTAuNTIsLTAuMTMgdiAtOS44MyBsIDAuNTIsLTAuMTMgMC41MywtMC4xMyAwLjUyLC0wLjEzIHYgMTAuNzUgbCAtMC41MiwtMC4xNCB6IG0gMi4zNiwwLjc5IC0wLjY1LC0wLjI2IFYgMTguNjEgbCAwLjY1LC0wLjEzIDAuNjYsLTAuMjcgMC43OCwtMC4yNiBWIDMwLjQgbCAtMC43OCwtMC4yNiB6Ii8+JiN4YTs8L3N2Zz4=;" vertex="1" parent="1">
          <mxGeometry x="462" y="214.5" width="66" height="48" as="geometry" />
        </mxCell>
        <mxCell id="vk7fomVInif-CjgZtPBc-6" value="" style="edgeStyle=orthogonalEdgeStyle;rounded=0;orthogonalLoop=1;jettySize=auto;html=1;" edge="1" parent="1" source="vk7fomVInif-CjgZtPBc-3" target="vk7fomVInif-CjgZtPBc-4">
          <mxGeometry relative="1" as="geometry" />
        </mxCell>
        <mxCell id="vk7fomVInif-CjgZtPBc-8" value="" style="edgeStyle=orthogonalEdgeStyle;rounded=0;orthogonalLoop=1;jettySize=auto;html=1;" edge="1" parent="1" source="vk7fomVInif-CjgZtPBc-3" target="vk7fomVInif-CjgZtPBc-7">
          <mxGeometry relative="1" as="geometry" />
        </mxCell>
        <mxCell id="vk7fomVInif-CjgZtPBc-3" value="" style="shape=image;verticalLabelPosition=bottom;labelBackgroundColor=default;verticalAlign=top;aspect=fixed;imageAspect=0;image=data:image/jpeg,/9j/4AAQSkZJRgABAQAAAQABAAD//gA7Q1JFQVRPUjogZ2QtanBlZyB2MS4wICh1c2luZyBJSkcgSlBFRyB2NjIpLCBxdWFsaXR5ID0gODAK/9sAQwAGBAUGBQQGBgUGBwcGCAoQCgoJCQoUDg8MEBcUGBgXFBYWGh0lHxobIxwWFiAsICMmJykqKRkfLTAtKDAlKCko/9sAQwEHBwcKCAoTCgoTKBoWGigoKCgoKCgoKCgoKCgoKCgoKCgoKCgoKCgoKCgoKCgoKCgoKCgoKCgoKCgoKCgoKCgo/8AAEQgCigNiAwEiAAIRAQMRAf/EAB8AAAEFAQEBAQEBAAAAAAAAAAABAgMEBQYHCAkKC//EALUQAAIBAwMCBAMFBQQEAAABfQECAwAEEQUSITFBBhNRYQcicRQygZGhCCNCscEVUtHwJDNicoIJChYXGBkaJSYnKCkqNDU2Nzg5OkNERUZHSElKU1RVVldYWVpjZGVmZ2hpanN0dXZ3eHl6g4SFhoeIiYqSk5SVlpeYmZqio6Slpqeoqaqys7S1tre4ubrCw8TFxsfIycrS09TV1tfY2drh4uPk5ebn6Onq8fLz9PX29/j5+v/EAB8BAAMBAQEBAQEBAQEAAAAAAAABAgMEBQYHCAkKC//EALURAAIBAgQEAwQHBQQEAAECdwABAgMRBAUhMQYSQVEHYXETIjKBCBRCkaGxwQkjM1LwFWJy0QoWJDThJfEXGBkaJicoKSo1Njc4OTpDREVGR0hJSlNUVVZXWFlaY2RlZmdoaWpzdHV2d3h5eoKDhIWGh4iJipKTlJWWl5iZmqKjpKWmp6ipqrKztLW2t7i5usLDxMXGx8jJytLT1NXW19jZ2uLj5OXm5+jp6vLz9PX29/j5+v/aAAwDAQACEQMRAD8A+qaKKKACiiigAooooAKKKKACiiigAooooAKKKKACiiigAooooAKKKKACiiigAooooAKKKKACiiigAooooAKKKKACiiigAooooAKKKKACiiigAooooAKKKKACiiigAooooAKKKKACiiigAooooAKKKKACiiigAooooAKKKKACiiigAooooAKKKKACiiigAooooAKKKKACiiigAooooAKKKKACiiigAooooAKKKKACiikoAWiiigAooooAKKKKACiiigAooooAKKKKACiiigAooooAKKKKACiiigAooooAKKKKACiiigAooooAKKKKACiiigAooooAKKKKACiikoAWiiigAooooAKKKKACiiigAooooAKKKKACiiigAooooAKKKKACiiigAooooAKKKKACiiigAooooAKKKKACiiigAooooAKKKKACiiigAooooAKKKKACiiigAooooAKKKKACiiigAooooAKKKKACiiigAooooAKKKKACiiigAooooAKKKKACiiigAooooAKKKKACiiigAooooAKKKKACiiigAooooAKKKKACiiigAooooAKKKKACiiigAooooAKKKKACiiigAooooAKKKKACiiigAooooAKKKKACiiigAooooAKKKKACiiigAooooAKKKKACiiigAooooAKKKKACiiigAooooAKKKKACiiigAooooAKKKKACiiigAooooAKKKKACiiigAooooAKKKKACiiigAooooAKKKKACiiigAooooAKKKKACiiigAooooAKKKKACiiigAooooAKKKKACiiigAooooAKKKKACiiigAooooAKKKKACiiigAooooAKKKKACiiigAooooAKKKKACiiigAooooAKKKKACiiigAooooAKKKKACiiigAooooAKKKKACiiigAooooAKKKKACiiigAooooAKKKKACiiigAooooAKKKKACiiigAooooAKKKKACiiigAooooAKKKKACiiigAooooAKKKKACiiigAooooAKKKKACiiigAooooAKKKKACiiigAooooAKKKKACiiigAooooAKKKKACiiigAooooAKKKKACiiigAooooAKKKKACiiigAooooAKKKKACiiigAooooAKKKKACiiigAooooAKKKKACiiigAooooAKKKKACiiigAooooAKKKKACiiigAooooAKKKKACiiigAooooAKKKKACiiigAooooAKKKKACiiigAooooAKKKKACiiigAooooAKKKKACiiigAooooAKKKKACiiigAooooAKKKKACiiigAooooAKKKKACiiigAooooAKKKKACiq95e2tlH5l5cwwJ/elcKP1rAuvHfh23JDaisjDtEjN+oGKuNOc/hVyXOMd2dPRXGH4keHv+etx/35NH/CyPD/8Az1uf+/JrT6tV/lZPtodzs6K4z/hZHh//AJ63P/fk0f8ACyPD/wDz1uf+/Jo+rVf5WHtodzs6K4z/AIWR4f8A+etz/wB+TR/wsjw//wA9bn/vyaPq1X+Vh7aHc7OiuM/4WR4f/wCetz/35NH/AAsjw/8A89bn/vyaPq1X+Vh7aHc7OiuM/wCFkeH/APnrc/8Afk0f8LI8P/8APW5/78mj6tV/lYe2h3OzorjP+FkeH/8Anrc/9+TR/wALI8P/APPW5/78mj6tV/lYe2h3OzorjP8AhZHh/wD563P/AH5NH/CyPD//AD1uf+/Jo+rVf5WHtodzs6K4z/hZHh//AJ63P/fk0f8ACyPD/wDz1uf+/Jo+rVf5WHtodzs6K4z/AIWR4f8A+etz/wB+TR/wsjw//wA9bn/vyaPq1X+Vh7aHc7OiuM/4WR4f/wCetz/35NH/AAsjw/8A89bn/vyaPq1X+Vh7aHc7OiuM/wCFkeH/APnrc/8Afk0f8LI8P/8APW5/78mj6tV/lYe2h3Ozork7X4geHbhwpvGiJ6ebEwH54xXTWt1BdwrNazRzRN0eNgwP4is505w+JWKjOMtmTUUUVBQUUUUAFFFFABRRRQAUUUUAFFFFABRRRQAUUUUAFFFFABRRRQAUUUUAFFFFABRRRQAUUUUAFFFFABRRRQAUUUUAFFFFABRRRQAUUUUAFFFFABRRRQAUUUUAFFFFABRRRQAUUUUAFFFFABRRRQAUUUUAFFFFABRRRQAUUUUAFFFFABRRRQAUUUUAFFFFABRRRQAUUUUAFFFFABRRRQAUUVyvjjxdb+HLYRxhZtRkGY4uyj+83t7d6uEJVJcsdyZSUVdmvruuafoVr5+oziMH7iDl3PoBXlXiH4k6lfM0WlqLG36bvvSH8eg/D8643U9RutTvHur+Zpp36s3b2A7D2qrXs0MDCnrPVnn1cTKWkdES3NzNdStLczSTSnq8jFifxNRUUV3bHMFFFFABRRRQAUUUUAFFFFMAoozRSAKKKKACiiigAoozRQAUUUUwCiiikAUUUUAFaOia1f6JdifTp2jb+JOquPQjvWdRSlFSVmCbTuj6E8HeJrfxJp3mxgR3UeBNDn7p9R7Gugr528G6y+h6/bXQYiEt5cw9UPX8uv4V9Eg5GR0rwcZh/Yz02Z6mHq+0jrugooorkNwooooAKKKKACiiigAooooAKKKKACiiigAooooAKKKKACiiigAooooAKKKKACiiigAooooAKKKKACiiigAooooAKKKKACiiigAooooAKKKKACiiigAooooAKKKKACiiigAooooAKKKKACiiigAooooAKKKKACiiigAooooAKKKKACiiigAooooAKKKKACiiigAooooAKKKbI6xxs8jBUUEsxOAB60AY/i7XofD2jyXcmGlPyQxk/fft+Hc18+6heT6heS3V3I0k8rbmY/56Vt+PPETeIdaeSMkWcOUgX27t9T/hXN17+Dw/sYXe7PLxFX2krLZC0UlFdhzi0UlFAC0UlFAC0UlFAC0UlFAC0UlFAC0UlFAC0UlFAC0UlFAC0UlFAC0UlFAC0UlFAC0UlFAC0UlFAC19J+HJWn8PaZK5JZ7WJj9Sgr5rr6Q8Kf8AIr6R/wBecX/oArzMz+GJ24PdmrRRRXjneFFFFABRRRQAUUUUAFFFFABRRRQAUUUUAFFFFABRRRQAUUUUAFFFFABRRRQAUUUUAFFFFABRRRQAUUUUAFFFFABRRRQAUUUUAFFFFABRRRQAUUUUAFFFFABRRRQAUUUUAFFFFABRRRQAUUUUAFFFFABRRRQAUUUUAFFFFABRRRQAUUUUAFFFFABRRRQAUUUUAFFFFABXm3xb8S/Z7f8AsWzf97KA1wwP3U7L+Pf2+tdl4q1uHQNGmvZcM4+WJCfvueg/qfYV88Xt1Ne3c1zcuXmlYu7HuTXoYDD88vaS2X5nJiqvKuVbshooor2jzgooooAKKKKBhRRRQAUUUUAFFFFABRRRQAUUUUAFFFFABRRRQAUUUUAFFFFABRRRQAUUUUAFFFFABX0f4U/5FfSP+vSL/wBAFfOFfR/hT/kV9I/684v/AEAV5uZfDE7MH8TNWiiivHO8KKKKACiiigAooooAKKKKACiiigAooooAKKKKACiiigAooooAKKKKACiiigAooooAKKKKACiiigAooooAKKKKACiiigAooooAKKKKACiiigAooooAKKKKACiiigAooooAKKKKACiiigAooooAKKKKACiiigAooooAKKKKACiiigAooooAKKKKACiiigAooooAKRiFUljgAZJPalrzz4seJfsVl/ZFm+Lm4XMzA/cj9Pqf5fWtKVJ1ZqCIqTUI8zOH+IXiM6/rJEDH7DbkpCOzer/j/LFctRSV9JCCpxUY7I8iUnJ3YtFJRVCFopKKAFopKWgAopKWgAopKKAFopKKAFoq5Y6Xd33+ohYp/fbhfzrdtfCgwDdXPPdYx/U/4VEqkY7spQb2OWoru4vDunRjmJnPqzn+lT/2Lp3/AD6p+ZrP6xEr2TPPaK76TQNNcf8AHvtPqrkf1rPufCsDAm2ndD6OAw/pTVeLB0pHI0Vp32h3toCxj8yMfxR8/p1rMrVNPYzaa3CikoqgFopKKAFopKKBC0UlFIYtFJRTAWvo/wAKf8ivpH/XnF/6AK+b6+kPCn/Ir6R/15xf+gCvMzP4YnZg/iZq0UUV453hRRRQAUUUUAFFFFABRRRQAUUUUAFFFFABRRRQAUUUUAFFFFABRRRQAUUUUAFFFFABRRRQAUUUUAFFFFABRRRQAUUUUAFFFFABRRRQAUUUUAFFFFABRRRQAUUUUAFFFFABRRRQAUUUUAFFFFABRRRQAUUUUAFFFFABRRRQAUUUUAFFFFABRRRQAUUUUAFFFBOBk0AZniPWINC0ie+uMHYMImeXc9FFfO2pXs+o3093dPvnmYsx/oPaun+JHiQ67q5htnzYWpKx46O3dv6D2+tchXvYLD+yhzS3Z5mIq88rLZCUUtFdpzCUUUtACUUtFACUUtFACUUtFACUUtS2ltLd3CQwLudjgf40r2GJbwS3EyxQoXkboBXXaT4chtwsl7iaXrs/hX/GtHSNLh02Dag3SsPnkxyf/rVfrkqVm9Im8KdtWIAAAAAAOgFLRRWBqFFFFABRRRQAVlapolrfguAIp/76jr9R3rVopqTi7oTSe55vqNhPp83l3C4z91h0b6VUr028tYryBobhAyH8wfUVwOsabLptzsf5o25R/Uf412U6qno9znnDl1RQooorYzCiiloASiiigAooooAK+kPCn/Ir6R/15xf+gCvm+vpDwp/yK+kf9ecX/oArzMz+GJ2YP4matFFFeOegFFFFABRRRQAUUUUAFFFFABRRRQAUUUUAFFFFABRRRQAUUUUAFFFFABRRRQAUUUUAFFFFABRRRQAUUUUAFFFFABRRRQAUUUUAFFFFABRRRQAUUUUAFFFFABRRRQAUUUUAFFFFABRRRQAUUUUAFFFFABRRRQAUUUUAFFFFABRRRQAUUUUAFFFFABRRRQAVwXxU8S/2bp39mWj4vLpfnIPKR9/xPT8663XdUg0bSp766PyRLwvdm7KPcmvnbV9QuNV1Ge9u23TTNuPoPQD2A4rvwOH9pLnlsjlxNXkXKt2VKKKK9s84KKKKACiiigAooopgFFFFIAooooAK7rw3pYsLUSSr/pEgy3+yPSue8LWP2vUBI4zFD8x9z2H9fwruq5q8/so2pR6iUUtFcxsJRS0UAJRS0UAFJS0UAFJS0UAJVXU7KO/tHhlHXlW/un1q3RQnZ3QNXPMLmB7a4khlGHQ4IqOur8ZWOUjvUHI+ST6dj/T8q5OvQhLmVzklHldgpaSlqxBRSUUALRSUUAFfSHhT/kV9I/684v8A0AV8319IeFP+RX0j/rzi/wDQBXmZn8MTswfxM1aKKK8c7wooooAKKKKACiiigAooooAKKKKACiiigAooooAKKKKACiiigAooooAKKKKACiiigAooooAKKKKACiiigAooooAKKKKACiiigAooooAKKKKACiiigAooooAKKKKACiiigAooooAKKKKACiiigAooooAKKKKACiiigAooooAKKKKACiiigAooooAKKK4j4n+Jf7I0v7DaPi+u1IyDzHH0LfU9B+PpWlKm6klCPUmc1CPMzhvid4l/tnVfsdq+bG0YgEHiR+hb6dh+PrXF0lFfR06apxUY9DyJzc5czFopKKsgWikooAWikooAWikooAWikooAWikpVBYgDqeBQB3fha2FvpKMR88x3n6dv0/nWxUcEYhgjjXoihR+Ap9efJ3bZ2JWVhaSiipGLRSUUALSUUUALRSUUALRSUUALRSUUAQ30C3VnNA3R1I+h7GvNGUqxVuGBwRXqNeea/F5OsXSDoX3fnz/AFrpw73RjWXUoUUlFdRgLRSUUgFopKKYC19H+FP+RX0j/rzi/wDQBXzfX0h4U/5FfSP+vOL/ANAFeZmfwxOzB/EzVooorxz0AooooAKKKKACiiigAooooAKKKKACiiigAooooAKKKKACiiigAooooAKKKKACiiigAooooAKKKKACikpaACiikoAWikpaACiiigAopKWgAooooAKKKKACiiigAoopPyoAWivLPHHxYttMmksvD8cd5cqdr3DnMSH0GPvH9PrXlepeOvE2oSFptYu0B/hgfygPwXFd9HLqtRcz0RzVMVCDstT6nor5I/4SPXP+gzqX/gU/+NH/AAkeuf8AQZ1L/wACn/xrf+yZfzGX11dj63or5I/4SPXP+gzqX/gU/wDjR/wkeuf9BnUv/Ap/8aP7Jl/MH11dj63or5I/4SPXP+gzqX/gU/8AjR/wkeuf9BnUv/Ap/wDGj+yZfzB9dXY+t6K+SP8AhI9c/wCgzqX/AIFP/jR/wkeuf9BnUv8AwKf/ABo/smX8wfXV2Preivkj/hI9c/6DOpf+BT/40f8ACR65/wBBnUv/AAKf/Gj+yZfzB9dXY+t6K+SP+Ej1z/oM6l/4FP8A40f8JHrn/QZ1L/wKf/Gj+yZfzB9dXY+t6K+SP+Ej1z/oM6l/4FP/AI0f8JHrn/QZ1L/wKf8Axo/smX8wfXV2Preivkj/AISPXP8AoM6l/wCBT/40f8JHrn/QZ1L/AMCn/wAaP7Jl/MH11dj63or5I/4SPXP+gzqX/gU/+NH/AAkeuf8AQZ1L/wACn/xo/smX8wfXY9j63or5I/4SPXP+gzqX/gU/+NH/AAkeuf8AQZ1L/wACn/xo/smX8wfXV2PqvWNRt9J02e9u22xQruPqT2A9yeK+ddc1SfWdUnvro5klbIHZR2UewFULe+1K5tQNQ1C8uFYhgk0zOB6HBPWlrpw2EVC7buzGtX9rbsFFFFdZgFJS0UAFJS0UAFFFFACUtFFABSUtFMBKsWADX1uvrIo/WoKms22XkDHosin9aT2BHplFLRXmnYJRS0UAJRS0lABRS0lABRS0UAJRS0lABRS0UAJXDeLQBrLn1RT+ld1XCeLG3a1KP7qqP0z/AFrah8RnV+ExqKWiu05xKKWigBKKKWgBK+kPCn/Ir6R/15xf+gCvm+vpDwp/yK+kf9ekX/oArzMz+GJ2YP4matFFFeOd4UUUUAFFJRQAtFFJQAtFFJQAtFJRQAtFFFABRRRQAUUUlAC0UUlAC0UflRQAUUUUAFFFFABRSUtABRRRQAUUlLQAUUUUAFFJS0AFFFJQAtFFFABRRRQAUUlLQAUUUUAFeV/G7xbJplnHomnyFLm6TfO6nBSLpt+rc/gPevVK+V/iNfvqPjfWZnOQtw0K+yp8g/8AQa78uoqpVvLZHNiqjhCy6nN0UUV9EeSFFFFABRRRQAUUUUAFFFFABRRRQMKKKKBBRRRQAUUUUAFFFFABVzTbbz5dzD92vJ9z6VViRpZFRBlicV0NvCIIlRe3U+pqZOw0S0UUlZFi0UUUAFFFJQAtFFFABRRRQAUUUUCCiiigYUUlLQB6bZTfaLSGYfxoG/SpqwfCF0JtOMBPzwtj8DyP61vV581yyaOuLurhRSUVIxaKSigBaKSigBaKKSgBaKKSgBaKKSgBa841ibz9UupByC5A+g4Fd3q10LPTpps4YLhfqeBXnFdOHjuzGq+gUUlFdJiLRRSUwFopKKAFr6P8Kf8AIr6R/wBecX/oAr5vr6Q8Kf8AIr6R/wBecX/oArzMz+GJ2YP4matFFJXjneLRRRQAUUlLQAUUUUAFFJRQAtFFJQAtFJS0AFFFFABRRSUALRRRQAUUlLQAUUUUAFFFFABRRRQAUUUUAFFFFABRRRQAUUUUAFFFFABRRRQAUUUUAFFFFABRRRQAV8j+K/8AkaNY/wCvyb/0M19cV8j+K/8AkaNY/wCvyb/0M162U/FI4cbsjLooor2zzwooooAKKKKACiiigAooooAKKKSgBaKKKACiiigAooooAKKKtadbefNlv9WvJ9/ahuwF7Srby4/NcfM3T2FX6KKxbuUFFFFAwooooAKKWkoEFFFFAwooooEFFLSUAFFFFABRRS0DNHQb77BqCOx/dN8j/T1r0EHIyOQa8srr/CuqiWMWU7fvEH7sn+Ien4VzV4X95GtKVtDpKKKK5TcKKKKACiiigAooooAKKKKACiiszXdTXTrU7SDO/CL/AFppNuyBuyuzC8YX/mzraRnKxfM+O7en4f1rnKc7F3LMSWJySe5ptehCPKrHJJ8zuFFFFUIKKKKACiiigAr6Q8Kf8ivpH/XpF/6AK+b6+kPCn/Ir6R/15xf+gCvMzP4YnZg/iZq0UUV453hRRRQAUUUUAFFFFABRRRQAUUUUAFFFFABRRRQAUUUUAFFFFABRRRQAUUUUAFFFFABRRRQAUYoooAKKKKACiiigAooooAKMUUUAGKMUUUAFFFFABRRRQAUUUUAFfI/iv/kaNY/6/Jv/AEM19cV8j+K/+Rp1j/r8m/8AQzXrZT8UjhxuyMuiiivbPPCikpaACiiigAooooAKKSigBaKSigBaKKSgBaKKKACiikoAfGhkdVUZYnArobWEQQqi/Un1NUtJtti+c4+Zvu+wrSrOTvoNIKKSlqCgooooAKKKSgBaKKSgBaKSigBaKSigBaKKKACiiigAopKWgApUZkcMhKspyCD0ptFAHb6BriXqrBcsFuRwD0D/AP163K8tBwcjrXRaT4kkgCxXwMsfQSD7w+vrXNUo9Ym0KnRnYUVBaXcF3HvtpVkHt1H1Hap65mrGwUUtJQAUUUUAFFNlljhQvK6og6sxwK5zVfEyIDHp43t08xhwPoO9VGDlsJyUdzV1fVIdNhy53TEfJGDyf8BXB3t1LeXDzTtudvyA9BTJpZJ5Wkmcu7ckk1HXZTpqHqc05uQtFJS1oSFFJRQAtFJRQAtFJRQAtfR/hT/kV9I/684v/QBXzfX0h4U/5FfSP+vSL/0AV5uZfDE7MH8TNXFFFFeOd4UUUUAFFFFABRiiigAxRRRQAUlLRQAUYoooAKMUUUAFGKKKACiiigAooooAKKKKACiiigAooooAKKKKACiiigAooooAKKKKACiiigAooooAKKKKACiiigAooooAK+R/Ff8AyNOsf9fk3/oZr64r5H8V/wDI0ax/1+Tf+hmvWyn4pHDjdkZVLRRXtnnhRRRQAlFLRQAUlLRQAlFLRQAUUUUAJS0UUAFJS0UAJVqwt/tEwyPkXlv8Kropdgqgkk4ArobSAW8IQdepPqamTsCJRwMAcUUtFZFiUUtFMBKKWikAlFLRTEJRS0UgEopaKBiUUtFACUUtFAhKKWigYlFLRQAlFLRTASilooAdFI8Th4nZGHQqcGte18SX8IAdkmX/AGxz+YrGoqXFS3Gm1sdXF4sXH720IPqr5/pUw8VWmOYJ/wAh/jXHUVn7GBXtJHWyeLIgP3dq7H/aYD/Gs+58UXkgIhSOEeoG4/rx+lYVFNUoLoJ1JPqS3N1PdPuuJXkP+0c4qGlorTYkSilooASilopgJRS0UAJRS0UgEopaKYCV9IeFP+RX0j/rzi/9AFfOFfR/hT/kV9I/684v/QBXmZn8MTswfxM1aKKK8c7wooooAKKKKACiiigAooooAKKKKACiiigAooooAKKKKACiiigAooooAKKKKACiiigAooooAKKKKACiiigAooooAKKKKACiiigAooooAKKKKACiiigAooooAK+SPFf/ACNGsf8AX5N/6Ga+t6+SPFf/ACNGsf8AX5N/6Ga9bKfikcON2RlUUUV7Z5wUUUUAFFFFABRRRQAUUUUAFFFFABRRRQAUUVYsrc3E4X+AcsfagZd0m2wPPccnhf8AGtOkAAAAGAOlLWLdygooooGFFFFIAooooAKKKKAD8qKKKACiiigAooqxBBuG5+h6CjYCvRT5YzG2D07GmUAFFFFABRRRQAUUUUAFFFFABRRRQAUUUUwCiiigAooopAFJS0UwCiiigAooopAFFFFAB+VFFFABX0h4WBXwzpAI5FpF/wCgCvnGNGkkVEGWYgAepNfTlnCLazggXpFGqD8BivMzN6RR2YNatk1FFFeQd4UUUUAFFFFABRRRQAUUUUAFFFFABRRRQAUUUUAFFFFABRRRQAUUUUAFFFFABRRSUALRSUUALRSUUALRSUUALRSUUALRSUUALRRSUALRSUUALRRSUALRRRQAUUUUAFfJHiv/AJGjWP8Ar8m/9DNfW1fJPiv/AJGjWP8Ar8m/9DNetlPxSOHG7IyqKKK9s84KKKKACiiigAooooAKKKKACiiigAooooAVQWYAAkngCt+ytxbwhf4jyx96paTbf8t3Hsv+NatZyfQpIKKKKgoKKKKACiiigAooooAKKKKACiiigAooqzbwZwzjjsKL2ALeHOGccdhVqkoqG7lCOodcMOKoyxmNsHp2NX6R1DrhhxTTsKxnUU+WMxtg9OxplUIKKKKACiiigAooooAKKKKACiiigAooooAKKKKACiiigAooooAKKKKACiiigAooooA6T4d6adT8WWSFcxQN9ok9gvI/XA/GvoCuD+E2hHTtGbULhcXF7gqD1EY6fn1/Ku7rwcdV9pVstloenhocsNeotFFJXGdAtFFFABRRRQAUUlLQAUUlFAC0UlFAC0UlFAC0UUlAC0UUlAC0UlFAC0UlLQAUUUUAFJS0lABRS0UAFJS0UAJRRS0AJRS0UAJRS0UAFJS0UAJS0UlAC0UUUAFFFFABRRRQAlfJHiv/AJGnWP8Ar8m/9DNfXFfI/iv/AJGjWP8Ar8m/9DNetlPxSOHG7Iy6KKK9s88KKKKACiiigAooooAKKKKACiiigAqazgNxMFH3erH0FQgZIA5JrfsbcW8IB++eWNKTsCLCqFUKowBwBS0lFZFi0UUlAC0lLRSAKKKKYCUUUtACUtFJQAtJRVq3hzhn6dhSuAlvBnDP+Aq3RRUN3GFFFFAwooooAa6h1IbpVGWMxtg9Oxq8zBVJY8VRmlMh9B2FOImMopKWrEFJRRQAUUUUhC0lLSUxhS0UlABS0lFAC0UlFABRRRQIKKKWgYUlFFABRRRQIWus+H3hd/EGpiW4UjToGBlb++eyD+vt+FReDfCF54inEhDQaep+ecjr7L6n9BXuWmWFtpljFaWUQigjGAo/mfU15+Mxaprkhv8AkdWHoOb5pbFlVVVCqAFAwAB0paWivEPSCkpaKACkpaKACkpaKAEpaKKACkpaKACkoooAWkpaKACkpaKAEpaKKACiiigBKWiigAooooAKKKKACiiigAooooAKKKKACiiigAooooAKKKKACiiigAooooAKKKKACiiigAr5H8V/8jRrH/X5N/6Ga+uK+TfGttPaeLdXjuYnic3UjgMMZUsSD9CCDXrZU/fkcON+FGLRRRXtnnBRRRQAUUUUAFFFFABRRRQAUUVNawm4mCDp1J9BQMuaTbbm85xwPu/X1rWpqKEQKowoGAKdWLd2UgooopDCiiigAoo/CigAooooAKKKKACiirNvBnDuPoKL2AS3hzhnHHYVbpKKhsoWikooAWkoooAWmswUEngUMwUZbGKpSymRvbsKaVxMJpTI3t2FR0UVQgooooAKKKKACiiigAooooAKKKKACiiigAooooAKKKKACiiigAoorpPCvg/UfELh408izz81xIOP+Aj+I/p71M5xguaTshxi5OyOftoJrqdILaJ5ZnOFRASSfpXqPhH4bKmy68Q/M3VbVDwP98jr9B+ddp4a8M6d4eg22UW6YjDzvy7fj2HsK268jEY+U/dp6I76WFUdZ6jIYo4YlihjWONBhUUYAHoBT6KK846wooooAKKKKACiiigAooooAKKKKACiiigAooooAKKKKACiiigAooooAKKKKACiiigAooooAKKKKACiiigAooooAKKKKADNFFFABRmiigAooooAKKKKACiiigAooooAKKKKADNcl8QfBlp4s0/nbDqMQPkXGP8Ax1vVT+nX69bRVwnKnJSi9SZRUlZnx/q2m3ekahNZahC0NzEcMrfzHqD61Tr6f+IPgu08Wafg7YdRiB8i4x/463qp/Tr9fmzV9Nu9I1Cay1CFobmI4ZW/mPUH1r6PCYuOIj5nk16DpPyKdFFFdZiFFFFAgooooGFFFFAAAa3tPtvs8PP+sblv8Ko6Tbb385x8qn5fc1r1En0GkLRSUVmULRSUUwFopKKQC0UlFAC0UlFMBaKSrVvB0Zx9BSegBbw5wzj6CrNLRUNjEpaKKBiUtFFACUjMFXJOBQ7BVJY8VRmlMje3YU0riYTSmRvQdhTKSiqELRSUUwFopKKAFopKKAFopKKQhaKSimMWikooAWikooELRSUUDFopKKAFqaytLi+uUt7SF5p3OFRBkmuj8J+CtR19lmYG1sO8zj73+6O/16V7J4e8PafoFt5VhCA5Hzyty7/U/wBOlcWIxsKWi1Z0UsPKer0RxvhH4bw2+y61/bNN1Fspyi/7x/i+nT616PGixoqRqqoowFUYAFOorxqtadV3mz0IU4wVohRRRWRYZooooAKKKKADNFFFABRRRQAUUUUAGaKKKACiiigAooooAKM0UUAFFFFABRmiigAooooAKKKKACiiigAooooAKKKKACiiigAooooAKKKKACiiigAooooAKKKKACiiigAooooAKKKKACiiigArkviD4LtPFmn4O2HUYgfIuMf+Ot6qf06/XraKuE5U5KUXqTKKkrM+P9X0270jUJrHUIWhuYjhlb+Y9QfWqdfT/wAQfBlp4t0/B2w6jED5Fxj/AMdb1U/p1+vzXq+m3ekahNY6hC0NzEcMrfzHqD619HhMXHER8zyq9B0n5FSiiiuswCkpaSgBaKSlBwRQB0kEYihRB/CKfQCCAR0PNLWJQlFLRSGJS0UUAJRS0UAJRS0UAJRS1Zt4f4n/AAFF7AJbwfxOPoKtUtFQ3cYlFLRQMSilooASkZgqkseKHYKpJ6VRmlMjeg7CmlcVwmlMje3YVHS0VQhKKWigBKKWigBKKWigBKKWigBKKWigBKKWigBKKWkoAKKWigBKKWuv8JeBb/XNlxc5tLA8+Yw+Zx/sj+p4+tRUqRprmk7FRg5u0TmdOsLrUrpLaxgeeduioM/ifQe9eseEfhzbWOy61vZdXPUQjmNPr/eP6fWuw0LRLDQ7XyNOgWMH7znl3PqT3rTrx8RjpVPdhojvpYZR1lqxFAUAKAAOABS0UVwHUFFFFABRRRQAUUUUAFFFFABRRRQAUUUUAFFFFABRRRQAUUUUAFFFFABRRRQAUUUUAFFFFABRRRQAUUUUAFFFFABRRRQAUUUUAFFFJQAtFJS0AFFFFABRRRQAUUUUAFFFFABRRRQAUUUUAFFFFABRRRQAUUUUAFcn8QfBdp4t0/B2w6jED5Fxj/x1vVT+nX69ZRVwnKnJSi9SZRUlZnx9q+m3ekahNY6hC0NzEcMp/mPUH1qnX1B8QPBlp4t0/B2w6jED5Fxj/wAdb1U/p1+vzZq+m3ekahNY6hC0NzEcMp/mPUH1r6PCYuOIj5nlV6LpPyKVFLRXWYCUUtFAG3pdwJYAhPzpx+FXKw9Itbu91GC206J5bqVtqIvUn/Cu48TeGNR8OvCL9VZJVBEseSm7HK/UVhOUYyUb6stRbV7aGJSUtFAhKKWimMSilopCEopas28PRnH0FF7DC3h6M4+gqzS0VDdyhKKWigBKKWigBKRmCqSeBSswVcnpVGaUyN7dhTSuJsSaUyN7dhUdLRVCEopaKBCUUtFMBKKWigBKWiikAlFLRTGJRS0UAJRS0UAJRS0UAJV3StMvNWu1ttPgeaY9lHAHqT0A9zXVeEfAF9rGy51DfZ2J5GR+8kHsOw9z+tev6NpNjo1oLfTrdYo+5H3mPqT1JrhxGOjT92OrOmlhpT1lojkvCPw8s9M2XOq7Ly8HITH7uM/T+I+5/Ku8Ax0oorxqlWVV802d8IRgrRCikpazLCikpaACiiigAooooAKKSloAKKKKACiiigAooooAKKKKACiiigAooooAKKKSgBaKKKACiiigAoopKAFooooAKKKKACiiigAooooASloooAKKKKACiiigAooooAKKKKACiiigAooooAKKKKACiiigAooooAKKKKACiiigAooooAK5P4geDLTxZp2Dth1GIHyLjHT/AGW9VP6dfr1lFXCcqclKL1JlFSVmfH+r6bd6RqM1jqELQ3MRwyn+Y9QfWqdfUHxA8GWnizT8HbDqMQPkXGOn+y3qp/Tr9fmvV9Nu9I1Gax1CFobmI4ZT/MeoPrX0eExccRHzPJr0HSfkU6s6bY3OpX0NnYwtNczNtRFHJP8AnvRptjc6lfQ2djC01zM21EUck/5719IfDrwRbeFLHzJdk2qyr++mxwo/uL7fz/IB4rFRw8fPogo0XVfkHw68D23hSx8yXZNqsy/vpscKP7i+3v3/ACA6jVNPtdUsZbS+iEkEgwQe3uPQ1bor5ydWU588nqetGEYx5UtD588ZeF7nw3fbXzLZyE+TNjr7H0Nc9X0zqmn22qWMtpfRCSCQYIPb3Hoa8I8ZeF7nw3fbXzLZyE+TNjr7H0NexhMWqq5Z/F+Z59ehye9HY52iiiu45gooqzbw/wATj6Ci9gC3h6M4+gqzS0VDdxiUUtFAxKKWigBKRmCqSeBSuwUEnpVGaUyN6DsKaVxXCaUyH0HYVHRRVCCiiigAooooAKKKKACiiigAooooAKKKKACiiigAoorK1DV44cpb4kk9f4R/jTSbFexfubiK2j3zOFHb1P0rt/gatprWs6nLdWqP9kSNod/OCS2TjpngfSvGZ5pJ5C8zlmPc17H+zZ/x/wCu/wDXKL+bVjjY8uHk1v8A8E0w7vVSPdqKKK+aPYCiiigAooooAKKKKACiiigAooooAKKKKACiiigAooooAKKKKACiiigAooooAKKKKACkpaKACiiigAooooAKKKKACiiigAooooAKKKKACiiigAooooAKKKKACiiigAooooAKKKKACiiigAooooAKKKKACiiigAooooAKKKKACiiigAooooAKKKKACud8W+D9J8UxxjU4XE0fCTxHbIo9M85HsQa6KiqhOUHzRdmKUVJWZzXhHwVo/hbzH06KR7iQbWnmYM+PQcAAfQV0tFFE5ym+aTuwjFRVkFFFFSMKqapp9tqljLaX0QlgkGCD29x6GrdFNNp3QNX0Z8++MvC9z4bvtr5ls5D+5mx19j6Gudr6a1TT7bVLGW0vohLBIMEHt7j0NeBa5o0elavcQRXC3MCNhJB39j7ivcwmK9quWW6PMr0PZu62Mu3h/icfQVZpaK6m7mAUlLRQMKTmlooAKazBVyxwKVmCqS3AqjNKZG9B2FNK4mxJpTI3t2FMooqhBRRRQAUlLRQAUUUUAFFFFABRRRQAUUUUAFFFBOBknigAqC6uorWPdMwHoO5+lZ2oaykWUtcO/wDf7D/GsGaV5pC8rFmPc1pGF9yXIu6hqk11lE/dxf3R1P1rPoorVK2xAV7P+zZ/x/67/wBc4v5tXjFez/s2f8f+u/8AXOL+bVx4/wD3eX9dTfC/xUe7UUUV8weyFFFFABRRRQAUUUUAFFFFABRRRQAUUUUAFFFFABRRRQAUUUUAFFFFABRRRQAUUUUAFFFFABRRRQAUUUUAFFFFABRRRQAUUUUAFFFFABRRRQAUUUUAFFFFABRRRQAUUUUAFFFFABRRRQAUUUUAFFFFABRRRQAUUUUAFFFFABRRRQAUUUUAFFFFABRRRQAUUUUAFFFFABRRXCeM/FOPMsNMk5+7LMp/8dX+prSlSlVlyxInNQV2HjPxTjzLDTX5+7LMp/8AHV/qa4KRFdSrDINLRXs0qUaUbRPPnNzd2ZVxA0LeqnoaixWy6B1KsMg1l3EDQtzyp6GuiMrmTRFRRRVCCmsQqkseKGYKpJPFUppTI3oOwppXE2E0hkPoB0FR0UVQgooooAKKKKACiiigAooooAKKKKACiiimIKKQkAEkgAdSaxtQ1lUzHaYZv756D6etCTewN2NK8u4bRN0rc9lHU1zl/qU12Sv3Iv7oPX61Tkd5HLyMWY9SabW0YJEN3CiiiqEFFFFABXs/7Nn/AB/67/1zi/m1eMV7P+zZ/wAf+u/9cov5tXHj/wDd5f11N8L/ABUe7UUUV8weyFFFFABRRRQAUUUUAFFFFABRRRQAUUUUAFFFFABRRRQAUUUUAFFFFABRRRQAUUUUAFFFFABRRRQAUUUUAFFFFABRRRQAUUUUAFFFFABRRRQAUUUUAFFFFABRSUtABRRRQAUUUUAFFFFABRRRQAUUUUAFFFFABRRRQAUUUUAFFFFABRRRQAUUUUAFFFFABRRRQAUUUUAcJ4z8UYMmn6a/P3ZZVP5qP6muDr0Xxl4XF2HvtOTFx1kiH/LT3Hv/ADrzsggkHgivYwrhye58zz6/Nze8JRRRXSYhSOiupVhkGlooAyriBoW9VPQ1AzBVyx4ro7Owl1K4S1t4zJI/GPT3PpWd4y8N3vh+6RbjEtrJ/q5kHyk9wfQ1Uakebkb1E4u3MtjAmlMje3YVHRRW5mFFFFABRRRTAKKKKQBRRRQAUUUUAFFFIzKqlmICjkknpQAtVb29htFzI2WPRB1NZuoa0BlLP8ZD/QVhu7OxZ2LMepJ5NaRhfclyLd/qM14SGO2Psg/r61ToorVKxAUUUUAFFFFABRRRQAV7P+zZ/wAf+u/9cov5tXjFez/s2f8AH/rv/XOL+bVx4/8A3eX9dTfC/wAVHu1FFFfMHshRRRQAUUUUAFFFFABRRRQAUUUUAFFFFABRRRQAUUUUAFFFJQAtFFFABRRRQAUUUUAFFFFABRRRQAUUUUAFFFFABRRRQAUUUUAFFFFABRRRQAUUUUAFFFFABRRRQAUUUUAGaKKKACiiigAooooAKKKKACiiigAooooAK4S+8UajDe3ESeTtSRlGU7A13deT6p/yE7v/AK7P/wChGurCwjJvmRhXk4pWNf8A4S3Uv+mH/fH/ANej/hLdS/6Yf98f/Xrn6Su32NPsc/tJdzof+Et1L/ph/wB8f/XrW8M69eajqRgufL2eWW+VcHORXEV0Xgb/AJDZ/wCuTfzFZ1aUFBtIqE5OSTZ6BRRRXmHaFFFFABRRRQAUUUUAFcb4y8Li7D32nIBcjmSIf8tPce/867Kirp1JU5c0SZwU1ZnhJBBIIwRSV6L4x8Li7D32nJi4HMkY/wCWnuPf+dedkEEgggjtXs0qsasbo86pTcHZiVYsLOe/ukt7VC8rngenufaiws57+6S3tYy8rngenufavV/DehwaLa7Uw9w4/eS46+w9qivXVJeZVKk5vyDw3ocGi2u1MPcOP3kuOvsParuqWFtqljLaXsQlgkGCp7e49DVuivIc5OXM3qd6ikrdD598ZeF7nw3fbWzLZSH9zNjr7H0Nc7X01qmn22qWMtpfRCWCQYIPb3HofevB/Gfhe58N321t0tlIf3M2OvsfQ17WExaqrkl8X5nn16HJ70djnaKKK7jmCiiigAooooEFFFFAwoprusalnYKo6kmsPUNaJzHacDvIev4VSi2Juxp31/DZr853SdkHX/61c3fX81437w4Tsg6CqzMWYliST1J70laxikQ3cKKKKoQUUUUAFFFFABRRRQAUUUUAFez/ALNn/H/rv/XKL+bV4xXs/wCzZ/x/67/1yi/m1ceP/wB3l/XU3wv8VHu1FFFfMHshRRRQAUUUUAFFFFABRRRQAUUUUAFFFFABRRRQAUUUUAFFFFABRRRQAUUUUAFFFFABRRRQAUUUUAFFFFABRRRQAUUUUAFFFFABRRRQAUUUUAFFFFABSUtFACUtFFABRRRQAUUUUAFFFFABRRRQAUUUUAFFFFABRRRQAV5Rqn/ITu/+uz/+hGvV68n1T/kJ3f8A12f/ANCNdmD3Zz4jZFaiiivQOUK6HwN/yGj/ANcm/mK56uh8Df8AIaP/AFyb+YrKt/DZdP4kegUUUV5B3hRRRQAUUUUAFFFFABRRRQAVyHizwp9vk+16cFS5Y/vEJwH9/Y/zrr6KunUlTfNEmcFNWZj+HNDg0W02Jh7hx+8l7n2HtWxRRSlJyd2NJRVkFFFFSMKqanYW2qWMtpexCWCQYKn+Y9DVuimm07oGrnz74z8LXPhu+2tmWykP7mbHX/ZPoa52voTx1f6Pp3hu6l8Q7WsyNoj/AInbsE/2v5da+cbK/hvd5hBQgn5GOSB25717+DrSrQvJbdTysRTVOVky1RRSV1mItFJTZZEiQvIwVR1JoEPqlf6jDaAgnfL2Qf19Ky9Q1lnylplF7uep+npWOSSck5JrSMO5Ll2LN7ezXb5lb5R0UdBVaiitNiQooooAKKKKACiiigAooooAKKKKACiiigAr2f8AZs/4/wDXf+ucX82rxivZ/wBmz/j/ANd/65xfzauPH/7vL+upvhf4qPdaWiivmD2RKWiigBKKWigBKWiigAooooASilooASloooAKKKKACkpaKACiiigApKWigAooooAKSlooASilooAKSlooAKKKKAEopaKACkpaKACiiigAooooAKKKKACiiigAooooAKKKKACiiigAooooAKKKKACiiigAooooAKKKKACiiigAryfVP+Qnd/8AXZ//AEI16xXk+qf8hO7/AOuz/wDoRrswe7OfEbIq0tFFd5yiV0Xgb/kNn/rk38xXPV0Pgb/kNn/rk38xWdb+Gy6fxI9AoooryDvCiiigAooooAKKKKACiiigAooooAKKKKACiiigArK8Ta9YeG9Jl1DU5dkKcKo5aRuyqO5NHibXrDw3pMuoanLshThVH3pG7Ko7k18teOfFt/4u1Y3d6xSBMiC3U/LEv9Se57/TArtweDliJXekUc9euqSstw8c+Lb/AMXasbq8JSBMiC3U5WJf6k9z3+mBXPwyvDIskTFXHQimUV9JCEYR5YrQ8iUnJ3Z0FprcbAC5Uo395RkGrw1GzIz9oSuRopOCDmOkudat4wRCDK30wKwru7mu33TNkdlHQVBRVKKQN3CiiimIKKKKACiiigAooooAKKKKACiiigBKWiigBKKWigBK9n/Zs/4/9d/65RfzavGa9n/Zs/4/9d/65RfzauPH/wC7y/rqb4X+Kj3aiiivmD2QooooAKKKKAEpaKKACiiigAooooAKKKKACiiigAooooAKKKKACiiigAooooAKKKKACiiigAooooAKKKKACiiigAooooAKKKKACiiigAooooAKKKKACiiigAooooAKKKKACiiigAooooAKKKKACiiigAooooAKKKKACvJ9V/5Cd3/12f8A9CNesV5Pqn/ITu/+uz/+hGuzB7s58RsirRS0V6ByiV0XgX/kNn/rk38xXO10Xgb/AJDZ/wCuTfzFZVv4bLp/Ej0CiiivIO8KKKKACiiigAooooAKKKKACiiigAooooAKKKKAPmz4+3l5N45a1uGcWsECG3T+HDDLMPfORn/ZrzWvrH4heCrLxhpnly4h1CIE29zjlT/dPqp/+vXy7rmk3uh6nNp+pwtDcxHBU9COxB7g+tfSZfXhUpqC0a/q55OKpSjNyezKFFFFd5yhRRRQAUUUUAFFFFABRRRQAUUUUAFFFFABRRRQAUUUUAFFFFABRRRQAV7P+zZ/x/67/wBcov5tXjFez/s2f8f+u/8AXOL+bVx4/wD3eX9dTfC/xUe7UUUV8weyFFFFABRRRQAUUUUAFFFFABRRRQAUUUUAFFFFABRRRQAUUUUAFFFFABRRRQAUUUUAFFFFABRRRQAUUUUAFFFFABRRRQAUUUUAFFFFABRRRQAUUUUAFFFFABRRRQAUUUUAFFFFABRRRQAUUUUAFFFFABRRRQAUUUUAFeUap/yE7v8A67P/AOhGvV68n1T/AJCd3/12f/0I12YPdnPiNkVqKKK7zlCuh8Df8hs/9cm/mK56uh8Df8hs/wDXJv5is638Nl0/iR6BRRRXkHeFFFFABRRRQAUUUUAFFFFABRRRQAUUUUAFFFFABXJfEPwVZ+MNL8uTbDqEQJt7nHKn+63qp/8Ar11tFXCcqclKLs0TKKkrM+MNb0m90TU5rDUoWhuYjhlPQjsQe4PrVGvrD4h+CbLxhpmyTbDqEQP2e5xyp/ut6qf0618u63pN7ompzWGpQNDcxHDKehHYg9wfWvpMJi44iP8AeR5Feg6T8ijRRRXYYBRRRQAUUUUAFFFFABRRRQAUUUUAFFFFABRRRQAUUUUAFFFFABXs/wCzZ/x/67/1zi/m1eMV7P8As2f8f+u/9cov5tXHj/8Ad5f11N8L/FR7tRRRXzB7IUUUUAFFFFABRRRQAUUUUAFFFFABRRRQAUUUUAFFFFABRRRQAUUUUAFFFFABRRRQAUUUUAFFFFABRRRQAUUUUAFFFFABRRRQAUUUUAFFFFABRRRQAUUUUAFFFFABRRRQAUUUUAFFFFABRRRQAUUUUAFFFFABRRRQAV5Pqn/ITu/+uz/+hGvWK8n1T/kJ3f8A12f/ANCNdmD3Zz4jZFaiiivQOUK6HwN/yGz/ANcm/mK56rFhe3FhP51q+yTG3O0Hj8aipFyi0ioO0k2es0V5v/wk+rf8/Q/79r/hR/wk+rf8/Q/79r/hXB9Un3R1e3iekUV5v/wk+rf8/I/79r/hR/wk+rf8/Q/79r/hR9Un3QvbxPSKK83/AOEn1b/n6H/ftf8ACj/hJtW/5+h/37X/AAo+qT7oPbxPSKK83/4SfVv+fkf9+1/wo/4SfVv+fkf9+1/wo+qT7oft4npFFeb/APCT6t/z8j/v2v8AhR/wk+rf8/Q/79r/AIUfVJ90Ht4npFFcp4R1e91G9mju5g6LHuA2Ac5HoK6usKkHTfKzSMlJXQUUUVBQUUUUAFFFFABXJfEPwVZeMNM2SbYdQiB+z3OOVP8Adb1U/p1rraKuE5U5KUXZomUVJWZ8Y65pN7ompzWGpQtDcxHDKehHYg9wfWqFfWHxD8E2XjDTNkm2HUIgfs9zjlT/AHW9VP8A9evl3W9JvdD1OfT9ThaG5iOGU9COxB7g+tfSYTFxxEe0keRXoOk/Io0UUV2GAUUUUAFFFFABRRRQAUUUUAFFFFABRRRQAUUUUAFFFFABXs/7Nn/H/rv/AFyi/m1eMV7P+zZ/x/67/wBcov5tXHj/APd5f11N8L/FR7tRRRXzB7IUUUUAFFFFABRRRQAUUUUAFFFFABRRRQAUUUUAFFFFABRRRQAUUUUAFFFFABRRRQAUUUUAFFFFABRRRQAUUUUAFFFFABRRRQAUUUUAFFFHFABRRxRxQAUUcUcUAFFFHFABRRxRxQAUUcUcUAFFHFFABRRxRQAUUcUUAFFFFABRRRQAV5Pqn/ITu/8Ars//AKEa9Y4ryfVP+Qnd/wDXZ/8A0I12YPdnPiNkVqKSivQOUKMUUUALRSUUAFFFFAC0UlFABRRRQAtJRRQB1HgH/kJXH/XH/wBmFd1XC+AP+Qlcf9cf6iu6ry8V/EO2j8AUUcUVzmoUUUcUAFFHFFABRRxRxQAVyXxD8E2XjDTNkm2HUIgfs9zjlT/db1U//XrreKOKuE5U5KUXZomUVJWZ8Ya5pN7oepzWGpwtDcxHBU9COxB7g+tUa+sPiH4KsvGGmeXJth1CIH7Pcgcqf7reqn/69fLuuaTe6Hqc1hqcLQ3MRwVPQjsQe4PrX0mExccRH+8eRXoOk/Io0UUV2GAUUUUAFFFFABRRRQAUUUUAFFFFABRRRQAUUUUAFe0fs2KTe6838IjhBP4v/hXi9fR3wA0V9O8JTX86lZNQl3rn/nmvC/ruP0IrhzGajQafU6cJG9VPsen0UcUcV80euFFHFHFABRRxRxQAUUUcUAFFHFHFABRRxRxQAUUcUUAFFHFHFABRRRxQAUUcUcUAFFHFHFABRRxRxQAUUcUUAFFHFFABRRxRxQAUUcUUAFFHFHFABRRxRxQAUUcUUAFFFFABRRRQAUUUUAFFFFABRRRQAUUUUAFFFFABRRRQAUUUUAFFFFABRRRQAUUUUAFeUap/yE7v/rs//oRr1euMvPCV1PdzzLcQgSOzAHPGTmurCzjBvmZhWi5JWORorqP+ENu/+fmD9aP+ENu/+fmD9a7PrFPuYeyn2OXorqP+ENuv+fmD9aP+ENuv+fmD9aPrFPuHsp9jl6K6j/hDbv8A5+YP1o/4Q27/AOfmD9aPrFPuHsp9jl6K6j/hDbr/AJ+YP1o/4Q27/wCfmD9aPrFPuHsp9jl6K6j/AIQ27/5+YP1o/wCENu/+fmD9aPrFPuHsp9jl6K6j/hDbr/n5g/Wj/hDbr/n5g/Wj6xT7h7KfY5eiuo/4Q27/AOfmD9aP+ENuv+fmD9aPrFPuHsp9hPAP/ISuP+uX/swruq53w3oM2lXcssssbh02gLn1Broq4MRJSndHVSTjGzCiiisDQKKKKACiiigAooooAKKKKACuS+Ifgqy8YaZ5cm2HUIgfs9zjlT/db1U//XrraKuE5U5KUXZomUVJWZ8Y65pN7oepzafqcLQ3MRwVPQjsQe4PrVCvrL4geCbHxjp4jnPkXsX+oulXJT2I7r7V5v8A8KIn/wCg/H/4CH/4uvfo5lSlG9R2Z5lTCTUvd1R4rRXtX/CiJ/8AoPx/+Ah/+Lo/4URP/wBB+P8A8BD/APF1r/aGH/m/B/5EfVavb8jxWivav+FET/8AQfj/APAQ/wDxdH/CiJ/+g/H/AOAh/wDi6P7Qw/8AN+D/AMg+q1e35HitFe0/8KIn/wCg/H/4CH/4ul/4URP/ANB+P/wEP/xdH9oYf+b8H/kH1Wr2/I8Vor2r/hRE/wD0H4//AAEP/wAXR/woif8A6D8f/gIf/i6P7Qw/834P/IPqtXt+R4rRXtX/AAoif/oPx/8AgIf/AIuj/hRE/wD0H4//AAEP/wAXR/aGH/m/B/5B9Vq9vyPFaK9q/wCFET/9B+P/AMBD/wDF0f8ACiJ/+g/H/wCAh/8Ai6P7Qw/834P/ACD6rV7HitFe1L8CJcjd4gQDvi0P/wAXXS+H/g1oGnSrLqMk+pyLztk+SP8A75HJ/EkVMsyoRV07jjhKreqseU/DPwFd+LNQSe4R4dGibM0xGPMx/AnqfU9vyFfUFtDFbW8UFvGscMShERRgKoGABRbwxW0CQ28SRQoNqIgCqo9AB0qSvExWKliJXeiXQ9GjRVJWW4UUUVymwUUUUAFFFFABRRRQAUUUUAFFFFABRRRQAUUUUAFFFFABRRRQAUUUUAFFFFABRRRQAUUUUAFFFFABRRRQAUUUUAFFFFABRRRQAUUUUAFFFFABRRRQAUUUUAFFFFABRRRQAUUUUAFFFFABRRRQAUUUUAFFFFABRRRQAUUUUAFFFFABRRRQAUUUUAFFFFABRRRQAUUUUAFFFFABRRRQAUUUUAFFFFABRRRQAUUUUAFFFFABRRRQAUUUUAFFFFABRRRQAUUUUAFFFFABRRRQAUUUUAFFFFABRRRQAUUUUAFFFFABRRRQAUUUUAFFFFABRRRQAUUUUAFFFFABRRRQAUUUUAFFFFABRRRQAUUUUAFFFFABRRRQAUUUUAFFFFABRRRQAUUUUAFFFFABRRRQAUUUUAFFFFABRRRQAUUUUAFFFFABRRRQAUUUUAFFFFABRRRQAUUUUAFFFFABRRRQAUUUUAFFFFABRRRQAUUUUAFFFFABRRRQAUUUUAFFFFABRRRQAUUUUAFFFFABRRRQAUUUUAFFFFABRRRQAUUUUAFFFFABRRRQAUUUUAFFFFABRRRQAUUUUAFFFFABRRRQAUUUUAFFFFABRRRQAUUUUAFFFFABRRRQAUUUUAFFFFABRRRQAUUUUAFFFFABRRRQAUUUUAFFFFABRRRQAUUUUAFFFFABRRRQAUUUUAFFFFABRRRQAUUUUAFFFFABRRRQAUUUUAFFFFABRRRQAUUUUAFFFFABRRRQAUUUUAFFFFABRRRQAUUUUAFFFFABRRRQAUUUUAFFFFABRRRQAUUUUAFFFFABRRRQAUUUUAFFFFABRRRQAUUUUAFFFFABRRRQAUUUUAFFFFABRRRQAUUUUAFFFFABRRRQAUUUUAFFFFABRRRQAUUUUAFFFFABRRRQAUUUUAFFFFABRRRQAUUUUAFFFFABRRRQAUUUUAFFFFABRRRQAUUUUAFFFFABRRRQAUUUUAFFFH5UAFFFFABRRRQAUUUUAFFFFABRRRQAUUUUAFFFH5UAFFFFABRRRQAUUUUAFFFFABRRRQAUUUUAFFFFABRRRQAUUUUAFFFFABRRRQAUUUUAFFFFABRRRQAUUUUAFFFFABRRRQAUUUUAFFFFABRRRQAUUUUAFFFFABRRRQAUUUUAFFH5UUAFFFFABRR+VFABRRRQAUUUflQAUUUUAFFFFABRRR+VABRRRQAUUUUAFFFH5UAFFFFABRRRQAUUflRQAUUUUAFFH5UUAFFFFABRRRQAUUflRQAUUUflQAUUUUAFFH5UUAFFFFABRRRQAlLRR3oAKKKKACijtRQAUUUUAFFFFABRRR2oAKKO1HagAooooAKKKKACiiigAooooAKKKKACiigUAFFFFABRRQaACiiigAooooAKKKKACig0UAFFFFABRRRQAUUUUAFFFFABRRRQAUUUUAFFFFABRRRQAUUUUAFFFFABRRRQAUUUUAFFFAoAKKD0ooAKKKKACiiigAooooAKKKDQAUUd6KACiij1oAKKKKACijtRQAUUUUAFFFFABRQKKACiiigAooooAKKKBQAUUUlAC0UUUAFFFFABRRRQAUUUUAFFFFABRRRQB//Z;" vertex="1" parent="1">
          <mxGeometry x="211.74" y="37" width="93.26" height="70" as="geometry" />
        </mxCell>
        <mxCell id="vk7fomVInif-CjgZtPBc-14" value="" style="edgeStyle=orthogonalEdgeStyle;rounded=0;orthogonalLoop=1;jettySize=auto;html=1;" edge="1" parent="1" source="vk7fomVInif-CjgZtPBc-4">
          <mxGeometry relative="1" as="geometry">
            <mxPoint x="440" y="245" as="targetPoint" />
          </mxGeometry>
        </mxCell>
        <mxCell id="vk7fomVInif-CjgZtPBc-4" value="" style="shape=image;verticalLabelPosition=bottom;labelBackgroundColor=default;verticalAlign=top;aspect=fixed;imageAspect=0;image=data:image/jpeg,/9j/4AAQSkZJRgABAQAAAQABAAD//gA7Q1JFQVRPUjogZ2QtanBlZyB2MS4wICh1c2luZyBJSkcgSlBFRyB2NjIpLCBxdWFsaXR5ID0gODAK/9sAQwAGBAUGBQQGBgUGBwcGCAoQCgoJCQoUDg8MEBcUGBgXFBYWGh0lHxobIxwWFiAsICMmJykqKRkfLTAtKDAlKCko/9sAQwEHBwcKCAoTCgoTKBoWGigoKCgoKCgoKCgoKCgoKCgoKCgoKCgoKCgoKCgoKCgoKCgoKCgoKCgoKCgoKCgoKCgo/8AAEQgCigNiAwEiAAIRAQMRAf/EAB8AAAEFAQEBAQEBAAAAAAAAAAABAgMEBQYHCAkKC//EALUQAAIBAwMCBAMFBQQEAAABfQECAwAEEQUSITFBBhNRYQcicRQygZGhCCNCscEVUtHwJDNicoIJChYXGBkaJSYnKCkqNDU2Nzg5OkNERUZHSElKU1RVVldYWVpjZGVmZ2hpanN0dXZ3eHl6g4SFhoeIiYqSk5SVlpeYmZqio6Slpqeoqaqys7S1tre4ubrCw8TFxsfIycrS09TV1tfY2drh4uPk5ebn6Onq8fLz9PX29/j5+v/EAB8BAAMBAQEBAQEBAQEAAAAAAAABAgMEBQYHCAkKC//EALURAAIBAgQEAwQHBQQEAAECdwABAgMRBAUhMQYSQVEHYXETIjKBCBRCkaGxwQkjM1LwFWJy0QoWJDThJfEXGBkaJicoKSo1Njc4OTpDREVGR0hJSlNUVVZXWFlaY2RlZmdoaWpzdHV2d3h5eoKDhIWGh4iJipKTlJWWl5iZmqKjpKWmp6ipqrKztLW2t7i5usLDxMXGx8jJytLT1NXW19jZ2uLj5OXm5+jp6vLz9PX29/j5+v/aAAwDAQACEQMRAD8A+qaKKKACiiigAooooAKKKKACiiigAooooAKKKKACiiigAooooAKKKKACiiigAooooAKKKKACiiigAooooAKKKKACiiigAooooAKKKKACiiigAooooAKKKKACiiigAooooAKKKKACiiigAooooAKKKKACiiigAooooAKKKKACiiigAooooAKKKKACiiigAooooAKKKKACiiigAooooAKKKKACiiigAooooAKKKKACiikoAWiiigAooooAKKKKACiiigAooooAKKKKACiiigAooooAKKKKACiiigAooooAKKKKACiiigAooooAKKKKACiiigAooooAKKKKACiikoAWiiigAooooAKKKKACiiigAooooAKKKKACiiigAooooAKKKKACiiigAooooAKKKKACiiigAooooAKKKKACiiigAooooAKKKKACiiigAooooAKKKKACiiigAooooAKKKKACiiigAooooAKKKKACiiigAooooAKKKKACiiigAooooAKKKKACiiigAooooAKKKKACiiigAooooAKKKKACiiigAooooAKKKKACiiigAooooAKKKKACiiigAooooAKKKKACiiigAooooAKKKKACiiigAooooAKKKKACiiigAooooAKKKKACiiigAooooAKKKKACiiigAooooAKKKKACiiigAooooAKKKKACiiigAooooAKKKKACiiigAooooAKKKKACiiigAooooAKKKKACiiigAooooAKKKKACiiigAooooAKKKKACiiigAooooAKKKKACiiigAooooAKKKKACiiigAooooAKKKKACiiigAooooAKKKKACiiigAooooAKKKKACiiigAooooAKKKKACiiigAooooAKKKKACiiigAooooAKKKKACiiigAooooAKKKKACiiigAooooAKKKKACiiigAooooAKKKKACiiigAooooAKKKKACiiigAooooAKKKKACiiigAooooAKKKKACiiigAooooAKKKKACiiigAooooAKKKKACiiigAooooAKKKKACiiigAooooAKKKKACiiigAooooAKKKKACiiigAooooAKKKKACiiigAooooAKKKKACiiigAooooAKKKKACiiigAooooAKKKKACiiigAooooAKKKKACiiigAooooAKKKKACiiigAooooAKKKKACiiigAooooAKKKKACiiigAooooAKKKKACiiigAooooAKKKKACiiigAooooAKKKKACiiigAooooAKKKKACiiigAooooAKKKKACiiigAooooAKKKKACiiigAooooAKKKKACiiigAooooAKKKKACiq95e2tlH5l5cwwJ/elcKP1rAuvHfh23JDaisjDtEjN+oGKuNOc/hVyXOMd2dPRXGH4keHv+etx/35NH/CyPD/8Az1uf+/JrT6tV/lZPtodzs6K4z/hZHh//AJ63P/fk0f8ACyPD/wDz1uf+/Jo+rVf5WHtodzs6K4z/AIWR4f8A+etz/wB+TR/wsjw//wA9bn/vyaPq1X+Vh7aHc7OiuM/4WR4f/wCetz/35NH/AAsjw/8A89bn/vyaPq1X+Vh7aHc7OiuM/wCFkeH/APnrc/8Afk0f8LI8P/8APW5/78mj6tV/lYe2h3OzorjP+FkeH/8Anrc/9+TR/wALI8P/APPW5/78mj6tV/lYe2h3OzorjP8AhZHh/wD563P/AH5NH/CyPD//AD1uf+/Jo+rVf5WHtodzs6K4z/hZHh//AJ63P/fk0f8ACyPD/wDz1uf+/Jo+rVf5WHtodzs6K4z/AIWR4f8A+etz/wB+TR/wsjw//wA9bn/vyaPq1X+Vh7aHc7OiuM/4WR4f/wCetz/35NH/AAsjw/8A89bn/vyaPq1X+Vh7aHc7OiuM/wCFkeH/APnrc/8Afk0f8LI8P/8APW5/78mj6tV/lYe2h3Ozork7X4geHbhwpvGiJ6ebEwH54xXTWt1BdwrNazRzRN0eNgwP4is505w+JWKjOMtmTUUUVBQUUUUAFFFFABRRRQAUUUUAFFFFABRRRQAUUUUAFFFFABRRRQAUUUUAFFFFABRRRQAUUUUAFFFFABRRRQAUUUUAFFFFABRRRQAUUUUAFFFFABRRRQAUUUUAFFFFABRRRQAUUUUAFFFFABRRRQAUUUUAFFFFABRRRQAUUUUAFFFFABRRRQAUUUUAFFFFABRRRQAUUUUAFFFFABRRRQAUUVyvjjxdb+HLYRxhZtRkGY4uyj+83t7d6uEJVJcsdyZSUVdmvruuafoVr5+oziMH7iDl3PoBXlXiH4k6lfM0WlqLG36bvvSH8eg/D8643U9RutTvHur+Zpp36s3b2A7D2qrXs0MDCnrPVnn1cTKWkdES3NzNdStLczSTSnq8jFifxNRUUV3bHMFFFFABRRRQAUUUUAFFFFMAoozRSAKKKKACiiigAoozRQAUUUUwCiiikAUUUUAFaOia1f6JdifTp2jb+JOquPQjvWdRSlFSVmCbTuj6E8HeJrfxJp3mxgR3UeBNDn7p9R7Gugr528G6y+h6/bXQYiEt5cw9UPX8uv4V9Eg5GR0rwcZh/Yz02Z6mHq+0jrugooorkNwooooAKKKKACiiigAooooAKKKKACiiigAooooAKKKKACiiigAooooAKKKKACiiigAooooAKKKKACiiigAooooAKKKKACiiigAooooAKKKKACiiigAooooAKKKKACiiigAooooAKKKKACiiigAooooAKKKKACiiigAooooAKKKKACiiigAooooAKKKKACiiigAooooAKKKbI6xxs8jBUUEsxOAB60AY/i7XofD2jyXcmGlPyQxk/fft+Hc18+6heT6heS3V3I0k8rbmY/56Vt+PPETeIdaeSMkWcOUgX27t9T/hXN17+Dw/sYXe7PLxFX2krLZC0UlFdhzi0UlFAC0UlFAC0UlFAC0UlFAC0UlFAC0UlFAC0UlFAC0UlFAC0UlFAC0UlFAC0UlFAC0UlFAC0UlFAC19J+HJWn8PaZK5JZ7WJj9Sgr5rr6Q8Kf8AIr6R/wBecX/oArzMz+GJ24PdmrRRRXjneFFFFABRRRQAUUUUAFFFFABRRRQAUUUUAFFFFABRRRQAUUUUAFFFFABRRRQAUUUUAFFFFABRRRQAUUUUAFFFFABRRRQAUUUUAFFFFABRRRQAUUUUAFFFFABRRRQAUUUUAFFFFABRRRQAUUUUAFFFFABRRRQAUUUUAFFFFABRRRQAUUUUAFFFFABRRRQAUUUUAFFFFABXm3xb8S/Z7f8AsWzf97KA1wwP3U7L+Pf2+tdl4q1uHQNGmvZcM4+WJCfvueg/qfYV88Xt1Ne3c1zcuXmlYu7HuTXoYDD88vaS2X5nJiqvKuVbshooor2jzgooooAKKKKBhRRRQAUUUUAFFFFABRRRQAUUUUAFFFFABRRRQAUUUUAFFFFABRRRQAUUUUAFFFFABX0f4U/5FfSP+vSL/wBAFfOFfR/hT/kV9I/684v/AEAV5uZfDE7MH8TNWiiivHO8KKKKACiiigAooooAKKKKACiiigAooooAKKKKACiiigAooooAKKKKACiiigAooooAKKKKACiiigAooooAKKKKACiiigAooooAKKKKACiiigAooooAKKKKACiiigAooooAKKKKACiiigAooooAKKKKACiiigAooooAKKKKACiiigAooooAKKKKACiiigAooooAKRiFUljgAZJPalrzz4seJfsVl/ZFm+Lm4XMzA/cj9Pqf5fWtKVJ1ZqCIqTUI8zOH+IXiM6/rJEDH7DbkpCOzer/j/LFctRSV9JCCpxUY7I8iUnJ3YtFJRVCFopKKAFopKWgAopKWgAopKKAFopKKAFoq5Y6Xd33+ohYp/fbhfzrdtfCgwDdXPPdYx/U/4VEqkY7spQb2OWoru4vDunRjmJnPqzn+lT/2Lp3/AD6p+ZrP6xEr2TPPaK76TQNNcf8AHvtPqrkf1rPufCsDAm2ndD6OAw/pTVeLB0pHI0Vp32h3toCxj8yMfxR8/p1rMrVNPYzaa3CikoqgFopKKAFopKKBC0UlFIYtFJRTAWvo/wAKf8ivpH/XnF/6AK+b6+kPCn/Ir6R/15xf+gCvMzP4YnZg/iZq0UUV453hRRRQAUUUUAFFFFABRRRQAUUUUAFFFFABRRRQAUUUUAFFFFABRRRQAUUUUAFFFFABRRRQAUUUUAFFFFABRRRQAUUUUAFFFFABRRRQAUUUUAFFFFABRRRQAUUUUAFFFFABRRRQAUUUUAFFFFABRRRQAUUUUAFFFFABRRRQAUUUUAFFFFABRRRQAUUUUAFFFBOBk0AZniPWINC0ie+uMHYMImeXc9FFfO2pXs+o3093dPvnmYsx/oPaun+JHiQ67q5htnzYWpKx46O3dv6D2+tchXvYLD+yhzS3Z5mIq88rLZCUUtFdpzCUUUtACUUtFACUUtFACUUtFACUUtS2ltLd3CQwLudjgf40r2GJbwS3EyxQoXkboBXXaT4chtwsl7iaXrs/hX/GtHSNLh02Dag3SsPnkxyf/rVfrkqVm9Im8KdtWIAAAAAAOgFLRRWBqFFFFABRRRQAVlapolrfguAIp/76jr9R3rVopqTi7oTSe55vqNhPp83l3C4z91h0b6VUr028tYryBobhAyH8wfUVwOsabLptzsf5o25R/Uf412U6qno9znnDl1RQooorYzCiiloASiiigAooooAK+kPCn/Ir6R/15xf+gCvm+vpDwp/yK+kf9ecX/oArzMz+GJ2YP4matFFFeOegFFFFABRRRQAUUUUAFFFFABRRRQAUUUUAFFFFABRRRQAUUUUAFFFFABRRRQAUUUUAFFFFABRRRQAUUUUAFFFFABRRRQAUUUUAFFFFABRRRQAUUUUAFFFFABRRRQAUUUUAFFFFABRRRQAUUUUAFFFFABRRRQAUUUUAFFFFABRRRQAUUUUAFFFFABRRRQAVwXxU8S/2bp39mWj4vLpfnIPKR9/xPT8663XdUg0bSp766PyRLwvdm7KPcmvnbV9QuNV1Ge9u23TTNuPoPQD2A4rvwOH9pLnlsjlxNXkXKt2VKKKK9s84KKKKACiiigAooopgFFFFIAooooAK7rw3pYsLUSSr/pEgy3+yPSue8LWP2vUBI4zFD8x9z2H9fwruq5q8/so2pR6iUUtFcxsJRS0UAJRS0UAFJS0UAFJS0UAJVXU7KO/tHhlHXlW/un1q3RQnZ3QNXPMLmB7a4khlGHQ4IqOur8ZWOUjvUHI+ST6dj/T8q5OvQhLmVzklHldgpaSlqxBRSUUALRSUUAFfSHhT/kV9I/684v8A0AV8319IeFP+RX0j/rzi/wDQBXmZn8MTswfxM1aKKK8c7wooooAKKKKACiiigAooooAKKKKACiiigAooooAKKKKACiiigAooooAKKKKACiiigAooooAKKKKACiiigAooooAKKKKACiiigAooooAKKKKACiiigAooooAKKKKACiiigAooooAKKKKACiiigAooooAKKKKACiiigAooooAKKKKACiiigAooooAKKK4j4n+Jf7I0v7DaPi+u1IyDzHH0LfU9B+PpWlKm6klCPUmc1CPMzhvid4l/tnVfsdq+bG0YgEHiR+hb6dh+PrXF0lFfR06apxUY9DyJzc5czFopKKsgWikooAWikooAWikooAWikooAWikpVBYgDqeBQB3fha2FvpKMR88x3n6dv0/nWxUcEYhgjjXoihR+Ap9efJ3bZ2JWVhaSiipGLRSUUALSUUUALRSUUALRSUUALRSUUAQ30C3VnNA3R1I+h7GvNGUqxVuGBwRXqNeea/F5OsXSDoX3fnz/AFrpw73RjWXUoUUlFdRgLRSUUgFopKKYC19H+FP+RX0j/rzi/wDQBXzfX0h4U/5FfSP+vOL/ANAFeZmfwxOzB/EzVooorxz0AooooAKKKKACiiigAooooAKKKKACiiigAooooAKKKKACiiigAooooAKKKKACiiigAooooAKKKKACikpaACiikoAWikpaACiiigAopKWgAooooAKKKKACiiigAoopPyoAWivLPHHxYttMmksvD8cd5cqdr3DnMSH0GPvH9PrXlepeOvE2oSFptYu0B/hgfygPwXFd9HLqtRcz0RzVMVCDstT6nor5I/4SPXP+gzqX/gU/+NH/AAkeuf8AQZ1L/wACn/xrf+yZfzGX11dj63or5I/4SPXP+gzqX/gU/wDjR/wkeuf9BnUv/Ap/8aP7Jl/MH11dj63or5I/4SPXP+gzqX/gU/8AjR/wkeuf9BnUv/Ap/wDGj+yZfzB9dXY+t6K+SP8AhI9c/wCgzqX/AIFP/jR/wkeuf9BnUv8AwKf/ABo/smX8wfXV2Preivkj/hI9c/6DOpf+BT/40f8ACR65/wBBnUv/AAKf/Gj+yZfzB9dXY+t6K+SP+Ej1z/oM6l/4FP8A40f8JHrn/QZ1L/wKf/Gj+yZfzB9dXY+t6K+SP+Ej1z/oM6l/4FP/AI0f8JHrn/QZ1L/wKf8Axo/smX8wfXV2Preivkj/AISPXP8AoM6l/wCBT/40f8JHrn/QZ1L/AMCn/wAaP7Jl/MH11dj63or5I/4SPXP+gzqX/gU/+NH/AAkeuf8AQZ1L/wACn/xo/smX8wfXY9j63or5I/4SPXP+gzqX/gU/+NH/AAkeuf8AQZ1L/wACn/xo/smX8wfXV2PqvWNRt9J02e9u22xQruPqT2A9yeK+ddc1SfWdUnvro5klbIHZR2UewFULe+1K5tQNQ1C8uFYhgk0zOB6HBPWlrpw2EVC7buzGtX9rbsFFFFdZgFJS0UAFJS0UAFFFFACUtFFABSUtFMBKsWADX1uvrIo/WoKms22XkDHosin9aT2BHplFLRXmnYJRS0UAJRS0lABRS0lABRS0UAJRS0lABRS0UAJXDeLQBrLn1RT+ld1XCeLG3a1KP7qqP0z/AFrah8RnV+ExqKWiu05xKKWigBKKKWgBK+kPCn/Ir6R/15xf+gCvm+vpDwp/yK+kf9ekX/oArzMz+GJ2YP4matFFFeOd4UUUUAFFJRQAtFFJQAtFFJQAtFJRQAtFFFABRRRQAUUUlAC0UUlAC0UflRQAUUUUAFFFFABRSUtABRRRQAUUlLQAUUUUAFFJS0AFFFJQAtFFFABRRRQAUUlLQAUUUUAFeV/G7xbJplnHomnyFLm6TfO6nBSLpt+rc/gPevVK+V/iNfvqPjfWZnOQtw0K+yp8g/8AQa78uoqpVvLZHNiqjhCy6nN0UUV9EeSFFFFABRRRQAUUUUAFFFFABRRRQMKKKKBBRRRQAUUUUAFFFFABVzTbbz5dzD92vJ9z6VViRpZFRBlicV0NvCIIlRe3U+pqZOw0S0UUlZFi0UUUAFFFJQAtFFFABRRRQAUUUUCCiiigYUUlLQB6bZTfaLSGYfxoG/SpqwfCF0JtOMBPzwtj8DyP61vV581yyaOuLurhRSUVIxaKSigBaKSigBaKKSgBaKKSgBaKKSgBa841ibz9UupByC5A+g4Fd3q10LPTpps4YLhfqeBXnFdOHjuzGq+gUUlFdJiLRRSUwFopKKAFr6P8Kf8AIr6R/wBecX/oAr5vr6Q8Kf8AIr6R/wBecX/oArzMz+GJ2YP4matFFJXjneLRRRQAUUlLQAUUUUAFFJRQAtFFJQAtFJS0AFFFFABRRSUALRRRQAUUlLQAUUUUAFFFFABRRRQAUUUUAFFFFABRRRQAUUUUAFFFFABRRRQAUUUUAFFFFABRRRQAV8j+K/8AkaNY/wCvyb/0M19cV8j+K/8AkaNY/wCvyb/0M162U/FI4cbsjLooor2zzwooooAKKKKACiiigAooooAKKKSgBaKKKACiiigAooooAKKKtadbefNlv9WvJ9/ahuwF7Srby4/NcfM3T2FX6KKxbuUFFFFAwooooAKKWkoEFFFFAwooooEFFLSUAFFFFABRRS0DNHQb77BqCOx/dN8j/T1r0EHIyOQa8srr/CuqiWMWU7fvEH7sn+Ien4VzV4X95GtKVtDpKKKK5TcKKKKACiiigAooooAKKKKACiiszXdTXTrU7SDO/CL/AFppNuyBuyuzC8YX/mzraRnKxfM+O7en4f1rnKc7F3LMSWJySe5ptehCPKrHJJ8zuFFFFUIKKKKACiiigAr6Q8Kf8ivpH/XpF/6AK+b6+kPCn/Ir6R/15xf+gCvMzP4YnZg/iZq0UUV453hRRRQAUUUUAFFFFABRRRQAUUUUAFFFFABRRRQAUUUUAFFFFABRRRQAUUUUAFFFFABRRRQAUYoooAKKKKACiiigAooooAKMUUUAGKMUUUAFFFFABRRRQAUUUUAFfI/iv/kaNY/6/Jv/AEM19cV8j+K/+Rp1j/r8m/8AQzXrZT8UjhxuyMuiiivbPPCikpaACiiigAooooAKKSigBaKSigBaKKSgBaKKKACiikoAfGhkdVUZYnArobWEQQqi/Un1NUtJtti+c4+Zvu+wrSrOTvoNIKKSlqCgooooAKKKSgBaKKSgBaKSigBaKSigBaKKKACiiigAopKWgApUZkcMhKspyCD0ptFAHb6BriXqrBcsFuRwD0D/AP163K8tBwcjrXRaT4kkgCxXwMsfQSD7w+vrXNUo9Ym0KnRnYUVBaXcF3HvtpVkHt1H1Hap65mrGwUUtJQAUUUUAFFNlljhQvK6og6sxwK5zVfEyIDHp43t08xhwPoO9VGDlsJyUdzV1fVIdNhy53TEfJGDyf8BXB3t1LeXDzTtudvyA9BTJpZJ5Wkmcu7ckk1HXZTpqHqc05uQtFJS1oSFFJRQAtFJRQAtFJRQAtfR/hT/kV9I/684v/QBXzfX0h4U/5FfSP+vSL/0AV5uZfDE7MH8TNXFFFFeOd4UUUUAFFFFABRiiigAxRRRQAUlLRQAUYoooAKMUUUAFGKKKACiiigAooooAKKKKACiiigAooooAKKKKACiiigAooooAKKKKACiiigAooooAKKKKACiiigAooooAK+R/Ff8AyNOsf9fk3/oZr64r5H8V/wDI0ax/1+Tf+hmvWyn4pHDjdkZVLRRXtnnhRRRQAlFLRQAUlLRQAlFLRQAUUUUAJS0UUAFJS0UAJVqwt/tEwyPkXlv8Kropdgqgkk4ArobSAW8IQdepPqamTsCJRwMAcUUtFZFiUUtFMBKKWikAlFLRTEJRS0UgEopaKBiUUtFACUUtFAhKKWigYlFLRQAlFLRTASilooAdFI8Th4nZGHQqcGte18SX8IAdkmX/AGxz+YrGoqXFS3Gm1sdXF4sXH720IPqr5/pUw8VWmOYJ/wAh/jXHUVn7GBXtJHWyeLIgP3dq7H/aYD/Gs+58UXkgIhSOEeoG4/rx+lYVFNUoLoJ1JPqS3N1PdPuuJXkP+0c4qGlorTYkSilooASilopgJRS0UAJRS0UgEopaKYCV9IeFP+RX0j/rzi/9AFfOFfR/hT/kV9I/684v/QBXmZn8MTswfxM1aKKK8c7wooooAKKKKACiiigAooooAKKKKACiiigAooooAKKKKACiiigAooooAKKKKACiiigAooooAKKKKACiiigAooooAKKKKACiiigAooooAKKKKACiiigAooooAK+SPFf/ACNGsf8AX5N/6Ga+t6+SPFf/ACNGsf8AX5N/6Ga9bKfikcON2RlUUUV7Z5wUUUUAFFFFABRRRQAUUUUAFFFFABRRRQAUUVYsrc3E4X+AcsfagZd0m2wPPccnhf8AGtOkAAAAGAOlLWLdygooooGFFFFIAooooAKKKKAD8qKKKACiiigAooqxBBuG5+h6CjYCvRT5YzG2D07GmUAFFFFABRRRQAUUUUAFFFFABRRRQAUUUUwCiiigAooopAFJS0UwCiiigAooopAFFFFAB+VFFFABX0h4WBXwzpAI5FpF/wCgCvnGNGkkVEGWYgAepNfTlnCLazggXpFGqD8BivMzN6RR2YNatk1FFFeQd4UUUUAFFFFABRRRQAUUUUAFFFFABRRRQAUUUUAFFFFABRRRQAUUUUAFFFFABRRSUALRSUUALRSUUALRSUUALRSUUALRSUUALRRSUALRSUUALRRSUALRRRQAUUUUAFfJHiv/AJGjWP8Ar8m/9DNfW1fJPiv/AJGjWP8Ar8m/9DNetlPxSOHG7IyqKKK9s84KKKKACiiigAooooAKKKKACiiigAooooAVQWYAAkngCt+ytxbwhf4jyx96paTbf8t3Hsv+NatZyfQpIKKKKgoKKKKACiiigAooooAKKKKACiiigAooqzbwZwzjjsKL2ALeHOGccdhVqkoqG7lCOodcMOKoyxmNsHp2NX6R1DrhhxTTsKxnUU+WMxtg9OxplUIKKKKACiiigAooooAKKKKACiiigAooooAKKKKACiiigAooooAKKKKACiiigAooooA6T4d6adT8WWSFcxQN9ok9gvI/XA/GvoCuD+E2hHTtGbULhcXF7gqD1EY6fn1/Ku7rwcdV9pVstloenhocsNeotFFJXGdAtFFFABRRRQAUUlLQAUUlFAC0UlFAC0UlFAC0UUlAC0UUlAC0UlFAC0UlLQAUUUUAFJS0lABRS0UAFJS0UAJRRS0AJRS0UAJRS0UAFJS0UAJS0UlAC0UUUAFFFFABRRRQAlfJHiv/AJGnWP8Ar8m/9DNfXFfI/iv/AJGjWP8Ar8m/9DNetlPxSOHG7Iy6KKK9s88KKKKACiiigAooooAKKKKACiiigAqazgNxMFH3erH0FQgZIA5JrfsbcW8IB++eWNKTsCLCqFUKowBwBS0lFZFi0UUlAC0lLRSAKKKKYCUUUtACUtFJQAtJRVq3hzhn6dhSuAlvBnDP+Aq3RRUN3GFFFFAwooooAa6h1IbpVGWMxtg9Oxq8zBVJY8VRmlMh9B2FOImMopKWrEFJRRQAUUUUhC0lLSUxhS0UlABS0lFAC0UlFABRRRQIKKKWgYUlFFABRRRQIWus+H3hd/EGpiW4UjToGBlb++eyD+vt+FReDfCF54inEhDQaep+ecjr7L6n9BXuWmWFtpljFaWUQigjGAo/mfU15+Mxaprkhv8AkdWHoOb5pbFlVVVCqAFAwAB0paWivEPSCkpaKACkpaKACkpaKAEpaKKACkpaKACkoooAWkpaKACkpaKAEpaKKACiiigBKWiigAooooAKKKKACiiigAooooAKKKKACiiigAooooAKKKKACiiigAooooAKKKKACiiigAr5H8V/8jRrH/X5N/6Ga+uK+TfGttPaeLdXjuYnic3UjgMMZUsSD9CCDXrZU/fkcON+FGLRRRXtnnBRRRQAUUUUAFFFFABRRRQAUUVNawm4mCDp1J9BQMuaTbbm85xwPu/X1rWpqKEQKowoGAKdWLd2UgooopDCiiigAoo/CigAooooAKKKKACiirNvBnDuPoKL2AS3hzhnHHYVbpKKhsoWikooAWkoooAWmswUEngUMwUZbGKpSymRvbsKaVxMJpTI3t2FR0UVQgooooAKKKKACiiigAooooAKKKKACiiigAooooAKKKKACiiigAoorpPCvg/UfELh408izz81xIOP+Aj+I/p71M5xguaTshxi5OyOftoJrqdILaJ5ZnOFRASSfpXqPhH4bKmy68Q/M3VbVDwP98jr9B+ddp4a8M6d4eg22UW6YjDzvy7fj2HsK268jEY+U/dp6I76WFUdZ6jIYo4YlihjWONBhUUYAHoBT6KK846wooooAKKKKACiiigAooooAKKKKACiiigAooooAKKKKACiiigAooooAKKKKACiiigAooooAKKKKACiiigAooooAKKKKADNFFFABRmiigAooooAKKKKACiiigAooooAKKKKADNcl8QfBlp4s0/nbDqMQPkXGP8Ax1vVT+nX69bRVwnKnJSi9SZRUlZnx/q2m3ekahNZahC0NzEcMrfzHqD61Tr6f+IPgu08Wafg7YdRiB8i4x/463qp/Tr9fmzV9Nu9I1Cay1CFobmI4ZW/mPUH1r6PCYuOIj5nk16DpPyKdFFFdZiFFFFAgooooGFFFFAAAa3tPtvs8PP+sblv8Ko6Tbb385x8qn5fc1r1En0GkLRSUVmULRSUUwFopKKQC0UlFAC0UlFMBaKSrVvB0Zx9BSegBbw5wzj6CrNLRUNjEpaKKBiUtFFACUjMFXJOBQ7BVJY8VRmlMje3YU0riYTSmRvQdhTKSiqELRSUUwFopKKAFopKKAFopKKQhaKSimMWikooAWikooELRSUUDFopKKAFqaytLi+uUt7SF5p3OFRBkmuj8J+CtR19lmYG1sO8zj73+6O/16V7J4e8PafoFt5VhCA5Hzyty7/U/wBOlcWIxsKWi1Z0UsPKer0RxvhH4bw2+y61/bNN1Fspyi/7x/i+nT616PGixoqRqqoowFUYAFOorxqtadV3mz0IU4wVohRRRWRYZooooAKKKKADNFFFABRRRQAUUUUAGaKKKACiiigAooooAKM0UUAFFFFABRmiigAooooAKKKKACiiigAooooAKKKKACiiigAooooAKKKKACiiigAooooAKKKKACiiigAooooAKKKKACiiigArkviD4LtPFmn4O2HUYgfIuMf+Ot6qf06/XraKuE5U5KUXqTKKkrM+P9X0270jUJrHUIWhuYjhlb+Y9QfWqdfT/wAQfBlp4t0/B2w6jED5Fxj/AMdb1U/p1+vzXq+m3ekahNY6hC0NzEcMrfzHqD619HhMXHER8zyq9B0n5FSiiiuswCkpaSgBaKSlBwRQB0kEYihRB/CKfQCCAR0PNLWJQlFLRSGJS0UUAJRS0UAJRS0UAJRS1Zt4f4n/AAFF7AJbwfxOPoKtUtFQ3cYlFLRQMSilooASkZgqkseKHYKpJ6VRmlMjeg7CmlcVwmlMje3YVHS0VQhKKWigBKKWigBKKWigBKKWigBKKWigBKKWigBKKWkoAKKWigBKKWuv8JeBb/XNlxc5tLA8+Yw+Zx/sj+p4+tRUqRprmk7FRg5u0TmdOsLrUrpLaxgeeduioM/ifQe9eseEfhzbWOy61vZdXPUQjmNPr/eP6fWuw0LRLDQ7XyNOgWMH7znl3PqT3rTrx8RjpVPdhojvpYZR1lqxFAUAKAAOABS0UVwHUFFFFABRRRQAUUUUAFFFFABRRRQAUUUUAFFFFABRRRQAUUUUAFFFFABRRRQAUUUUAFFFFABRRRQAUUUUAFFFFABRRRQAUUUUAFFFJQAtFJS0AFFFFABRRRQAUUUUAFFFFABRRRQAUUUUAFFFFABRRRQAUUUUAFcn8QfBdp4t0/B2w6jED5Fxj/x1vVT+nX69ZRVwnKnJSi9SZRUlZnx9q+m3ekahNY6hC0NzEcMp/mPUH1qnX1B8QPBlp4t0/B2w6jED5Fxj/wAdb1U/p1+vzZq+m3ekahNY6hC0NzEcMp/mPUH1r6PCYuOIj5nlV6LpPyKVFLRXWYCUUtFAG3pdwJYAhPzpx+FXKw9Itbu91GC206J5bqVtqIvUn/Cu48TeGNR8OvCL9VZJVBEseSm7HK/UVhOUYyUb6stRbV7aGJSUtFAhKKWimMSilopCEopas28PRnH0FF7DC3h6M4+gqzS0VDdyhKKWigBKKWigBKRmCqSeBSswVcnpVGaUyN7dhTSuJsSaUyN7dhUdLRVCEopaKBCUUtFMBKKWigBKWiikAlFLRTGJRS0UAJRS0UAJRS0UAJV3StMvNWu1ttPgeaY9lHAHqT0A9zXVeEfAF9rGy51DfZ2J5GR+8kHsOw9z+tev6NpNjo1oLfTrdYo+5H3mPqT1JrhxGOjT92OrOmlhpT1lojkvCPw8s9M2XOq7Ly8HITH7uM/T+I+5/Ku8Ax0oorxqlWVV802d8IRgrRCikpazLCikpaACiiigAooooAKKSloAKKKKACiiigAooooAKKKKACiiigAooooAKKKSgBaKKKACiiigAoopKAFooooAKKKKACiiigAooooASloooAKKKKACiiigAooooAKKKKACiiigAooooAKKKKACiiigAooooAKKKKACiiigAooooAK5P4geDLTxZp2Dth1GIHyLjHT/AGW9VP6dfr1lFXCcqclKL1JlFSVmfH+r6bd6RqM1jqELQ3MRwyn+Y9QfWqdfUHxA8GWnizT8HbDqMQPkXGOn+y3qp/Tr9fmvV9Nu9I1Gax1CFobmI4ZT/MeoPrX0eExccRHzPJr0HSfkU6s6bY3OpX0NnYwtNczNtRFHJP8AnvRptjc6lfQ2djC01zM21EUck/5719IfDrwRbeFLHzJdk2qyr++mxwo/uL7fz/IB4rFRw8fPogo0XVfkHw68D23hSx8yXZNqsy/vpscKP7i+3v3/ACA6jVNPtdUsZbS+iEkEgwQe3uPQ1bor5ydWU588nqetGEYx5UtD588ZeF7nw3fbXzLZyE+TNjr7H0Nc9X0zqmn22qWMtpfRCSCQYIPb3Hoa8I8ZeF7nw3fbXzLZyE+TNjr7H0NexhMWqq5Z/F+Z59ehye9HY52iiiu45gooqzbw/wATj6Ci9gC3h6M4+gqzS0VDdxiUUtFAxKKWigBKRmCqSeBSuwUEnpVGaUyN6DsKaVxXCaUyH0HYVHRRVCCiiigAooooAKKKKACiiigAooooAKKKKACiiigAoorK1DV44cpb4kk9f4R/jTSbFexfubiK2j3zOFHb1P0rt/gatprWs6nLdWqP9kSNod/OCS2TjpngfSvGZ5pJ5C8zlmPc17H+zZ/x/wCu/wDXKL+bVjjY8uHk1v8A8E0w7vVSPdqKKK+aPYCiiigAooooAKKKKACiiigAooooAKKKKACiiigAooooAKKKKACiiigAooooAKKKKACkpaKACiiigAooooAKKKKACiiigAooooAKKKKACiiigAooooAKKKKACiiigAooooAKKKKACiiigAooooAKKKKACiiigAooooAKKKKACiiigAooooAKKKKACud8W+D9J8UxxjU4XE0fCTxHbIo9M85HsQa6KiqhOUHzRdmKUVJWZzXhHwVo/hbzH06KR7iQbWnmYM+PQcAAfQV0tFFE5ym+aTuwjFRVkFFFFSMKqapp9tqljLaX0QlgkGCD29x6GrdFNNp3QNX0Z8++MvC9z4bvtr5ls5D+5mx19j6Gudr6a1TT7bVLGW0vohLBIMEHt7j0NeBa5o0elavcQRXC3MCNhJB39j7ivcwmK9quWW6PMr0PZu62Mu3h/icfQVZpaK6m7mAUlLRQMKTmlooAKazBVyxwKVmCqS3AqjNKZG9B2FNK4mxJpTI3t2FMooqhBRRRQAUlLRQAUUUUAFFFFABRRRQAUUUUAFFFBOBknigAqC6uorWPdMwHoO5+lZ2oaykWUtcO/wDf7D/GsGaV5pC8rFmPc1pGF9yXIu6hqk11lE/dxf3R1P1rPoorVK2xAV7P+zZ/x/67/wBc4v5tXjFez/s2f8f+u/8AXOL+bVx4/wD3eX9dTfC/xUe7UUUV8weyFFFFABRRRQAUUUUAFFFFABRRRQAUUUUAFFFFABRRRQAUUUUAFFFFABRRRQAUUUUAFFFFABRRRQAUUUUAFFFFABRRRQAUUUUAFFFFABRRRQAUUUUAFFFFABRRRQAUUUUAFFFFABRRRQAUUUUAFFFFABRRRQAUUUUAFFFFABRRRQAUUUUAFFFFABRRRQAUUUUAFFFFABRRXCeM/FOPMsNMk5+7LMp/8dX+prSlSlVlyxInNQV2HjPxTjzLDTX5+7LMp/8AHV/qa4KRFdSrDINLRXs0qUaUbRPPnNzd2ZVxA0LeqnoaixWy6B1KsMg1l3EDQtzyp6GuiMrmTRFRRRVCCmsQqkseKGYKpJPFUppTI3oOwppXE2E0hkPoB0FR0UVQgooooAKKKKACiiigAooooAKKKKACiiimIKKQkAEkgAdSaxtQ1lUzHaYZv756D6etCTewN2NK8u4bRN0rc9lHU1zl/qU12Sv3Iv7oPX61Tkd5HLyMWY9SabW0YJEN3CiiiqEFFFFABXs/7Nn/AB/67/1zi/m1eMV7P+zZ/wAf+u/9cov5tXHj/wDd5f11N8L/ABUe7UUUV8weyFFFFABRRRQAUUUUAFFFFABRRRQAUUUUAFFFFABRRRQAUUUUAFFFFABRRRQAUUUUAFFFFABRRRQAUUUUAFFFFABRRRQAUUUUAFFFFABRRRQAUUUUAFFFFABRSUtABRRRQAUUUUAFFFFABRRRQAUUUUAFFFFABRRRQAUUUUAFFFFABRRRQAUUUUAFFFFABRRRQAUUUUAcJ4z8UYMmn6a/P3ZZVP5qP6muDr0Xxl4XF2HvtOTFx1kiH/LT3Hv/ADrzsggkHgivYwrhye58zz6/Nze8JRRRXSYhSOiupVhkGlooAyriBoW9VPQ1AzBVyx4ro7Owl1K4S1t4zJI/GPT3PpWd4y8N3vh+6RbjEtrJ/q5kHyk9wfQ1Uakebkb1E4u3MtjAmlMje3YVHRRW5mFFFFABRRRTAKKKKQBRRRQAUUUUAFFFIzKqlmICjkknpQAtVb29htFzI2WPRB1NZuoa0BlLP8ZD/QVhu7OxZ2LMepJ5NaRhfclyLd/qM14SGO2Psg/r61ToorVKxAUUUUAFFFFABRRRQAV7P+zZ/wAf+u/9cov5tXjFez/s2f8AH/rv/XOL+bVx4/8A3eX9dTfC/wAVHu1FFFfMHshRRRQAUUUUAFFFFABRRRQAUUUUAFFFFABRRRQAUUUUAFFFJQAtFFFABRRRQAUUUUAFFFFABRRRQAUUUUAFFFFABRRRQAUUUUAFFFFABRRRQAUUUUAFFFFABRRRQAUUUUAGaKKKACiiigAooooAKKKKACiiigAooooAK4S+8UajDe3ESeTtSRlGU7A13deT6p/yE7v/AK7P/wChGurCwjJvmRhXk4pWNf8A4S3Uv+mH/fH/ANej/hLdS/6Yf98f/Xrn6Su32NPsc/tJdzof+Et1L/ph/wB8f/XrW8M69eajqRgufL2eWW+VcHORXEV0Xgb/AJDZ/wCuTfzFZ1aUFBtIqE5OSTZ6BRRRXmHaFFFFABRRRQAUUUUAFcb4y8Li7D32nIBcjmSIf8tPce/867Kirp1JU5c0SZwU1ZnhJBBIIwRSV6L4x8Li7D32nJi4HMkY/wCWnuPf+dedkEEgggjtXs0qsasbo86pTcHZiVYsLOe/ukt7VC8rngenufaiws57+6S3tYy8rngenufavV/DehwaLa7Uw9w4/eS46+w9qivXVJeZVKk5vyDw3ocGi2u1MPcOP3kuOvsParuqWFtqljLaXsQlgkGCp7e49DVuivIc5OXM3qd6ikrdD598ZeF7nw3fbWzLZSH9zNjr7H0Nc7X01qmn22qWMtpfRCWCQYIPb3HofevB/Gfhe58N321t0tlIf3M2OvsfQ17WExaqrkl8X5nn16HJ70djnaKKK7jmCiiigAooooEFFFFAwoprusalnYKo6kmsPUNaJzHacDvIev4VSi2Juxp31/DZr853SdkHX/61c3fX81437w4Tsg6CqzMWYliST1J70laxikQ3cKKKKoQUUUUAFFFFABRRRQAUUUUAFez/ALNn/H/rv/XKL+bV4xXs/wCzZ/x/67/1yi/m1ceP/wB3l/XU3wv8VHu1FFFfMHshRRRQAUUUUAFFFFABRRRQAUUUUAFFFFABRRRQAUUUUAFFFFABRRRQAUUUUAFFFFABRRRQAUUUUAFFFFABRRRQAUUUUAFFFFABRRRQAUUUUAFFFFABSUtFACUtFFABRRRQAUUUUAFFFFABRRRQAUUUUAFFFFABRRRQAV5Rqn/ITu/+uz/+hGvV68n1T/kJ3f8A12f/ANCNdmD3Zz4jZFaiiivQOUK6HwN/yGj/ANcm/mK56uh8Df8AIaP/AFyb+YrKt/DZdP4kegUUUV5B3hRRRQAUUUUAFFFFABRRRQAVyHizwp9vk+16cFS5Y/vEJwH9/Y/zrr6KunUlTfNEmcFNWZj+HNDg0W02Jh7hx+8l7n2HtWxRRSlJyd2NJRVkFFFFSMKqanYW2qWMtpexCWCQYKn+Y9DVuimm07oGrnz74z8LXPhu+2tmWykP7mbHX/ZPoa52voTx1f6Pp3hu6l8Q7WsyNoj/AInbsE/2v5da+cbK/hvd5hBQgn5GOSB25717+DrSrQvJbdTysRTVOVky1RRSV1mItFJTZZEiQvIwVR1JoEPqlf6jDaAgnfL2Qf19Ky9Q1lnylplF7uep+npWOSSck5JrSMO5Ll2LN7ezXb5lb5R0UdBVaiitNiQooooAKKKKACiiigAooooAKKKKACiiigAr2f8AZs/4/wDXf+ucX82rxivZ/wBmz/j/ANd/65xfzauPH/7vL+upvhf4qPdaWiivmD2RKWiigBKKWigBKWiigAooooASilooASloooAKKKKACkpaKACiiigApKWigAooooAKSlooASilooAKSlooAKKKKAEopaKACkpaKACiiigAooooAKKKKACiiigAooooAKKKKACiiigAooooAKKKKACiiigAooooAKKKKACiiigAryfVP+Qnd/8AXZ//AEI16xXk+qf8hO7/AOuz/wDoRrswe7OfEbIq0tFFd5yiV0Xgb/kNn/rk38xXPV0Pgb/kNn/rk38xWdb+Gy6fxI9AoooryDvCiiigAooooAKKKKACiiigAooooAKKKKACiiigArK8Ta9YeG9Jl1DU5dkKcKo5aRuyqO5NHibXrDw3pMuoanLshThVH3pG7Ko7k18teOfFt/4u1Y3d6xSBMiC3U/LEv9Se57/TArtweDliJXekUc9euqSstw8c+Lb/AMXasbq8JSBMiC3U5WJf6k9z3+mBXPwyvDIskTFXHQimUV9JCEYR5YrQ8iUnJ3Z0FprcbAC5Uo395RkGrw1GzIz9oSuRopOCDmOkudat4wRCDK30wKwru7mu33TNkdlHQVBRVKKQN3CiiimIKKKKACiiigAooooAKKKKACiiigBKWiigBKKWigBK9n/Zs/4/9d/65RfzavGa9n/Zs/4/9d/65RfzauPH/wC7y/rqb4X+Kj3aiiivmD2QooooAKKKKAEpaKKACiiigAooooAKKKKACiiigAooooAKKKKACiiigAooooAKKKKACiiigAooooAKKKKACiiigAooooAKKKKACiiigAooooAKKKKACiiigAooooAKKKKACiiigAooooAKKKKACiiigAooooAKKKKACvJ9V/5Cd3/12f8A9CNesV5Pqn/ITu/+uz/+hGuzB7s58RsirRS0V6ByiV0XgX/kNn/rk38xXO10Xgb/AJDZ/wCuTfzFZVv4bLp/Ej0CiiivIO8KKKKACiiigAooooAKKKKACiiigAooooAKKKKAPmz4+3l5N45a1uGcWsECG3T+HDDLMPfORn/ZrzWvrH4heCrLxhpnly4h1CIE29zjlT/dPqp/+vXy7rmk3uh6nNp+pwtDcxHBU9COxB7g+tfSZfXhUpqC0a/q55OKpSjNyezKFFFFd5yhRRRQAUUUUAFFFFABRRRQAUUUUAFFFFABRRRQAUUUUAFFFFABRRRQAV7P+zZ/x/67/wBcov5tXjFez/s2f8f+u/8AXOL+bVx4/wD3eX9dTfC/xUe7UUUV8weyFFFFABRRRQAUUUUAFFFFABRRRQAUUUUAFFFFABRRRQAUUUUAFFFFABRRRQAUUUUAFFFFABRRRQAUUUUAFFFFABRRRQAUUUUAFFFFABRRRQAUUUUAFFFFABRRRQAUUUUAFFFFABRRRQAUUUUAFFFFABRRRQAUUUUAFeUap/yE7v8A67P/AOhGvV68n1T/AJCd3/12f/0I12YPdnPiNkVqKKK7zlCuh8Df8hs/9cm/mK56uh8Df8hs/wDXJv5is638Nl0/iR6BRRRXkHeFFFFABRRRQAUUUUAFFFFABRRRQAUUUUAFFFFABXJfEPwVZ+MNL8uTbDqEQJt7nHKn+63qp/8Ar11tFXCcqclKLs0TKKkrM+MNb0m90TU5rDUoWhuYjhlPQjsQe4PrVGvrD4h+CbLxhpmyTbDqEQP2e5xyp/ut6qf0618u63pN7ompzWGpQNDcxHDKehHYg9wfWvpMJi44iP8AeR5Feg6T8ijRRRXYYBRRRQAUUUUAFFFFABRRRQAUUUUAFFFFABRRRQAUUUUAFFFFABXs/wCzZ/x/67/1zi/m1eMV7P8As2f8f+u/9cov5tXHj/8Ad5f11N8L/FR7tRRRXzB7IUUUUAFFFFABRRRQAUUUUAFFFFABRRRQAUUUUAFFFFABRRRQAUUUUAFFFFABRRRQAUUUUAFFFFABRRRQAUUUUAFFFFABRRRQAUUUUAFFFFABRRRQAUUUUAFFFFABRRRQAUUUUAFFFFABRRRQAUUUUAFFFFABRRRQAV5Pqn/ITu/+uz/+hGvWK8n1T/kJ3f8A12f/ANCNdmD3Zz4jZFaiiivQOUK6HwN/yGz/ANcm/mK56rFhe3FhP51q+yTG3O0Hj8aipFyi0ioO0k2es0V5v/wk+rf8/Q/79r/hR/wk+rf8/Q/79r/hXB9Un3R1e3iekUV5v/wk+rf8/I/79r/hR/wk+rf8/Q/79r/hR9Un3QvbxPSKK83/AOEn1b/n6H/ftf8ACj/hJtW/5+h/37X/AAo+qT7oPbxPSKK83/4SfVv+fkf9+1/wo/4SfVv+fkf9+1/wo+qT7oft4npFFeb/APCT6t/z8j/v2v8AhR/wk+rf8/Q/79r/AIUfVJ90Ht4npFFcp4R1e91G9mju5g6LHuA2Ac5HoK6usKkHTfKzSMlJXQUUUVBQUUUUAFFFFABXJfEPwVZeMNM2SbYdQiB+z3OOVP8Adb1U/p1rraKuE5U5KUXZomUVJWZ8Y65pN7ompzWGpQtDcxHDKehHYg9wfWqFfWHxD8E2XjDTNkm2HUIgfs9zjlT/AHW9VP8A9evl3W9JvdD1OfT9ThaG5iOGU9COxB7g+tfSYTFxxEe0keRXoOk/Io0UUV2GAUUUUAFFFFABRRRQAUUUUAFFFFABRRRQAUUUUAFFFFABXs/7Nn/H/rv/AFyi/m1eMV7P+zZ/x/67/wBcov5tXHj/APd5f11N8L/FR7tRRRXzB7IUUUUAFFFFABRRRQAUUUUAFFFFABRRRQAUUUUAFFFFABRRRQAUUUUAFFFFABRRRQAUUUUAFFFFABRRRQAUUUUAFFFFABRRRQAUUUUAFFFHFABRRxRxQAUUcUcUAFFFHFABRRxRxQAUUcUcUAFFHFFABRRxRQAUUcUUAFFFFABRRRQAV5Pqn/ITu/8Ars//AKEa9Y4ryfVP+Qnd/wDXZ/8A0I12YPdnPiNkVqKSivQOUKMUUUALRSUUAFFFFAC0UlFABRRRQAtJRRQB1HgH/kJXH/XH/wBmFd1XC+AP+Qlcf9cf6iu6ry8V/EO2j8AUUcUVzmoUUUcUAFFHFFABRRxRxQAVyXxD8E2XjDTNkm2HUIgfs9zjlT/db1U//XrreKOKuE5U5KUXZomUVJWZ8Ya5pN7oepzWGpwtDcxHBU9COxB7g+tUa+sPiH4KsvGGmeXJth1CIH7Pcgcqf7reqn/69fLuuaTe6Hqc1hqcLQ3MRwVPQjsQe4PrX0mExccRH+8eRXoOk/Io0UUV2GAUUUUAFFFFABRRRQAUUUUAFFFFABRRRQAUUUUAFe0fs2KTe6838IjhBP4v/hXi9fR3wA0V9O8JTX86lZNQl3rn/nmvC/ruP0IrhzGajQafU6cJG9VPsen0UcUcV80euFFHFHFABRRxRxQAUUUcUAFFHFHFABRRxRxQAUUcUUAFFHFHFABRRRxQAUUcUcUAFFHFHFABRRxRxQAUUcUUAFFHFFABRRxRxQAUUcUUAFFHFHFABRRxRxQAUUcUUAFFFFABRRRQAUUUUAFFFFABRRRQAUUUUAFFFFABRRRQAUUUUAFFFFABRRRQAUUUUAFeUap/yE7v/rs//oRr1euMvPCV1PdzzLcQgSOzAHPGTmurCzjBvmZhWi5JWORorqP+ENu/+fmD9aP+ENu/+fmD9a7PrFPuYeyn2OXorqP+ENuv+fmD9aP+ENuv+fmD9aPrFPuHsp9jl6K6j/hDbv8A5+YP1o/4Q27/AOfmD9aPrFPuHsp9jl6K6j/hDbr/AJ+YP1o/4Q27/wCfmD9aPrFPuHsp9jl6K6j/AIQ27/5+YP1o/wCENu/+fmD9aPrFPuHsp9jl6K6j/hDbr/n5g/Wj/hDbr/n5g/Wj6xT7h7KfY5eiuo/4Q27/AOfmD9aP+ENuv+fmD9aPrFPuHsp9hPAP/ISuP+uX/swruq53w3oM2lXcssssbh02gLn1Broq4MRJSndHVSTjGzCiiisDQKKKKACiiigAooooAKKKKACuS+Ifgqy8YaZ5cm2HUIgfs9zjlT/db1U//XrraKuE5U5KUXZomUVJWZ8Y65pN7oepzafqcLQ3MRwVPQjsQe4PrVCvrL4geCbHxjp4jnPkXsX+oulXJT2I7r7V5v8A8KIn/wCg/H/4CH/4uvfo5lSlG9R2Z5lTCTUvd1R4rRXtX/CiJ/8AoPx/+Ah/+Lo/4URP/wBB+P8A8BD/APF1r/aGH/m/B/5EfVavb8jxWivav+FET/8AQfj/APAQ/wDxdH/CiJ/+g/H/AOAh/wDi6P7Qw/8AN+D/AMg+q1e35HitFe0/8KIn/wCg/H/4CH/4ul/4URP/ANB+P/wEP/xdH9oYf+b8H/kH1Wr2/I8Vor2r/hRE/wD0H4//AAEP/wAXR/woif8A6D8f/gIf/i6P7Qw/834P/IPqtXt+R4rRXtX/AAoif/oPx/8AgIf/AIuj/hRE/wD0H4//AAEP/wAXR/aGH/m/B/5B9Vq9vyPFaK9q/wCFET/9B+P/AMBD/wDF0f8ACiJ/+g/H/wCAh/8Ai6P7Qw/834P/ACD6rV7HitFe1L8CJcjd4gQDvi0P/wAXXS+H/g1oGnSrLqMk+pyLztk+SP8A75HJ/EkVMsyoRV07jjhKreqseU/DPwFd+LNQSe4R4dGibM0xGPMx/AnqfU9vyFfUFtDFbW8UFvGscMShERRgKoGABRbwxW0CQ28SRQoNqIgCqo9AB0qSvExWKliJXeiXQ9GjRVJWW4UUUVymwUUUUAFFFFABRRRQAUUUUAFFFFABRRRQAUUUUAFFFFABRRRQAUUUUAFFFFABRRRQAUUUUAFFFFABRRRQAUUUUAFFFFABRRRQAUUUUAFFFFABRRRQAUUUUAFFFFABRRRQAUUUUAFFFFABRRRQAUUUUAFFFFABRRRQAUUUUAFFFFABRRRQAUUUUAFFFFABRRRQAUUUUAFFFFABRRRQAUUUUAFFFFABRRRQAUUUUAFFFFABRRRQAUUUUAFFFFABRRRQAUUUUAFFFFABRRRQAUUUUAFFFFABRRRQAUUUUAFFFFABRRRQAUUUUAFFFFABRRRQAUUUUAFFFFABRRRQAUUUUAFFFFABRRRQAUUUUAFFFFABRRRQAUUUUAFFFFABRRRQAUUUUAFFFFABRRRQAUUUUAFFFFABRRRQAUUUUAFFFFABRRRQAUUUUAFFFFABRRRQAUUUUAFFFFABRRRQAUUUUAFFFFABRRRQAUUUUAFFFFABRRRQAUUUUAFFFFABRRRQAUUUUAFFFFABRRRQAUUUUAFFFFABRRRQAUUUUAFFFFABRRRQAUUUUAFFFFABRRRQAUUUUAFFFFABRRRQAUUUUAFFFFABRRRQAUUUUAFFFFABRRRQAUUUUAFFFFABRRRQAUUUUAFFFFABRRRQAUUUUAFFFFABRRRQAUUUUAFFFFABRRRQAUUUUAFFFFABRRRQAUUUUAFFFFABRRRQAUUUUAFFFFABRRRQAUUUUAFFFFABRRRQAUUUUAFFFFABRRRQAUUUUAFFFFABRRRQAUUUUAFFFFABRRRQAUUUUAFFFFABRRRQAUUUUAFFFFABRRRQAUUUUAFFFFABRRRQAUUUUAFFFFABRRRQAUUUUAFFFFABRRRQAUUUUAFFFFABRRRQAUUUUAFFFFABRRRQAUUUUAFFFFABRRRQAUUUUAFFFFABRRRQAUUUUAFFFFABRRRQAUUUUAFFFFABRRRQAUUUUAFFFH5UAFFFFABRRRQAUUUUAFFFFABRRRQAUUUUAFFFH5UAFFFFABRRRQAUUUUAFFFFABRRRQAUUUUAFFFFABRRRQAUUUUAFFFFABRRRQAUUUUAFFFFABRRRQAUUUUAFFFFABRRRQAUUUUAFFFFABRRRQAUUUUAFFFFABRRRQAUUUUAFFH5UUAFFFFABRR+VFABRRRQAUUUflQAUUUUAFFFFABRRR+VABRRRQAUUUUAFFFH5UAFFFFABRRRQAUUflRQAUUUUAFFH5UUAFFFFABRRRQAUUflRQAUUUflQAUUUUAFFH5UUAFFFFABRRRQAlLRR3oAKKKKACijtRQAUUUUAFFFFABRRR2oAKKO1HagAooooAKKKKACiiigAooooAKKKKACiigUAFFFFABRRQaACiiigAooooAKKKKACig0UAFFFFABRRRQAUUUUAFFFFABRRRQAUUUUAFFFFABRRRQAUUUUAFFFFABRRRQAUUUUAFFFAoAKKD0ooAKKKKACiiigAooooAKKKDQAUUd6KACiij1oAKKKKACijtRQAUUUUAFFFFABRQKKACiiigAooooAKKKBQAUUUlAC0UUUAFFFFABRRRQAUUUUAFFFFABRRRQB//Z;" vertex="1" parent="1">
          <mxGeometry x="211.74" y="210" width="93.26" height="70" as="geometry" />
        </mxCell>
        <mxCell id="vk7fomVInif-CjgZtPBc-16" value="" style="edgeStyle=orthogonalEdgeStyle;rounded=0;orthogonalLoop=1;jettySize=auto;html=1;" edge="1" parent="1" source="vk7fomVInif-CjgZtPBc-5">
          <mxGeometry relative="1" as="geometry">
            <mxPoint x="379" y="240" as="targetPoint" />
          </mxGeometry>
        </mxCell>
        <mxCell id="vk7fomVInif-CjgZtPBc-5" value="" style="shape=image;verticalLabelPosition=bottom;labelBackgroundColor=#ffffff;verticalAlign=top;aspect=fixed;imageAspect=0;image=data:image/svg+xml,PHN2ZyB4bWxuczp2PSJodHRwOi8vc2NoZW1hcy5taWNyb3NvZnQuY29tL3Zpc2lvLzIwMDMvU1ZHRXh0ZW5zaW9ucy8iIHhtbG5zOmRjPSJodHRwOi8vcHVybC5vcmcvZGMvZWxlbWVudHMvMS4xLyIgeG1sbnM6Y2M9Imh0dHA6Ly9jcmVhdGl2ZWNvbW1vbnMub3JnL25zIyIgeG1sbnM6cmRmPSJodHRwOi8vd3d3LnczLm9yZy8xOTk5LzAyLzIyLXJkZi1zeW50YXgtbnMjIiB4bWxuczpzdmc9Imh0dHA6Ly93d3cudzMub3JnLzIwMDAvc3ZnIiB4bWxucz0iaHR0cDovL3d3dy53My5vcmcvMjAwMC9zdmciIHhtbG5zOnNvZGlwb2RpPSJodHRwOi8vc29kaXBvZGkuc291cmNlZm9yZ2UubmV0L0RURC9zb2RpcG9kaS0wLmR0ZCIgeG1sbnM6aW5rc2NhcGU9Imh0dHA6Ly93d3cuaW5rc2NhcGUub3JnL25hbWVzcGFjZXMvaW5rc2NhcGUiIHZlcnNpb249IjEuMSIgaWQ9InN2ZzU2NjExIiBpbmtzY2FwZTp2ZXJzaW9uPSIwLjkyLjMgKDI0MDU1NDYsIDIwMTgtMDMtMTEpIiBzb2RpcG9kaTpkb2NuYW1lPSJhenVyZV9jb250YWluZXJfcmVnaXN0cnkuc3ZnIiB4PSIwcHgiIHk9IjBweCIgdmlld0JveD0iMCAwIDI2Ljk0IDIzLjYzIiB4bWw6c3BhY2U9InByZXNlcnZlIiB3aWR0aD0iMjYuOTQwMDAxIiBoZWlnaHQ9IjIzLjYyOTk5OSI+PG1ldGFkYXRhIGlkPSJtZXRhZGF0YTU5OTIiPjxyZGY6UkRGPjxjYzpXb3JrIHJkZjphYm91dD0iIj48ZGM6Zm9ybWF0PmltYWdlL3N2Zyt4bWw8L2RjOmZvcm1hdD48ZGM6dHlwZSByZGY6cmVzb3VyY2U9Imh0dHA6Ly9wdXJsLm9yZy9kYy9kY21pdHlwZS9TdGlsbEltYWdlIi8+PGRjOnRpdGxlLz48L2NjOldvcms+PC9yZGY6UkRGPjwvbWV0YWRhdGE+PGRlZnMgaWQ9ImRlZnM1OTkwIi8+JiN4YTs8ZmlsdGVyIGlkPSJmaWx0ZXJfMiI+JiN4YTsJPGZlR2F1c3NpYW5CbHVyIGlkPSJmZUdhdXNzaWFuQmx1cjU2NTI0IiBzdGREZXZpYXRpb249IjIiLz4mI3hhOzwvZmlsdGVyPiYjeGE7PHNvZGlwb2RpOm5hbWVkdmlldyBib3JkZXJjb2xvcj0iIzY2NjY2NiIgYm9yZGVyb3BhY2l0eT0iMSIgZml0LW1hcmdpbi1ib3R0b209IjAiIGZpdC1tYXJnaW4tbGVmdD0iMCIgZml0LW1hcmdpbi1yaWdodD0iMCIgZml0LW1hcmdpbi10b3A9IjAiIGdyaWR0b2xlcmFuY2U9IjEwIiBndWlkZXRvbGVyYW5jZT0iMTAiIGlkPSJuYW1lZHZpZXc1NjYxMyIgaW5rc2NhcGU6Y3VycmVudC1sYXllcj0ic3ZnNTY2MTEiIGlua3NjYXBlOmN4PSItMy4yMzMzOTE1IiBpbmtzY2FwZTpjeT0iMy4zOTE1MjcxIiBpbmtzY2FwZTpwYWdlb3BhY2l0eT0iMCIgaW5rc2NhcGU6cGFnZXNoYWRvdz0iMiIgaW5rc2NhcGU6d2luZG93LWhlaWdodD0iMTAxNyIgaW5rc2NhcGU6d2luZG93LW1heGltaXplZD0iMSIgaW5rc2NhcGU6d2luZG93LXdpZHRoPSIxOTIwIiBpbmtzY2FwZTp3aW5kb3cteD0iLTgiIGlua3NjYXBlOndpbmRvdy15PSItOCIgaW5rc2NhcGU6em9vbT0iMTUuMjM5OTUyIiBvYmplY3R0b2xlcmFuY2U9IjEwIiBwYWdlY29sb3I9IiNmZmZmZmYiIHNob3dncmlkPSJmYWxzZSI+JiN4YTsJPC9zb2RpcG9kaTpuYW1lZHZpZXc+JiN4YTs8djpkb2N1bWVudFByb3BlcnRpZXMgdjpsYW5nSUQ9IjIwNTciIHY6bWV0cmljPSJ0cnVlIiB2OnZpZXdNYXJrdXA9ImZhbHNlIi8+JiN4YTsmI3hhOzxwYXRoIGlkPSJwYXRoNTY1MzciIGlua3NjYXBlOmNvbm5lY3Rvci1jdXJ2YXR1cmU9IjAiIHN0eWxlPSJmaWxsOiM1OWI0ZDkiIGQ9Ik0gOC4xOCwxOC4wMyBIIDQuNDMgQyAxLjkzLDE3LjM5IDAsMTUuMzYgMCwxMi42NyAwLDEwLjQ0IDEuNCw4LjQgMy4yOSw3LjYzIDMuMjcsNy40IDMuMjYsNy4xNiAzLjI2LDYuOTMgMy4yNiwzLjEgNi4yNywwIDkuOTgsMCBjIDIuMDQsMCAzLjk3LDAuOTUgNS4yNCwyLjU5IDAuNzYsLTAuNCAxLjYsLTAuNiAyLjQ1LC0wLjYgMi45NCwwIDUuNDksMi42OSA1LjU5LDUuNyBMIDEzLjIyLDMuNDIgOC4xOCw2LjU1IFoiLz4mI3hhOyYjeGE7PHBhdGggaWQ9InBhdGg1NjU0NyIgaW5rc2NhcGU6Y29ubmVjdG9yLWN1cnZhdHVyZT0iMCIgc3R5bGU9ImZpbGw6Izk1OTU5NSIgZD0iTSAyNi45NCwyMC44OCAxMy4xLDIzLjYgMTMuMTYsMTMuNTggMjYuOTQsMTYuMjEgWiBNIDEzLjE1LDQuNzMgMjYuOTQsMTAuMDcgdiA1LjM2IEwgMTMuMTcsMTIuNDEgWiIvPiYjeGE7JiN4YTsmI3hhOzxwYXRoIGlkPSJwYXRoNTY1NTkiIGlua3NjYXBlOmNvbm5lY3Rvci1jdXJ2YXR1cmU9IjAiIHN0eWxlPSJmaWxsOiNiM2I0YjUiIGQ9Ik0gMTMuMTcsMTIuNCA5LjQyLDE0LjIgViA3LjA2IGwgMy43MywtMi4zMyB6IG0gMTMuMTQsMi40MSAtMTIuNSwtMi45NCB2IC02LjQgbCAxMi41LDQuNzUgeiBtIC02Ljg4LC0yLjMgMS4yNSwwLjM2IFYgOC42OSBMIDE5LjQzLDguMjQgWiBNIDE4LjE4LDcuODMgMTYuOTMsNy4zNyB2IDQuNDYgbCAxLjI1LDAuMzYgeiBtIDMuNzUsNS4zOSAxLjI0LDAuMzMgMC4wMiwtMy45NyAtMS4yNiwtMC40NCB6IG0gLTcuNSwtMi4wNSAxLjI1LDAuMzMgViA2Ljk0IEwgMTQuNDMsNi41MiBaIG0gMTEuMjUsLTAuNzEgLTEuMjUsLTAuNDUgdiAzLjg4IGwgMS4yNSwwLjM1IHogbSAtMTEuODcsNC4xOSB2IDguMjYgbCAxMi41LC0yLjM2IHYgLTMuOTIgeiBtIDAuNjIsNy4yOSB2IC02LjM1IGwgMS4yNSwwLjE2IHYgNS45OCB6IG0gMy43NSwtMC42NSAtMS4yNSwwLjI0IHYgLTUuNjIgbCAxLjI1LDAuMTkgeiBtIDEuMjUsLTAuMTggdiAtNC44OCBsIDEuMjUsMC4xNiB2IDQuNDggeiBtIDMuNzUsLTAuNjggLTEuMjUsMC4yMiB2IC00LjEgbCAxLjI1LDAuMTkgeiBtIDIuNTUsLTAuNDIgLTEuMywwLjI0IHYgLTMuMzggbCAxLjIxLDAuMTYgeiIvPiYjeGE7JiN4YTsmI3hhOzxwYXRoIGlkPSJwYXRoNTY1NjkiIGlua3NjYXBlOmNvbm5lY3Rvci1jdXJ2YXR1cmU9IjAiIHN0eWxlPSJmaWxsOiM5NTk1OTUiIGQ9Im0gMTAuNjksMTIuMjggLTAuNjMsMC4zOCBWIDcuNTkgbCAwLjYzLC0wLjM1IHogbSAxLjI0LC01Ljc4IC0wLjYyLDAuNDQgLTAuMDEsNC45MyAwLjYzLC0wLjM1IHoiLz4mI3hhOyYjeGE7PHBhdGggaWQ9InBhdGg1NjU3OSIgaW5rc2NhcGU6Y29ubmVjdG9yLWN1cnZhdHVyZT0iMCIgc3R5bGU9ImZpbGw6I2IzYjRiNSIgZD0iTSA5LjQyLDIxLjMyIDkuNCwxNS40NiAxMy4xNiwxMy41OSAxMy4xOCwyMy42MyBaIi8+JiN4YTsmI3hhOyYjeGE7PHBhdGggaWQ9InBhdGg1NjU4OSIgaW5rc2NhcGU6Y29ubmVjdG9yLWN1cnZhdHVyZT0iMCIgc3R5bGU9ImZpbGw6Izk1OTU5NSIgZD0iTSAxMC42MSwyMS4zIDEwLjA0LDIxIHYgLTQuOTUgbCAwLjU3LC0wLjI2IHogbSAxLjM0LC02LjEzIC0wLjYyLDAuMjggLTAuMDIsNi4yNCAwLjY0LDAuMzQgeiIvPiYjeGE7JiN4YTs8cGF0aCBpZD0icGF0aDU2NTk3IiBpbmtzY2FwZTpjb25uZWN0b3ItY3VydmF0dXJlPSIwIiBzdHlsZT0iZmlsbDojN2E3YTdhIiBkPSJtIDI1LjY3LDEwLjg4IC0xMS4yNCwtMy44OSAwLjAyLC0wLjUgMTEuMjIsMy45OCB6IG0gLTAuMDMsNi4xNSAtMTEuMTksLTEuNDQgdiAwLjUgbCAxMS4yLDEuMzYgeiBNIDExLjkzLDcuMTcgViA2LjUzIEwgMTAuMTIsNy41NyAxMC4wOSw4LjEgWiBtIC0xLjg5LDkuMjUgMS45MSwtMC43MSB2IC0wLjU1IGwgLTEuOTEsMC44OSB6Ii8+JiN4YTsmI3hhOyYjeGE7PC9zdmc+;" vertex="1" parent="1">
          <mxGeometry x="353" y="130" width="52" height="47" as="geometry" />
        </mxCell>
        <mxCell id="vk7fomVInif-CjgZtPBc-7" value="" style="shape=waypoint;sketch=0;size=6;pointerEvents=1;points=[];fillColor=default;resizable=0;rotatable=0;perimeter=centerPerimeter;snapToPoint=1;verticalAlign=top;labelBackgroundColor=default;" vertex="1" parent="1">
          <mxGeometry x="330" y="120" width="40" height="40" as="geometry" />
        </mxCell>
        <mxCell id="vk7fomVInif-CjgZtPBc-18" value="Azure Build Pipeline" style="text;html=1;align=center;verticalAlign=middle;resizable=0;points=[];autosize=1;strokeColor=none;fillColor=none;" vertex="1" parent="1">
          <mxGeometry x="180" y="20" width="120" height="20" as="geometry" />
        </mxCell>
        <mxCell id="vk7fomVInif-CjgZtPBc-19" value="Azure Deploy Pipeline" style="text;html=1;align=center;verticalAlign=middle;resizable=0;points=[];autosize=1;strokeColor=none;fillColor=none;" vertex="1" parent="1">
          <mxGeometry x="165" y="282" width="130" height="20" as="geometry" />
        </mxCell>
        <mxCell id="vk7fomVInif-CjgZtPBc-20" value="Azure Container Registry&amp;nbsp;" style="text;html=1;align=center;verticalAlign=middle;resizable=0;points=[];autosize=1;strokeColor=none;fillColor=none;" vertex="1" parent="1">
          <mxGeometry x="405" y="140" width="150" height="20" as="geometry" />
        </mxCell>
        <mxCell id="vk7fomVInif-CjgZtPBc-21" value="Azure Kubernetes Service." style="text;html=1;align=center;verticalAlign=middle;resizable=0;points=[];autosize=1;strokeColor=none;fillColor=none;" vertex="1" parent="1">
          <mxGeometry x="415" y="280" width="160" height="20" as="geometry" />
        </mxCell>
      </root>
    </mxGraphModel>
  </diagram>
</mxfile>
